<?xml version="1.0" encoding="UTF-8" standalone="no"?>
<!DOCTYPE svg PUBLIC "-//W3C//DTD SVG 1.1//EN" "http://www.w3.org/Graphics/SVG/1.1/DTD/svg11.dtd">
<svg xmlns="http://www.w3.org/2000/svg" version="1.1" viewBox="0.00 0.00 833.00 92.00">
<g stroke-width="2.00" fill="none" stroke-linecap="butt">
<path stroke="#1b5e8f" vector-effect="non-scaling-stroke" d="
  M 30.78 0.57
  Q 31.29 4.88 31.83 6.14
  Q 32.67 8.09 31.67 9.17
  Q 31.34 9.52 31.22 9.99
  Q 31.01 10.84 30.51 11.50
  Q 30.14 11.98 30.24 12.57
  Q 30.36 13.28 30.54 14.02
  Q 30.67 14.56 30.48 15.07
  Q 29.14 18.71 30.22 21.94"
/>
<path stroke="#80aac2" vector-effect="non-scaling-stroke" d="
  M 30.22 21.94
  C 23.60 22.14 17.59 20.81 14.02 28.00"
/>
<path stroke="#064c7a" vector-effect="non-scaling-stroke" d="
  M 14.02 28.00
  Q 13.10 28.78 12.59 28.55
  Q 12.34 28.45 12.12 28.60
  L 11.83 28.79
  Q 11.51 29.01 11.22 28.76
  Q 10.22 27.92 8.93 27.86
  Q 7.96 27.81 7.54 26.87
  Q 7.34 26.42 7.11 26.86
  Q 7.02 27.02 6.84 27.04
  Q 6.49 27.07 6.18 26.92
  Q 3.44 25.61 0.54 24.54"
/>
<path stroke="#94a6bb" vector-effect="non-scaling-stroke" d="
  M 32.55 25.18
  L 32.52 26.10
  Q 32.50 26.68 31.92 26.69
  L 28.31 26.79"
/>
<path stroke="#80aac2" vector-effect="non-scaling-stroke" d="
  M 28.31 26.79
  C 24.57 26.66 20.30 26.17 18.74 29.54
  Q 17.73 31.73 18.97 33.93
  Q 20.64 36.91 24.94 36.17"
/>
<path stroke="#94a6bb" vector-effect="non-scaling-stroke" d="
  M 24.94 36.17
  L 31.37 36.22
  Q 32.66 36.23 32.54 37.51
  L 32.38 39.15
  A 1.92 1.91 -89.1 0 1 30.59 40.89
  L 27.96 41.04"
/>
<path stroke="#85a1b7" vector-effect="non-scaling-stroke" d="
  M 27.96 41.04
  C 24.86 41.05 21.60 41.39 18.86 40.09
  Q 11.97 36.79 14.02 28.00"
/>
<path stroke="#85a1b7" vector-effect="non-scaling-stroke" d="
  M 26.46 51.01
  Q 22.37 50.76 20.75 51.26
  Q 13.58 53.47 13.42 61.29"
/>
<path stroke="#133867" vector-effect="non-scaling-stroke" d="
  M 13.42 61.29
  Q 12.55 63.76 8.28 63.81
  Q 7.93 63.81 7.72 64.09
  Q 7.56 64.31 7.33 64.22
  Q 5.09 63.39 2.20 64.06
  Q 1.81 64.15 1.71 63.77
  Q 1.65 63.54 1.39 63.46
  A 0.18 0.18 0.0 0 0 1.16 63.63
  Q 1.15 63.77 1.12 63.92
  Q 1.01 64.50 0.88 63.77
  Q 0.82 63.44 0.52 63.46"
/>
<path stroke="#5572a2" vector-effect="non-scaling-stroke" d="
  M 49.90 0.53
  Q 48.83 4.09 49.68 7.75
  C 50.05 9.37 49.63 10.31 49.20 11.79
  A 1.18 1.15 40.0 0 0 49.29 12.70
  Q 50.22 14.45 50.94 16.47
  Q 51.13 17.02 51.13 17.57
  Q 51.13 18.07 51.57 18.25
  A 0.56 0.56 0.0 0 1 51.93 18.79
  L 51.78 24.19"
/>
<path stroke="#9ab3cc" vector-effect="non-scaling-stroke" d="
  M 51.78 24.19
  Q 44.25 18.68 37.52 25.00"
/>
<path stroke="#2f5a88" vector-effect="non-scaling-stroke" d="
  M 37.52 25.00
  L 36.92 24.00
  Q 36.56 23.42 36.18 23.99
  Q 35.79 24.59 35.07 24.45
  Q 34.50 24.34 34.25 24.87
  Q 33.28 26.88 32.55 25.18"
/>
<path stroke="#9ab3cc" vector-effect="non-scaling-stroke" d="
  M 32.55 25.18
  L 32.31 22.61
  Q 32.26 22.07 31.72 22.03
  L 30.22 21.94"
/>
<path stroke="#444e77" vector-effect="non-scaling-stroke" d="
  M 36.64 36.40
  Q 34.11 40.03 35.69 45.09
  Q 35.84 45.57 36.21 45.90
  Q 37.40 46.94 38.42 49.23
  Q 39.15 50.88 40.54 51.26"
/>
<path stroke="#94a6bb" vector-effect="non-scaling-stroke" d="
  M 40.54 51.26
  L 36.12 55.71"
/>
<path stroke="#223d6a" vector-effect="non-scaling-stroke" d="
  M 36.12 55.71
  Q 35.53 55.74 35.05 56.23
  Q 34.72 56.56 34.32 56.32
  Q 33.35 55.74 32.53 55.61"
/>
<path stroke="#94a6bb" vector-effect="non-scaling-stroke" d="
  M 32.53 55.61
  L 32.41 51.62
  Q 32.39 51.10 31.87 51.09
  L 26.46 51.01"
/>
<path stroke="#194873" vector-effect="non-scaling-stroke" d="
  M 26.46 51.01
  Q 26.73 50.46 26.14 50.04
  Q 25.77 49.77 25.77 49.32
  L 25.77 48.57
  Q 25.77 48.14 25.46 47.83
  Q 25.11 47.47 25.01 46.94
  Q 24.94 46.49 25.37 46.36
  Q 25.89 46.21 26.09 45.64
  A 0.94 0.93 -50.9 0 0 26.01 44.84
  Q 25.47 43.91 26.33 43.06
  Q 26.76 42.64 26.83 42.05
  Q 26.95 41.13 27.96 41.04"
/>
<path stroke="#15517d" vector-effect="non-scaling-stroke" d="
  M 24.94 36.17
  L 24.48 35.62
  Q 24.12 35.18 24.42 34.70
  Q 24.66 34.31 24.36 33.94
  A 0.77 0.74 -65.4 0 1 24.18 33.42
  Q 24.21 32.28 25.00 32.40
  Q 25.32 32.45 25.45 32.16
  Q 25.98 31.05 27.10 30.07
  Q 27.40 29.81 27.80 29.82
  Q 28.81 29.85 28.97 28.84
  A 0.82 0.81 23.7 0 0 28.66 28.06
  Q 28.00 27.55 28.31 26.79"
/>
<path stroke="#8e96af" vector-effect="non-scaling-stroke" d="
  M 32.53 55.61
  Q 28.21 55.77 23.84 55.80
  Q 21.57 55.81 20.42 56.55
  C 16.55 59.02 18.21 65.08 22.74 65.22
  Q 26.68 65.34 31.09 65.21
  Q 33.04 65.15 32.54 67.11
  Q 32.51 67.21 32.29 68.05
  Q 31.79 69.99 29.79 69.97
  C 26.66 69.95 22.77 70.47 19.82 69.42
  Q 14.50 67.53 13.42 61.29"
/>
<path stroke="#2b2e5f" vector-effect="non-scaling-stroke" d="
  M 44.82 70.54
  Q 52.15 74.30 60.53 76.17
  Q 61.90 76.48 62.53 77.73
  Q 62.86 78.38 63.55 78.65
  Q 64.19 78.91 64.12 79.60
  Q 63.93 81.59 65.25 83.12
  Q 65.57 83.49 65.62 83.98
  Q 66.05 88.27 68.51 91.50"
/>
<path stroke="#8383b0" vector-effect="non-scaling-stroke" d="
  M 55.72 0.54
  L 55.94 15.03
  Q 55.95 15.45 55.77 15.84
  Q 55.48 16.46 55.73 17.25
  Q 55.90 17.82 56.11 17.26
  Q 56.24 16.93 56.61 17.07
  Q 57.15 17.27 57.11 17.85
  Q 56.93 20.24 58.16 22.25"
/>
<path stroke="#babed5" vector-effect="non-scaling-stroke" d="
  M 58.16 22.25
  L 58.23 26.96"
/>
<path stroke="#8383b0" vector-effect="non-scaling-stroke" d="
  M 58.23 26.96
  Q 56.90 26.67 55.82 26.03
  Q 55.47 25.83 55.31 26.20
  Q 55.07 26.76 54.02 27.34"
/>
<path stroke="#babed5" vector-effect="non-scaling-stroke" d="
  M 54.02 27.34
  L 51.78 24.19"
/>
<path stroke="#c8c5da" vector-effect="non-scaling-stroke" d="
  M 54.02 27.34
  Q 55.23 33.33 54.67 40.57"
/>
<path stroke="#afa7bc" vector-effect="non-scaling-stroke" d="
  M 54.67 40.57
  Q 52.11 41.82 50.76 40.26
  Q 49.91 39.27 49.94 37.86
  C 50.00 34.02 51.14 27.23 45.52 26.51
  C 39.21 25.70 37.75 35.63 44.86 36.28
  Q 45.50 36.34 45.50 36.98
  L 45.49 40.30
  A 0.74 0.74 0.0 0 1 44.74 41.03
  Q 39.58 40.90 36.64 36.40"
/>
<path stroke="#94a6bb" vector-effect="non-scaling-stroke" d="
  M 36.64 36.40
  Q 33.52 30.50 37.52 25.00"
/>
<path stroke="#81597b" vector-effect="non-scaling-stroke" d="
  M 58.99 40.56
  Q 57.75 41.54 57.88 43.12
  Q 57.93 43.64 58.33 44.00
  L 61.55 46.84
  Q 61.84 47.10 62.22 47.17
  Q 62.73 47.27 62.84 47.83
  A 1.09 1.08 -85.6 0 0 63.52 48.63
  Q 65.99 49.59 65.63 50.90"
/>
<path stroke="#afa7bc" vector-effect="non-scaling-stroke" d="
  M 65.63 50.90
  L 65.26 58.34"
/>
<path stroke="#62406c" vector-effect="non-scaling-stroke" d="
  M 65.26 58.34
  Q 62.96 56.52 63.06 59.71"
/>
<path stroke="#afa7bc" vector-effect="non-scaling-stroke" d="
  M 63.06 59.71
  L 62.97 51.76
  Q 62.96 51.00 62.20 51.00
  L 59.02 50.99
  Q 58.29 50.99 58.25 51.72
  Q 57.84 61.01 58.86 69.69"
/>
<path stroke="#4c3e6c" vector-effect="non-scaling-stroke" d="
  M 58.86 69.69
  Q 58.20 69.75 57.11 68.85
  A 1.85 1.82 68.9 0 0 56.25 68.46
  Q 55.11 68.28 54.50 67.61
  Q 54.22 67.31 53.66 66.14"
/>
<path stroke="#afa7bc" vector-effect="non-scaling-stroke" d="
  M 53.66 66.14
  Q 58.18 48.96 40.54 51.26"
/>
<path stroke="#9c97b0" vector-effect="non-scaling-stroke" d="
  M 53.66 66.14
  Q 49.59 70.29 44.82 70.54"
/>
<path stroke="#8e96af" vector-effect="non-scaling-stroke" d="
  M 44.82 70.54
  Q 32.40 68.21 36.12 55.71"
/>
<path stroke="#a093bb" vector-effect="non-scaling-stroke" d="
  M 62.43 0.53
  Q 62.51 2.54 62.48 4.45
  Q 62.46 5.85 62.88 6.97
  Q 63.36 8.26 63.35 9.57
  C 63.33 10.92 63.93 12.08 64.07 13.41
  Q 64.12 13.85 64.47 14.13
  Q 64.76 14.36 65.00 14.64
  Q 65.25 14.92 65.32 14.56
  Q 65.35 14.40 65.45 14.26
  Q 65.69 13.96 65.80 14.34
  L 66.51 17.02
  Q 66.60 17.37 66.93 17.53
  Q 67.13 17.63 67.25 17.85
  Q 67.43 18.18 67.40 18.55
  L 67.13 21.97"
/>
<path stroke="#c8c5da" vector-effect="non-scaling-stroke" d="
  M 67.13 21.97
  L 65.82 22.00
  Q 65.30 22.01 65.29 22.54
  L 65.26 36.70"
/>
<path stroke="#9a779a" vector-effect="non-scaling-stroke" d="
  M 65.26 36.70
  Q 64.60 36.35 64.37 35.91
  Q 64.15 35.50 63.76 35.73
  Q 63.10 36.11 63.02 36.70"
/>
<path stroke="#c8c5da" vector-effect="non-scaling-stroke" d="
  M 63.02 36.70
  L 62.92 22.82
  Q 62.92 22.31 62.43 22.18
  Q 60.41 21.65 58.16 22.25"
/>
<path stroke="#d1b1bf" vector-effect="non-scaling-stroke" d="
  M 63.02 36.70
  L 62.96 40.43
  Q 62.95 40.94 62.44 41.00
  Q 60.60 41.22 58.99 40.56"
/>
<path stroke="#afa7bc" vector-effect="non-scaling-stroke" d="
  M 58.99 40.56
  Q 58.69 39.96 58.76 40.32"
/>
<path stroke="#c8c5da" vector-effect="non-scaling-stroke" d="
  M 58.76 40.32
  Q 58.27 39.38 58.27 39.00
  Q 58.25 32.98 58.23 26.96"
/>
<path stroke="#786c97" vector-effect="non-scaling-stroke" d="
  M 58.76 40.32
  Q 56.64 39.14 54.67 40.57"
/>
<path stroke="#783760" vector-effect="non-scaling-stroke" d="
  M 77.31 69.78
  Q 78.40 70.96 79.58 72.05
  Q 80.71 73.11 82.15 73.69
  Q 83.42 74.21 84.31 75.24
  Q 84.69 75.68 85.23 75.89
  Q 86.07 76.20 86.70 76.81
  Q 87.33 77.43 88.19 77.76
  Q 89.74 78.35 91.41 78.56"
/>
<path stroke="#4f3060" vector-effect="non-scaling-stroke" d="
  M 84.30 91.23
  Q 82.90 88.17 80.40 86.29
  C 79.55 85.65 79.28 85.02 78.96 84.05
  Q 78.90 83.86 78.70 83.83
  Q 78.46 83.80 78.25 83.93
  A 0.05 0.05 0.0 0 1 78.17 83.91
  Q 77.52 82.43 76.68 80.98
  Q 76.48 80.63 76.10 80.51
  C 74.94 80.12 74.31 78.47 73.34 77.60
  Q 71.31 75.78 69.35 73.89
  Q 68.10 72.69 66.92 72.14
  Q 65.67 71.55 64.43 70.75
  Q 64.27 70.65 64.10 70.70
  Q 63.96 70.73 63.94 70.93
  A 0.03 0.03 0.0 0 1 63.89 70.95
  Q 63.08 69.98 62.05 70.08"
/>
<path stroke="#d1b1bf" vector-effect="non-scaling-stroke" d="
  M 74.36 50.90
  L 73.04 51.05
  Q 72.50 51.11 72.50 51.66
  L 72.49 62.94"
/>
<path stroke="#844b6f" vector-effect="non-scaling-stroke" d="
  M 72.49 62.94
  Q 71.03 59.19 70.02 62.53"
/>
<path stroke="#d1b1bf" vector-effect="non-scaling-stroke" d="
  M 70.02 62.53
  Q 70.04 57.77 69.94 53.00
  Q 69.88 50.73 65.63 50.90"
/>
<path stroke="#b299af" vector-effect="non-scaling-stroke" d="
  M 70.02 62.53
  L 70.04 68.47
  Q 70.04 70.54 68.03 70.07
  Q 67.72 70.00 67.41 69.92
  Q 65.24 69.35 65.24 67.11
  L 65.26 58.34"
/>
<path stroke="#b299af" vector-effect="non-scaling-stroke" d="
  M 63.06 59.71
  L 62.93 69.51
  Q 62.93 70.05 62.39 70.07
  L 62.05 70.08"
/>
<path stroke="#9c97b0" vector-effect="non-scaling-stroke" d="
  M 62.05 70.08
  L 58.86 69.69"
/>
<path stroke="#f2c5c9" vector-effect="non-scaling-stroke" d="
  M 70.01 35.43
  Q 70.43 39.62 69.33 41.14"
/>
<path stroke="#d1b1bf" vector-effect="non-scaling-stroke" d="
  M 69.33 41.14
  Q 64.54 41.37 65.26 36.70"
/>
<path stroke="#c0a7ca" vector-effect="non-scaling-stroke" d="
  M 71.55 0.53
  Q 72.41 2.71 71.37 5.99
  Q 71.27 6.30 71.38 6.60
  Q 71.81 7.75 71.50 8.89
  Q 71.41 9.26 71.66 9.55
  Q 72.15 10.12 72.84 10.00
  Q 73.26 9.94 73.39 10.34
  Q 73.77 11.52 73.44 12.58
  Q 73.34 12.91 73.52 13.19
  Q 74.42 14.60 73.37 15.61
  Q 72.97 16.00 73.38 16.37
  Q 73.64 16.62 73.78 16.94
  Q 73.96 17.37 74.42 17.27
  Q 75.19 17.10 75.73 18.30"
/>
<path stroke="#c89eb9" vector-effect="non-scaling-stroke" d="
  M 75.73 18.30
  Q 75.66 18.97 75.85 19.74
  Q 75.96 20.21 75.61 20.54
  Q 75.02 21.08 74.83 21.95"
/>
<path stroke="#d7cde0" vector-effect="non-scaling-stroke" d="
  M 74.83 21.95
  L 73.02 22.01
  Q 72.51 22.03 72.51 22.54
  L 72.45 35.23"
/>
<path stroke="#ca93aa" vector-effect="non-scaling-stroke" d="
  M 72.45 35.23
  Q 72.27 33.32 70.87 33.14
  Q 70.32 33.07 70.25 33.62
  L 70.01 35.43"
/>
<path stroke="#d7cde0" vector-effect="non-scaling-stroke" d="
  M 70.01 35.43
  Q 70.06 30.32 69.95 25.15
  C 69.91 23.17 69.05 22.20 67.13 21.97"
/>
<path stroke="#d1b1bf" vector-effect="non-scaling-stroke" d="
  M 77.18 53.46
  L 77.27 63.35"
/>
<path stroke="#c59db0" vector-effect="non-scaling-stroke" d="
  M 77.27 63.35
  L 77.31 69.78"
/>
<path stroke="#b299af" vector-effect="non-scaling-stroke" d="
  M 77.31 69.78
  Q 75.13 70.44 73.79 69.66
  Q 72.66 69.01 72.53 66.95
  Q 72.41 64.97 72.49 62.94"
/>
<path stroke="#c47788" vector-effect="non-scaling-stroke" d="
  M 91.47 59.59
  L 80.01 52.25
  Q 79.75 52.09 79.46 52.17
  Q 79.06 52.30 79.14 52.51
  Q 79.37 53.13 78.65 53.03
  Q 77.81 52.91 77.18 53.46"
/>
<path stroke="#f2c5c9" vector-effect="non-scaling-stroke" d="
  M 77.18 53.46
  Q 76.74 51.28 74.36 50.90"
/>
<path stroke="#c47788" vector-effect="non-scaling-stroke" d="
  M 74.36 50.90
  Q 75.33 47.39 71.35 44.63
  Q 70.93 44.35 70.78 43.87
  Q 70.27 42.28 69.33 41.14"
/>
<path stroke="#e395a1" vector-effect="non-scaling-stroke" d="
  M 91.48 34.08
  Q 89.74 34.25 88.24 33.29
  Q 87.89 33.06 87.48 32.96
  L 84.62 32.27
  Q 84.12 32.15 83.65 32.35
  Q 83.00 32.63 82.27 32.60
  A 0.92 0.87 -19.1 0 1 81.67 32.33
  Q 81.18 31.83 80.78 32.33
  A 0.45 0.45 0.0 0 1 80.29 32.49
  Q 79.40 32.21 78.94 31.55
  Q 78.66 31.15 78.28 31.47
  L 77.26 32.33"
/>
<path stroke="#f0d0d8" vector-effect="non-scaling-stroke" d="
  M 77.26 32.33
  Q 77.35 26.43 77.15 24.54
  Q 76.96 22.69 74.83 21.95"
/>
<path stroke="#f2c5c9" vector-effect="non-scaling-stroke" d="
  M 77.26 32.33
  L 77.31 39.69
  Q 77.32 41.34 75.69 41.08
  Q 74.97 40.97 74.26 40.86
  Q 72.59 40.59 72.54 38.89
  L 72.45 35.23"
/>
<path stroke="#d9aac1" vector-effect="non-scaling-stroke" d="
  M 91.48 17.79
  Q 89.60 19.12 88.61 17.75
  Q 88.10 17.04 87.24 17.19
  Q 86.56 17.30 85.93 16.94
  Q 85.32 16.58 85.40 17.28
  Q 85.45 17.63 85.11 17.86
  Q 85.04 17.91 84.97 17.86
  L 84.56 17.60
  A 0.56 0.56 0.0 0 0 83.89 17.64
  Q 83.01 18.39 82.66 19.55
  Q 82.58 19.81 82.31 19.76
  Q 82.25 19.75 82.23 19.70
  Q 82.02 19.34 81.65 19.63
  Q 80.39 20.62 79.48 19.29
  Q 79.30 19.03 79.02 19.18
  Q 78.26 19.57 77.80 18.81
  Q 77.58 18.46 77.64 18.05
  Q 77.68 17.77 77.54 17.53
  Q 77.51 17.47 77.44 17.43
  Q 77.30 17.34 77.12 17.33
  Q 76.73 17.30 76.85 17.68
  Q 76.95 17.99 76.80 18.28
  Q 76.61 18.65 76.26 18.43
  Q 75.98 18.25 75.73 18.30"
/>
<path stroke="#974f6f" vector-effect="non-scaling-stroke" d="
  M 91.47 70.75
  C 90.84 70.20 90.09 69.61 89.23 69.62
  Q 88.73 69.63 88.42 69.21
  Q 88.08 68.75 87.52 68.85
  Q 86.97 68.95 86.73 68.47
  Q 86.51 68.05 86.09 67.83
  L 77.27 63.35"
/>
<path stroke="#9c97b0" vector-effect="non-scaling-stroke" d="
  M 50.11 60.53
  A 5.10 5.10 0.0 0 0 45.01 55.43
  A 5.10 5.10 0.0 0 0 39.91 60.53
  A 5.10 5.10 0.0 0 0 45.01 65.63
  A 5.10 5.10 0.0 0 0 50.11 60.53"
/>
</g>
<path fill="#015584" d="
  M 30.78 0.57
  Q 31.29 4.88 31.83 6.14
  Q 32.67 8.09 31.67 9.17
  Q 31.34 9.52 31.22 9.99
  Q 31.01 10.84 30.51 11.50
  Q 30.14 11.98 30.24 12.57
  Q 30.36 13.28 30.54 14.02
  Q 30.67 14.56 30.48 15.07
  Q 29.14 18.71 30.22 21.94
  C 23.60 22.14 17.59 20.81 14.02 28.00
  Q 13.10 28.78 12.59 28.55
  Q 12.34 28.45 12.12 28.60
  L 11.83 28.79
  Q 11.51 29.01 11.22 28.76
  Q 10.22 27.92 8.93 27.86
  Q 7.96 27.81 7.54 26.87
  Q 7.34 26.42 7.11 26.86
  Q 7.02 27.02 6.84 27.04
  Q 6.49 27.07 6.18 26.92
  Q 3.44 25.61 0.54 24.54
  L 0.78 1.32
  Q 0.78 0.80 1.31 0.79
  L 30.78 0.57
  Z"
/>
<path fill="#356799" d="
  M 30.78 0.57
  L 49.90 0.53
  Q 48.83 4.09 49.68 7.75
  C 50.05 9.37 49.63 10.31 49.20 11.79
  A 1.18 1.15 40.0 0 0 49.29 12.70
  Q 50.22 14.45 50.94 16.47
  Q 51.13 17.02 51.13 17.57
  Q 51.13 18.07 51.57 18.25
  A 0.56 0.56 0.0 0 1 51.93 18.79
  L 51.78 24.19
  Q 44.25 18.68 37.52 25.00
  L 36.92 24.00
  Q 36.56 23.42 36.18 23.99
  Q 35.79 24.59 35.07 24.45
  Q 34.50 24.34 34.25 24.87
  Q 33.28 26.88 32.55 25.18
  L 32.31 22.61
  Q 32.26 22.07 31.72 22.03
  L 30.22 21.94
  Q 29.14 18.71 30.48 15.07
  Q 30.67 14.56 30.54 14.02
  Q 30.36 13.28 30.24 12.57
  Q 30.14 11.98 30.51 11.50
  Q 31.01 10.84 31.22 9.99
  Q 31.34 9.52 31.67 9.17
  Q 32.67 8.09 31.83 6.14
  Q 31.29 4.88 30.78 0.57
  Z"
/>
<path fill="#747caa" d="
  M 49.90 0.53
  L 55.72 0.54
  L 55.94 15.03
  Q 55.95 15.45 55.77 15.84
  Q 55.48 16.46 55.73 17.25
  Q 55.90 17.82 56.11 17.26
  Q 56.24 16.93 56.61 17.07
  Q 57.15 17.27 57.11 17.85
  Q 56.93 20.24 58.16 22.25
  L 58.23 26.96
  Q 56.90 26.67 55.82 26.03
  Q 55.47 25.83 55.31 26.20
  Q 55.07 26.76 54.02 27.34
  L 51.78 24.19
  L 51.93 18.79
  A 0.56 0.56 0.0 0 0 51.57 18.25
  Q 51.13 18.07 51.13 17.57
  Q 51.13 17.02 50.94 16.47
  Q 50.22 14.45 49.29 12.70
  A 1.18 1.15 40.0 0 1 49.20 11.79
  C 49.63 10.31 50.05 9.37 49.68 7.75
  Q 48.83 4.09 49.90 0.53
  Z"
/>
<path fill="#918ab5" d="
  M 55.72 0.54
  L 62.43 0.53
  Q 62.51 2.54 62.48 4.45
  Q 62.46 5.85 62.88 6.97
  Q 63.36 8.26 63.35 9.57
  C 63.33 10.92 63.93 12.08 64.07 13.41
  Q 64.12 13.85 64.47 14.13
  Q 64.76 14.36 65.00 14.64
  Q 65.25 14.92 65.32 14.56
  Q 65.35 14.40 65.45 14.26
  Q 65.69 13.96 65.80 14.34
  L 66.51 17.02
  Q 66.60 17.37 66.93 17.53
  Q 67.13 17.63 67.25 17.85
  Q 67.43 18.18 67.40 18.55
  L 67.13 21.97
  L 65.82 22.00
  Q 65.30 22.01 65.29 22.54
  L 65.26 36.70
  Q 64.60 36.35 64.37 35.91
  Q 64.15 35.50 63.76 35.73
  Q 63.10 36.11 63.02 36.70
  L 62.92 22.82
  Q 62.92 22.31 62.43 22.18
  Q 60.41 21.65 58.16 22.25
  Q 56.93 20.24 57.11 17.85
  Q 57.15 17.27 56.61 17.07
  Q 56.24 16.93 56.11 17.26
  Q 55.90 17.82 55.73 17.25
  Q 55.48 16.46 55.77 15.84
  Q 55.95 15.45 55.94 15.03
  L 55.72 0.54
  Z"
/>
<path fill="#af9bc1" d="
  M 62.43 0.53
  L 71.55 0.53
  Q 72.41 2.71 71.37 5.99
  Q 71.27 6.30 71.38 6.60
  Q 71.81 7.75 71.50 8.89
  Q 71.41 9.26 71.66 9.55
  Q 72.15 10.12 72.84 10.00
  Q 73.26 9.94 73.39 10.34
  Q 73.77 11.52 73.44 12.58
  Q 73.34 12.91 73.52 13.19
  Q 74.42 14.60 73.37 15.61
  Q 72.97 16.00 73.38 16.37
  Q 73.64 16.62 73.78 16.94
  Q 73.96 17.37 74.42 17.27
  Q 75.19 17.10 75.73 18.30
  Q 75.66 18.97 75.85 19.74
  Q 75.96 20.21 75.61 20.54
  Q 75.02 21.08 74.83 21.95
  L 73.02 22.01
  Q 72.51 22.03 72.51 22.54
  L 72.45 35.23
  Q 72.27 33.32 70.87 33.14
  Q 70.32 33.07 70.25 33.62
  L 70.01 35.43
  Q 70.06 30.32 69.95 25.15
  C 69.91 23.17 69.05 22.20 67.13 21.97
  L 67.40 18.55
  Q 67.43 18.18 67.25 17.85
  Q 67.13 17.63 66.93 17.53
  Q 66.60 17.37 66.51 17.02
  L 65.80 14.34
  Q 65.69 13.96 65.45 14.26
  Q 65.35 14.40 65.32 14.56
  Q 65.25 14.92 65.00 14.64
  Q 64.76 14.36 64.47 14.13
  Q 64.12 13.85 64.07 13.41
  C 63.93 12.08 63.33 10.92 63.35 9.57
  Q 63.36 8.26 62.88 6.97
  Q 62.46 5.85 62.48 4.45
  Q 62.51 2.54 62.43 0.53
  Z"
/>
<path fill="#d0b3d2" d="
  M 71.55 0.53
  L 90.97 0.59
  Q 91.45 0.59 91.45 1.07
  L 91.48 17.79
  Q 89.60 19.12 88.61 17.75
  Q 88.10 17.04 87.24 17.19
  Q 86.56 17.30 85.93 16.94
  Q 85.32 16.58 85.40 17.28
  Q 85.45 17.63 85.11 17.86
  Q 85.04 17.91 84.97 17.86
  L 84.56 17.60
  A 0.56 0.56 0.0 0 0 83.89 17.64
  Q 83.01 18.39 82.66 19.55
  Q 82.58 19.81 82.31 19.76
  Q 82.25 19.75 82.23 19.70
  Q 82.02 19.34 81.65 19.63
  Q 80.39 20.62 79.48 19.29
  Q 79.30 19.03 79.02 19.18
  Q 78.26 19.57 77.80 18.81
  Q 77.58 18.46 77.64 18.05
  Q 77.68 17.77 77.54 17.53
  Q 77.51 17.47 77.44 17.43
  Q 77.30 17.34 77.12 17.33
  Q 76.73 17.30 76.85 17.68
  Q 76.95 17.99 76.80 18.28
  Q 76.61 18.65 76.26 18.43
  Q 75.98 18.25 75.73 18.30
  Q 75.19 17.10 74.42 17.27
  Q 73.96 17.37 73.78 16.94
  Q 73.64 16.62 73.38 16.37
  Q 72.97 16.00 73.37 15.61
  Q 74.42 14.60 73.52 13.19
  Q 73.34 12.91 73.44 12.58
  Q 73.77 11.52 73.39 10.34
  Q 73.26 9.94 72.84 10.00
  Q 72.15 10.12 71.66 9.55
  Q 71.41 9.26 71.50 8.89
  Q 71.81 7.75 71.38 6.60
  Q 71.27 6.30 71.37 5.99
  Q 72.41 2.71 71.55 0.53
  Z"
/>
<path fill="#e1a0b0" d="
  M 91.48 17.79
  L 91.48 34.08
  Q 89.74 34.25 88.24 33.29
  Q 87.89 33.06 87.48 32.96
  L 84.62 32.27
  Q 84.12 32.15 83.65 32.35
  Q 83.00 32.63 82.27 32.60
  A 0.92 0.87 -19.1 0 1 81.67 32.33
  Q 81.18 31.83 80.78 32.33
  A 0.45 0.45 0.0 0 1 80.29 32.49
  Q 79.40 32.21 78.94 31.55
  Q 78.66 31.15 78.28 31.47
  L 77.26 32.33
  Q 77.35 26.43 77.15 24.54
  Q 76.96 22.69 74.83 21.95
  Q 75.02 21.08 75.61 20.54
  Q 75.96 20.21 75.85 19.74
  Q 75.66 18.97 75.73 18.30
  Q 75.98 18.25 76.26 18.43
  Q 76.61 18.65 76.80 18.28
  Q 76.95 17.99 76.85 17.68
  Q 76.73 17.30 77.12 17.33
  Q 77.30 17.34 77.44 17.43
  Q 77.51 17.47 77.54 17.53
  Q 77.68 17.77 77.64 18.05
  Q 77.58 18.46 77.80 18.81
  Q 78.26 19.57 79.02 19.18
  Q 79.30 19.03 79.48 19.29
  Q 80.39 20.62 81.65 19.63
  Q 82.02 19.34 82.23 19.70
  Q 82.25 19.75 82.31 19.76
  Q 82.58 19.81 82.66 19.55
  Q 83.01 18.39 83.89 17.64
  A 0.56 0.56 0.0 0 1 84.56 17.60
  L 84.97 17.86
  Q 85.04 17.91 85.11 17.86
  Q 85.45 17.63 85.40 17.28
  Q 85.32 16.58 85.93 16.94
  Q 86.56 17.30 87.24 17.19
  Q 88.10 17.04 88.61 17.75
  Q 89.60 19.12 91.48 17.79
  Z"
/>
<path fill="#284d76" d="
  M 201.71 45.24
  L 209.26 45.27
  Q 210.00 45.27 210.00 46.01
  L 210.00 69.97
  Q 210.00 72.93 207.14 73.72
  Q 206.51 73.89 205.70 74.12
  Q 203.00 74.86 203.00 72.06
  L 203.00 52.00
  Q 203.00 51.50 202.50 51.50
  L 190.50 51.50
  Q 189.75 51.50 189.75 50.75
  L 189.76 45.75
  Q 189.76 45.25 190.26 45.25
  L 192.28 45.25
  Q 192.81 45.26 193.14 44.84
  L 198.44 38.20
  A 0.54 0.54 0.0 0 0 198.34 37.43
  L 191.03 32.03
  A 0.97 0.97 0.0 0 1 190.85 30.64
  L 200.38 18.81
  Q 201.23 17.76 202.16 18.75
  Q 203.27 19.95 204.43 21.18
  A 1.92 1.92 0.0 0 1 204.52 23.68
  L 199.24 30.30
  Q 198.83 30.82 199.36 31.22
  L 201.78 33.05
  Q 202.32 33.46 202.73 32.93
  L 204.40 30.81
  Q 204.77 30.33 205.26 30.69
  Q 207.53 32.34 208.41 33.93
  A 1.94 1.93 50.0 0 1 208.23 36.08
  L 201.41 44.60
  Q 200.90 45.24 201.71 45.24
  Z"
/>
<path fill="#284d76" d="
  M 233.50 23.75
  L 245.02 23.75
  A 1.22 1.22 0.0 0 1 246.24 24.99
  C 246.16 28.41 247.40 35.16 241.21 33.94
  Q 240.64 33.83 240.48 33.26
  Q 240.05 31.76 240.31 30.20
  Q 240.43 29.50 239.71 29.50
  L 218.55 29.50
  Q 218.02 29.50 218.03 30.03
  Q 218.18 34.66 213.02 33.96
  Q 211.75 33.79 211.75 32.50
  L 211.76 24.50
  A 0.75 0.74 90.0 0 1 212.50 23.75
  L 224.50 23.75
  Q 225.00 23.75 225.00 23.25
  L 225.00 19.50
  A 1.50 1.50 0.0 0 1 226.50 18.00
  L 231.25 18.00
  Q 232.75 18.00 232.75 19.50
  L 232.75 23.00
  Q 232.75 23.75 233.50 23.75
  Z"
/>
<path fill="#284d76" d="
  M 282.40 24.25
  Q 271.22 36.36 256.48 43.93
  Q 255.07 44.65 254.37 43.24
  L 252.52 39.52
  Q 251.83 38.14 253.19 37.42
  Q 268.21 29.44 277.56 18.55
  Q 278.03 18.00 278.76 18.00
  L 286.53 18.00
  A 1.44 1.41 69.3 0 1 287.61 18.50
  Q 297.02 29.36 311.31 36.97
  Q 314.22 38.52 311.85 40.82
  Q 311.43 41.21 310.96 41.53
  Q 307.96 43.54 304.83 41.74
  Q 291.79 34.24 282.94 24.26
  A 0.37 0.36 45.5 0 0 282.40 24.25
  Z"
/>
<path fill="#284d76" d="
  M 651.20 31.75
  L 618.00 31.75
  Q 616.49 31.75 616.50 30.25
  L 616.50 26.25
  Q 616.50 24.50 618.25 24.50
  L 652.29 24.50
  Q 652.93 24.50 653.06 23.87
  C 654.85 14.75 667.94 16.95 666.91 25.57
  Q 666.27 30.95 660.83 31.81
  Q 660.22 31.91 660.23 32.53
  Q 660.27 36.49 660.25 40.56
  C 660.17 61.76 647.34 72.06 626.74 70.68
  Q 623.70 70.48 623.12 67.49
  Q 622.83 66.03 622.59 64.75
  Q 622.04 61.94 624.90 62.16
  C 635.56 62.98 646.62 61.67 650.28 50.39
  C 652.18 44.54 651.84 38.46 651.75 32.30
  Q 651.74 31.75 651.20 31.75
  Z
  M 662.96 24.94
  A 2.97 2.97 0.0 0 0 659.99 21.97
  A 2.97 2.97 0.0 0 0 657.02 24.94
  A 2.97 2.97 0.0 0 0 659.99 27.91
  A 2.97 2.97 0.0 0 0 662.96 24.94
  Z"
/>
<path fill="#284d76" d="
  M 123.79 34.21
  L 123.31 35.56
  A 1.65 1.64 -86.9 0 1 122.16 36.60
  L 120.35 37.06
  Q 119.52 37.27 119.81 36.46
  Q 121.54 31.59 123.72 26.24
  Q 124.00 25.57 122.04 25.74
  Q 121.30 25.80 121.29 25.06
  L 121.24 23.02
  Q 121.22 22.25 121.98 22.25
  L 123.75 22.25
  A 0.50 0.50 0.0 0 0 124.25 21.75
  L 124.25 18.87
  Q 124.25 18.25 124.88 18.25
  L 127.13 18.26
  Q 127.75 18.26 127.75 18.88
  L 127.75 21.76
  Q 127.75 22.26 128.26 22.26
  L 130.23 22.25
  Q 130.74 22.25 130.78 22.75
  Q 130.99 25.17 128.78 25.68
  Q 128.22 25.80 128.45 26.33
  L 131.36 33.07
  A 0.61 0.61 0.0 0 1 130.72 33.92
  Q 129.37 33.74 128.27 32.99
  Q 127.74 32.64 127.74 33.27
  L 127.75 41.24
  Q 127.76 42.90 126.22 43.52
  L 125.73 43.72
  Q 124.25 44.32 124.25 42.72
  L 124.25 34.29
  Q 124.25 32.93 123.79 34.21
  Z"
/>
<path fill="#284d76" d="
  M 136.98 38.15
  L 135.33 40.46
  Q 134.62 41.46 133.41 41.64
  Q 132.63 41.75 131.90 41.54
  Q 130.62 41.18 131.40 40.10
  L 136.22 33.46
  A 0.27 0.27 0.0 0 0 136.00 33.03
  L 132.74 32.99
  Q 132.24 32.98 132.25 32.49
  L 132.25 30.14
  Q 132.25 29.54 132.85 29.53
  L 137.01 29.48
  Q 137.51 29.48 137.51 28.99
  L 137.50 26.28
  Q 137.50 25.82 137.03 25.78
  L 135.98 25.68
  Q 135.36 25.63 135.05 26.17
  Q 134.13 27.72 132.22 28.05
  A 0.85 0.85 0.0 0 1 131.26 26.99
  L 133.48 19.01
  Q 133.75 18.07 134.68 18.35
  L 136.01 18.74
  Q 137.15 19.08 136.64 20.15
  Q 136.13 21.24 136.41 22.25
  Q 136.47 22.48 136.71 22.45
  L 137.06 22.41
  Q 137.43 22.36 137.44 21.99
  L 137.53 18.98
  Q 137.55 18.27 138.27 18.26
  L 140.49 18.24
  Q 141.00 18.24 141.00 18.74
  L 141.00 21.75
  Q 141.00 22.26 141.50 22.26
  L 144.80 22.25
  Q 146.18 22.24 145.77 23.56
  L 145.50 24.44
  A 1.79 1.79 0.0 0 1 143.83 25.70
  L 141.48 25.76
  A 0.51 0.50 88.8 0 0 141.00 26.27
  L 141.00 28.75
  Q 141.00 29.50 141.75 29.50
  L 145.79 29.50
  Q 146.67 29.50 146.57 30.37
  Q 146.47 31.29 146.09 32.10
  Q 145.70 32.96 144.76 32.98
  L 142.53 33.04
  A 0.27 0.26 70.7 0 0 142.33 33.46
  L 147.14 40.13
  Q 147.92 41.21 146.64 41.56
  Q 146.01 41.73 145.33 41.68
  Q 144.00 41.59 143.25 40.49
  L 141.59 38.10
  Q 141.03 37.29 141.02 38.28
  L 140.99 41.83
  Q 140.98 43.30 139.55 43.63
  Q 139.29 43.69 138.84 43.80
  Q 137.49 44.12 137.50 42.73
  L 137.50 38.32
  Q 137.51 37.41 136.98 38.15
  Z"
/>
<path fill="#284d76" d="
  M 174.89 22.38
  Q 175.52 22.04 176.08 22.47
  Q 176.37 22.68 176.34 23.04
  C 176.05 26.62 172.14 25.78 169.70 25.70
  Q 169.08 25.68 169.04 26.30
  Q 168.35 35.75 175.08 40.87
  Q 176.47 41.93 175.21 43.14
  L 174.77 43.56
  A 1.68 1.68 0.0 0 1 172.57 43.67
  C 166.98 39.25 165.08 33.21 165.28 26.32
  Q 165.29 25.75 164.72 25.75
  L 151.38 25.75
  A 0.63 0.62 -0.0 0 1 150.75 25.13
  L 150.75 23.00
  A 0.75 0.75 0.0 0 1 151.50 22.25
  L 164.75 22.25
  Q 165.25 22.25 165.25 21.75
  L 165.26 18.75
  Q 165.26 18.26 165.75 18.26
  L 168.50 18.25
  A 0.50 0.50 0.0 0 1 169.00 18.75
  L 169.02 21.56
  Q 169.02 21.92 169.31 22.14
  Q 169.73 22.46 170.30 22.33
  Q 171.17 22.11 170.57 21.44
  L 170.11 20.94
  A 0.81 0.81 0.0 0 1 170.04 19.95
  Q 170.70 19.00 171.84 18.40
  Q 172.19 18.22 172.50 18.46
  Q 174.83 20.24 174.48 22.07
  Q 174.37 22.66 174.89 22.38
  Z"
/>
<path fill="#284d76" d="
  M 343.07 46.54
  L 341.60 34.75
  Q 341.50 34.00 340.75 34.00
  L 322.00 34.00
  A 1.01 1.00 89.7 0 1 321.00 33.00
  L 321.00 28.25
  A 1.50 1.50 0.0 0 1 322.50 26.75
  L 340.04 26.75
  A 0.49 0.48 86.3 0 0 340.52 26.20
  L 340.06 22.69
  Q 339.87 21.25 341.31 21.25
  L 347.31 21.25
  Q 348.37 21.25 348.51 22.30
  L 349.05 26.19
  Q 349.12 26.75 349.69 26.75
  L 369.27 26.75
  Q 372.21 26.75 371.34 29.55
  Q 371.05 30.47 370.83 31.19
  A 4.02 4.01 8.7 0 1 367.00 34.00
  L 350.50 34.00
  Q 350.01 34.00 350.07 34.49
  L 351.60 46.59
  Q 351.68 47.25 352.35 47.25
  L 370.54 47.25
  Q 373.45 47.25 372.55 50.02
  Q 372.42 50.42 372.05 51.56
  Q 371.10 54.50 368.00 54.50
  L 353.31 54.50
  Q 352.61 54.50 352.70 55.19
  L 354.48 69.43
  Q 354.65 70.75 353.32 70.75
  L 347.19 70.75
  Q 346.13 70.75 346.00 69.70
  L 344.16 55.06
  A 0.64 0.63 86.4 0 0 343.53 54.50
  L 322.00 54.50
  A 1.00 1.00 0.0 0 1 321.00 53.50
  L 321.00 48.38
  Q 321.00 47.25 322.12 47.25
  L 342.45 47.25
  Q 343.16 47.25 343.07 46.54
  Z"
/>
<path fill="#284d76" d="
  M 586.56 31.97
  Q 586.31 38.98 583.99 45.72
  Q 577.16 65.56 556.94 70.70
  Q 555.18 71.15 554.85 69.37
  L 553.88 64.12
  Q 553.61 62.66 555.05 62.32
  C 569.73 58.78 576.84 46.99 578.06 32.38
  A 0.58 0.58 0.0 0 0 577.48 31.75
  L 557.50 31.75
  Q 556.25 31.75 556.25 30.50
  L 556.25 26.00
  Q 556.25 24.50 557.75 24.50
  L 588.21 24.50
  Q 588.89 24.50 588.79 23.82
  Q 588.62 22.74 588.88 21.79
  Q 589.02 21.25 589.58 21.25
  L 595.96 21.25
  Q 596.55 21.25 596.89 21.74
  Q 597.52 22.65 597.21 23.75
  Q 597.00 24.50 597.78 24.50
  L 604.80 24.50
  Q 607.28 24.50 606.57 26.88
  Q 606.24 28.01 605.90 29.13
  Q 605.12 31.75 602.38 31.75
  L 597.75 31.75
  Q 597.25 31.75 597.25 32.25
  L 597.25 69.75
  Q 597.25 70.75 596.25 70.75
  L 589.75 70.75
  Q 588.75 70.75 588.75 69.75
  L 588.75 31.99
  Q 588.75 31.72 588.48 31.72
  L 586.77 31.75
  Q 586.56 31.76 586.56 31.97
  Z"
/>
<path fill="#ffffff" d="
  M 51.78 24.19
  L 54.02 27.34
  Q 55.23 33.33 54.67 40.57
  Q 52.11 41.82 50.76 40.26
  Q 49.91 39.27 49.94 37.86
  C 50.00 34.02 51.14 27.23 45.52 26.51
  C 39.21 25.70 37.75 35.63 44.86 36.28
  Q 45.50 36.34 45.50 36.98
  L 45.49 40.30
  A 0.74 0.74 0.0 0 1 44.74 41.03
  Q 39.58 40.90 36.64 36.40
  Q 33.52 30.50 37.52 25.00
  Q 44.25 18.68 51.78 24.19
  Z"
/>
<path fill="#ffffff" d="
  M 30.22 21.94
  L 31.72 22.03
  Q 32.26 22.07 32.31 22.61
  L 32.55 25.18
  L 32.52 26.10
  Q 32.50 26.68 31.92 26.69
  L 28.31 26.79
  C 24.57 26.66 20.30 26.17 18.74 29.54
  Q 17.73 31.73 18.97 33.93
  Q 20.64 36.91 24.94 36.17
  L 31.37 36.22
  Q 32.66 36.23 32.54 37.51
  L 32.38 39.15
  A 1.92 1.91 -89.1 0 1 30.59 40.89
  L 27.96 41.04
  C 24.86 41.05 21.60 41.39 18.86 40.09
  Q 11.97 36.79 14.02 28.00
  C 17.59 20.81 23.60 22.14 30.22 21.94
  Z"
/>
<path fill="#ffffff" d="
  M 63.02 36.70
  L 62.96 40.43
  Q 62.95 40.94 62.44 41.00
  Q 60.60 41.22 58.99 40.56
  Q 58.69 39.96 58.76 40.32
  Q 58.27 39.38 58.27 39.00
  Q 58.25 32.98 58.23 26.96
  L 58.16 22.25
  Q 60.41 21.65 62.43 22.18
  Q 62.92 22.31 62.92 22.82
  L 63.02 36.70
  Z"
/>
<path fill="#ffffff" d="
  M 67.13 21.97
  C 69.05 22.20 69.91 23.17 69.95 25.15
  Q 70.06 30.32 70.01 35.43
  Q 70.43 39.62 69.33 41.14
  Q 64.54 41.37 65.26 36.70
  L 65.29 22.54
  Q 65.30 22.01 65.82 22.00
  L 67.13 21.97
  Z"
/>
<path fill="#ffffff" d="
  M 74.83 21.95
  Q 76.96 22.69 77.15 24.54
  Q 77.35 26.43 77.26 32.33
  L 77.31 39.69
  Q 77.32 41.34 75.69 41.08
  Q 74.97 40.97 74.26 40.86
  Q 72.59 40.59 72.54 38.89
  L 72.45 35.23
  L 72.51 22.54
  Q 72.51 22.03 73.02 22.01
  L 74.83 21.95
  Z"
/>
<path fill="#284d76" d="
  M 37.52 25.00
  Q 33.52 30.50 36.64 36.40
  Q 34.11 40.03 35.69 45.09
  Q 35.84 45.57 36.21 45.90
  Q 37.40 46.94 38.42 49.23
  Q 39.15 50.88 40.54 51.26
  L 36.12 55.71
  Q 35.53 55.74 35.05 56.23
  Q 34.72 56.56 34.32 56.32
  Q 33.35 55.74 32.53 55.61
  L 32.41 51.62
  Q 32.39 51.10 31.87 51.09
  L 26.46 51.01
  Q 26.73 50.46 26.14 50.04
  Q 25.77 49.77 25.77 49.32
  L 25.77 48.57
  Q 25.77 48.14 25.46 47.83
  Q 25.11 47.47 25.01 46.94
  Q 24.94 46.49 25.37 46.36
  Q 25.89 46.21 26.09 45.64
  A 0.94 0.93 -50.9 0 0 26.01 44.84
  Q 25.47 43.91 26.33 43.06
  Q 26.76 42.64 26.83 42.05
  Q 26.95 41.13 27.96 41.04
  L 30.59 40.89
  A 1.92 1.91 -89.1 0 0 32.38 39.15
  L 32.54 37.51
  Q 32.66 36.23 31.37 36.22
  L 24.94 36.17
  L 24.48 35.62
  Q 24.12 35.18 24.42 34.70
  Q 24.66 34.31 24.36 33.94
  A 0.77 0.74 -65.4 0 1 24.18 33.42
  Q 24.21 32.28 25.00 32.40
  Q 25.32 32.45 25.45 32.16
  Q 25.98 31.05 27.10 30.07
  Q 27.40 29.81 27.80 29.82
  Q 28.81 29.85 28.97 28.84
  A 0.82 0.81 23.7 0 0 28.66 28.06
  Q 28.00 27.55 28.31 26.79
  L 31.92 26.69
  Q 32.50 26.68 32.52 26.10
  L 32.55 25.18
  Q 33.28 26.88 34.25 24.87
  Q 34.50 24.34 35.07 24.45
  Q 35.79 24.59 36.18 23.99
  Q 36.56 23.42 36.92 24.00
  L 37.52 25.00
  Z"
/>
<path fill="#0a426f" d="
  M 0.54 24.54
  Q 3.44 25.61 6.18 26.92
  Q 6.49 27.07 6.84 27.04
  Q 7.02 27.02 7.11 26.86
  Q 7.34 26.42 7.54 26.87
  Q 7.96 27.81 8.93 27.86
  Q 10.22 27.92 11.22 28.76
  Q 11.51 29.01 11.83 28.79
  L 12.12 28.60
  Q 12.34 28.45 12.59 28.55
  Q 13.10 28.78 14.02 28.00
  Q 11.97 36.79 18.86 40.09
  C 21.60 41.39 24.86 41.05 27.96 41.04
  Q 26.95 41.13 26.83 42.05
  Q 26.76 42.64 26.33 43.06
  Q 25.47 43.91 26.01 44.84
  A 0.94 0.93 -50.9 0 1 26.09 45.64
  Q 25.89 46.21 25.37 46.36
  Q 24.94 46.49 25.01 46.94
  Q 25.11 47.47 25.46 47.83
  Q 25.77 48.14 25.77 48.57
  L 25.77 49.32
  Q 25.77 49.77 26.14 50.04
  Q 26.73 50.46 26.46 51.01
  Q 22.37 50.76 20.75 51.26
  Q 13.58 53.47 13.42 61.29
  Q 12.55 63.76 8.28 63.81
  Q 7.93 63.81 7.72 64.09
  Q 7.56 64.31 7.33 64.22
  Q 5.09 63.39 2.20 64.06
  Q 1.81 64.15 1.71 63.77
  Q 1.65 63.54 1.39 63.46
  A 0.18 0.18 0.0 0 0 1.16 63.63
  Q 1.15 63.77 1.12 63.92
  Q 1.01 64.50 0.88 63.77
  Q 0.82 63.44 0.52 63.46
  L 0.54 24.54
  Z"
/>
<path fill="#284d76" d="
  M 446.97 45.43
  C 446.96 47.50 445.34 50.04 443.01 50.01
  Q 440.99 49.99 439.05 50.02
  A 0.55 0.54 89.5 0 1 438.50 49.47
  L 438.50 25.75
  Q 438.50 24.50 439.75 24.50
  L 445.53 24.50
  Q 446.99 24.50 447.00 25.96
  Q 447.02 36.27 446.97 45.43
  Z"
/>
<path fill="#284d76" d="
  M 445.84 62.15
  C 462.24 63.37 471.70 57.29 471.53 40.22
  Q 471.45 32.44 471.53 25.81
  Q 471.55 24.50 472.86 24.50
  L 478.76 24.50
  Q 480.03 24.50 480.03 25.78
  Q 479.99 33.34 479.93 41.99
  C 479.81 61.88 466.27 72.17 447.12 70.63
  Q 444.45 70.41 444.04 67.77
  Q 443.64 65.15 443.56 64.61
  Q 443.15 61.95 445.84 62.15
  Z"
/>
<path fill="#284d76" d="
  M 533.47 31.75
  L 494.75 31.75
  Q 493.50 31.75 493.50 30.50
  L 493.50 26.00
  Q 493.50 24.51 495.00 24.51
  L 541.26 24.50
  A 1.50 1.49 0.0 0 1 542.76 25.99
  Q 542.79 30.86 542.31 35.37
  C 541.01 47.51 531.96 53.63 520.28 53.49
  Q 519.77 53.48 519.71 53.98
  Q 517.62 70.96 501.08 70.79
  C 498.28 70.76 496.69 68.39 496.95 65.73
  Q 497.10 64.28 496.97 62.89
  A 0.62 0.61 88.3 0 1 497.60 62.22
  Q 500.01 62.29 502.55 62.25
  C 509.57 62.12 511.42 56.84 511.30 50.84
  Q 511.18 44.62 511.27 37.98
  Q 511.29 36.50 512.78 36.50
  L 518.50 36.50
  Q 519.75 36.50 519.75 37.75
  L 519.75 44.45
  Q 519.75 45.01 520.30 45.01
  Q 533.75 45.09 534.08 32.37
  Q 534.09 31.75 533.47 31.75
  Z"
/>
<path fill="#284d76" d="
  M 701.87 27.03
  Q 701.49 28.33 701.26 29.09
  A 3.71 3.70 8.1 0 1 697.70 31.75
  L 679.50 31.75
  Q 678.25 31.75 678.25 30.50
  L 678.25 26.25
  Q 678.25 24.50 680.00 24.50
  L 699.98 24.50
  Q 702.62 24.50 701.87 27.03
  Z"
/>
<path fill="#284d76" d="
  M 815.10 27.07
  Q 814.88 27.73 814.48 28.93
  A 4.09 4.09 0.0 0 1 810.59 31.75
  L 788.75 31.75
  Q 787.50 31.75 787.50 30.50
  L 787.50 26.25
  Q 787.50 24.50 789.25 24.50
  L 813.24 24.50
  Q 815.94 24.50 815.10 27.07
  Z"
/>
<path fill="#918ab5" d="
  M 58.23 26.96
  Q 58.25 32.98 58.27 39.00
  Q 58.27 39.38 58.76 40.32
  Q 56.64 39.14 54.67 40.57
  Q 55.23 33.33 54.02 27.34
  Q 55.07 26.76 55.31 26.20
  Q 55.47 25.83 55.82 26.03
  Q 56.90 26.67 58.23 26.96
  Z"
/>
<path fill="#5f4e78" d="
  M 54.67 40.57
  Q 56.64 39.14 58.76 40.32
  Q 58.69 39.96 58.99 40.56
  Q 57.75 41.54 57.88 43.12
  Q 57.93 43.64 58.33 44.00
  L 61.55 46.84
  Q 61.84 47.10 62.22 47.17
  Q 62.73 47.27 62.84 47.83
  A 1.09 1.08 -85.6 0 0 63.52 48.63
  Q 65.99 49.59 65.63 50.90
  L 65.26 58.34
  Q 62.96 56.52 63.06 59.71
  L 62.97 51.76
  Q 62.96 51.00 62.20 51.00
  L 59.02 50.99
  Q 58.29 50.99 58.25 51.72
  Q 57.84 61.01 58.86 69.69
  Q 58.20 69.75 57.11 68.85
  A 1.85 1.82 68.9 0 0 56.25 68.46
  Q 55.11 68.28 54.50 67.61
  Q 54.22 67.31 53.66 66.14
  Q 58.18 48.96 40.54 51.26
  Q 39.15 50.88 38.42 49.23
  Q 37.40 46.94 36.21 45.90
  Q 35.84 45.57 35.69 45.09
  Q 34.11 40.03 36.64 36.40
  Q 39.58 40.90 44.74 41.03
  A 0.74 0.74 0.0 0 0 45.49 40.30
  L 45.50 36.98
  Q 45.50 36.34 44.86 36.28
  C 37.75 35.63 39.21 25.70 45.52 26.51
  C 51.14 27.23 50.00 34.02 49.94 37.86
  Q 49.91 39.27 50.76 40.26
  Q 52.11 41.82 54.67 40.57
  Z"
/>
<path fill="#015584" d="
  M 28.31 26.79
  Q 28.00 27.55 28.66 28.06
  A 0.82 0.81 23.7 0 1 28.97 28.84
  Q 28.81 29.85 27.80 29.82
  Q 27.40 29.81 27.10 30.07
  Q 25.98 31.05 25.45 32.16
  Q 25.32 32.45 25.00 32.40
  Q 24.21 32.28 24.18 33.42
  A 0.77 0.74 -65.4 0 0 24.36 33.94
  Q 24.66 34.31 24.42 34.70
  Q 24.12 35.18 24.48 35.62
  L 24.94 36.17
  Q 20.64 36.91 18.97 33.93
  Q 17.73 31.73 18.74 29.54
  C 20.30 26.17 24.57 26.66 28.31 26.79
  Z"
/>
<path fill="#284d76" d="
  M 160.50 32.99
  A 0.51 0.50 90.0 0 0 160.00 33.50
  L 160.00 40.00
  Q 160.00 40.51 160.50 40.50
  L 164.48 40.50
  Q 165.92 40.50 165.54 41.88
  Q 165.46 42.16 165.43 42.29
  Q 165.03 43.75 163.51 43.75
  L 152.00 43.75
  Q 151.76 43.75 151.75 43.50
  L 151.75 40.75
  Q 151.75 40.51 152.00 40.51
  L 155.63 40.50
  Q 156.50 40.49 156.50 39.62
  L 156.50 33.88
  Q 156.50 33.00 155.63 33.00
  L 153.13 33.00
  A 0.88 0.87 89.7 0 1 152.26 32.13
  L 152.25 30.51
  A 1.00 0.99 89.7 0 1 153.24 29.50
  L 162.98 29.50
  Q 163.98 29.50 163.83 30.49
  L 163.61 31.93
  A 1.28 1.27 4.7 0 1 162.34 33.00
  L 160.50 32.99
  Z"
/>
<path fill="#e58a92" d="
  M 91.48 34.08
  L 91.47 59.59
  L 80.01 52.25
  Q 79.75 52.09 79.46 52.17
  Q 79.06 52.30 79.14 52.51
  Q 79.37 53.13 78.65 53.03
  Q 77.81 52.91 77.18 53.46
  Q 76.74 51.28 74.36 50.90
  Q 75.33 47.39 71.35 44.63
  Q 70.93 44.35 70.78 43.87
  Q 70.27 42.28 69.33 41.14
  Q 70.43 39.62 70.01 35.43
  L 70.25 33.62
  Q 70.32 33.07 70.87 33.14
  Q 72.27 33.32 72.45 35.23
  L 72.54 38.89
  Q 72.59 40.59 74.26 40.86
  Q 74.97 40.97 75.69 41.08
  Q 77.32 41.34 77.31 39.69
  L 77.26 32.33
  L 78.28 31.47
  Q 78.66 31.15 78.94 31.55
  Q 79.40 32.21 80.29 32.49
  A 0.45 0.45 0.0 0 0 80.78 32.33
  Q 81.18 31.83 81.67 32.33
  A 0.92 0.87 -19.1 0 0 82.27 32.60
  Q 83.00 32.63 83.65 32.35
  Q 84.12 32.15 84.62 32.27
  L 87.48 32.96
  Q 87.89 33.06 88.24 33.29
  Q 89.74 34.25 91.48 34.08
  Z"
/>
<path fill="#284d76" d="
  M 399.21 46.67
  L 400.67 69.50
  Q 400.75 70.75 399.50 70.75
  L 393.37 70.75
  A 1.20 1.19 -1.8 0 1 392.17 69.63
  L 390.70 46.58
  Q 390.66 46.00 390.08 46.00
  L 383.00 46.00
  Q 381.49 46.00 381.49 44.49
  L 381.51 39.99
  Q 381.51 38.75 382.76 38.75
  L 389.71 38.75
  Q 390.16 38.75 390.13 38.30
  L 389.97 35.18
  Q 389.90 34.00 391.08 34.00
  L 397.30 34.00
  Q 398.35 34.00 398.43 35.05
  L 398.67 38.23
  Q 398.71 38.75 399.23 38.75
  L 423.21 38.75
  A 1.32 1.31 -89.4 0 1 424.52 40.10
  C 424.43 43.26 424.83 46.53 424.11 49.49
  Q 421.36 60.75 408.12 61.59
  Q 407.33 61.64 407.26 60.85
  C 406.93 57.35 407.27 54.52 411.45 53.71
  A 6.06 6.03 9.8 0 0 415.48 50.88
  Q 416.43 49.31 416.95 48.43
  Q 418.41 46.00 415.58 46.00
  L 399.83 46.00
  Q 399.17 46.00 399.21 46.67
  Z"
/>
<path fill="#284d76" d="
  M 696.54 62.10
  C 708.31 61.64 714.02 54.10 714.76 43.23
  Q 715.03 39.26 714.99 35.22
  Q 714.98 34.00 716.20 34.00
  L 722.22 34.00
  A 1.26 1.26 0.0 0 1 723.48 35.25
  Q 723.50 41.08 722.95 46.26
  C 721.34 61.40 710.75 70.39 695.80 70.66
  Q 688.99 70.78 682.37 70.76
  C 679.98 70.75 678.15 68.68 678.23 66.29
  Q 678.29 64.51 678.23 62.89
  Q 678.21 62.17 678.93 62.19
  Q 687.73 62.44 696.54 62.10
  Z"
/>
<path fill="#284d76" d="
  M 765.00 56.00
  L 740.50 56.00
  Q 739.00 56.00 739.00 54.50
  L 739.00 50.50
  Q 739.00 48.75 740.75 48.75
  L 765.00 48.75
  Q 765.25 48.75 765.25 48.50
  L 765.25 41.25
  Q 765.25 41.00 765.00 41.00
  L 741.22 41.00
  Q 738.47 41.00 737.57 38.40
  Q 737.47 38.08 736.94 36.54
  Q 736.07 34.00 738.75 34.00
  L 772.69 34.00
  A 0.79 0.79 0.0 0 1 773.48 34.79
  Q 773.49 49.62 773.52 64.20
  C 773.53 67.57 770.75 70.75 767.28 70.75
  Q 754.08 70.75 741.37 70.76
  Q 738.44 70.77 737.53 67.98
  Q 737.21 66.98 736.95 66.20
  Q 736.07 63.50 738.92 63.50
  L 765.00 63.50
  A 0.25 0.25 0.0 0 0 765.25 63.25
  L 765.25 56.25
  Q 765.25 56.00 765.00 56.00
  Z"
/>
<path fill="#284d76" d="
  M 821.81 52.59
  Q 824.80 45.71 824.19 35.16
  Q 824.13 34.00 825.28 34.00
  L 831.57 34.00
  Q 832.63 34.00 832.68 35.06
  Q 833.12 44.07 831.21 51.53
  C 828.18 63.41 818.25 70.06 806.40 70.63
  Q 799.86 70.95 791.22 70.66
  Q 788.51 70.56 787.97 67.91
  Q 787.73 66.76 787.30 64.68
  Q 786.77 62.11 789.39 62.18
  Q 797.97 62.38 805.71 62.16
  C 812.66 61.96 819.16 58.66 821.81 52.59
  Z"
/>
<path fill="#a3637e" d="
  M 65.26 36.70
  Q 64.54 41.37 69.33 41.14
  Q 70.27 42.28 70.78 43.87
  Q 70.93 44.35 71.35 44.63
  Q 75.33 47.39 74.36 50.90
  L 73.04 51.05
  Q 72.50 51.11 72.50 51.66
  L 72.49 62.94
  Q 71.03 59.19 70.02 62.53
  Q 70.04 57.77 69.94 53.00
  Q 69.88 50.73 65.63 50.90
  Q 65.99 49.59 63.52 48.63
  A 1.09 1.08 -85.6 0 1 62.84 47.83
  Q 62.73 47.27 62.22 47.17
  Q 61.84 47.10 61.55 46.84
  L 58.33 44.00
  Q 57.93 43.64 57.88 43.12
  Q 57.75 41.54 58.99 40.56
  Q 60.60 41.22 62.44 41.00
  Q 62.95 40.94 62.96 40.43
  L 63.02 36.70
  Q 63.10 36.11 63.76 35.73
  Q 64.15 35.50 64.37 35.91
  Q 64.60 36.35 65.26 36.70
  Z"
/>
<path fill="#284d76" d="
  M 239.30 38.15
  L 239.15 38.82
  A 3.79 3.78 -83.4 0 1 235.47 41.75
  L 219.75 41.75
  Q 218.50 41.75 218.50 40.50
  L 218.50 37.00
  Q 218.50 35.75 219.75 35.75
  L 237.39 35.75
  Q 239.86 35.75 239.30 38.15
  Z"
/>
<path fill="#284d76" d="
  M 296.85 41.01
  Q 296.74 41.41 296.55 42.06
  A 4.41 4.41 0.0 0 1 292.31 45.25
  L 269.50 45.25
  Q 268.49 45.25 268.50 44.25
  L 268.51 39.12
  Q 268.51 38.00 269.63 38.00
  L 294.59 38.00
  Q 297.72 38.00 296.85 41.01
  Z"
/>
<path fill="#284d76" d="
  M 697.43 46.00
  L 679.25 46.00
  Q 678.26 46.00 678.26 45.00
  L 678.25 39.75
  A 1.00 1.00 0.0 0 1 679.25 38.75
  L 699.97 38.75
  Q 702.64 38.75 701.89 41.31
  Q 701.62 42.20 701.37 43.05
  Q 700.51 46.00 697.43 46.00
  Z"
/>
<path fill="#284d76" d="
  M 232.50 52.13
  L 232.50 69.77
  Q 232.50 73.24 229.08 73.84
  Q 228.49 73.95 227.92 74.10
  Q 225.50 74.76 225.50 72.25
  L 225.50 52.00
  Q 225.50 51.50 225.00 51.50
  L 214.50 51.50
  Q 213.25 51.50 213.25 50.25
  L 213.25 46.50
  Q 213.25 45.25 214.50 45.25
  L 242.83 45.25
  Q 245.25 45.25 244.59 47.58
  Q 244.37 48.34 244.16 49.10
  A 3.32 3.31 -82.0 0 1 240.98 51.50
  L 233.12 51.50
  Q 232.50 51.50 232.50 52.13
  Z"
/>
<path fill="#284d76" d="
  M 133.17 51.82
  Q 128.11 57.26 121.48 60.51
  Q 121.01 60.74 120.78 60.27
  L 119.77 58.27
  A 0.70 0.69 62.5 0 1 120.06 57.34
  Q 126.54 53.93 131.07 48.89
  Q 131.42 48.50 131.95 48.50
  L 135.06 48.50
  A 1.38 1.38 0.0 0 1 136.07 48.94
  Q 140.66 53.89 146.71 57.15
  Q 148.21 57.95 146.88 59.01
  L 146.55 59.27
  Q 145.24 60.31 143.78 59.49
  Q 137.97 56.19 134.01 51.83
  Q 133.59 51.37 133.17 51.82
  Z"
/>
<path fill="#284d76" d="
  M 157.49 64.99
  L 157.50 71.29
  Q 157.51 72.66 156.42 73.50
  Q 156.02 73.81 155.54 73.96
  Q 154.25 74.37 154.25 73.01
  L 154.25 64.73
  Q 154.25 63.72 153.69 64.56
  Q 152.32 66.61 149.51 65.41
  A 0.60 0.60 0.0 0 1 149.29 64.48
  L 156.02 56.52
  A 0.32 0.32 0.0 0 0 155.78 56.00
  L 151.25 56.00
  Q 150.76 56.00 150.76 55.50
  L 150.75 53.00
  Q 150.75 52.50 151.25 52.50
  L 153.76 52.50
  A 0.51 0.50 -90.0 0 0 154.26 51.99
  L 154.24 49.01
  Q 154.24 48.51 154.74 48.50
  L 156.87 48.50
  Q 157.49 48.50 157.49 49.12
  L 157.51 51.75
  Q 157.51 52.49 158.25 52.49
  L 160.47 52.52
  A 0.56 0.55 0.5 0 1 161.02 53.07
  Q 161.04 56.28 158.69 58.47
  Q 157.84 59.26 158.59 60.15
  L 162.13 64.35
  A 0.75 0.75 0.0 0 1 161.80 65.54
  Q 159.24 66.39 158.06 64.80
  Q 157.49 64.04 157.49 64.99
  Z"
/>
<path fill="#284d76" d="
  M 165.75 59.25
  L 162.25 59.25
  A 0.75 0.75 0.0 0 1 161.50 58.50
  L 161.50 56.50
  Q 161.50 55.75 162.25 55.75
  L 165.50 55.75
  Q 166.25 55.75 166.25 55.00
  L 166.25 49.25
  Q 166.25 48.49 167.00 48.50
  L 169.51 48.52
  Q 170.00 48.53 170.00 49.01
  L 170.00 55.26
  Q 170.00 55.77 170.51 55.77
  L 173.75 55.74
  Q 174.77 55.74 174.76 56.75
  L 174.75 57.53
  A 1.62 1.61 -1.5 0 1 173.23 59.13
  L 170.47 59.29
  Q 170.00 59.32 170.00 59.79
  L 170.00 70.26
  Q 170.00 70.77 170.51 70.76
  L 175.46 70.75
  Q 176.44 70.74 176.29 71.71
  L 176.13 72.69
  A 1.55 1.54 4.3 0 1 174.60 74.00
  L 160.74 74.00
  Q 160.24 74.00 160.24 73.49
  L 160.25 71.00
  Q 160.26 70.76 160.50 70.76
  L 165.62 70.75
  Q 166.25 70.75 166.25 70.12
  L 166.25 59.75
  Q 166.25 59.25 165.75 59.25
  Z"
/>
<path fill="#284d76" d="
  M 303.48 67.40
  C 303.45 71.01 300.19 74.04 296.65 74.02
  Q 280.77 73.97 262.71 74.01
  A 1.46 1.45 89.8 0 1 261.25 72.55
  L 261.25 50.50
  A 1.50 1.50 0.0 0 1 262.75 49.00
  L 302.02 49.00
  Q 303.45 49.00 303.46 50.43
  Q 303.53 59.50 303.48 67.40
  Z
  M 295.75 56.54
  A 0.29 0.29 0.0 0 0 295.46 56.25
  L 269.30 56.25
  A 0.29 0.29 0.0 0 0 269.01 56.54
  L 269.01 66.46
  A 0.29 0.29 0.0 0 0 269.30 66.75
  L 295.46 66.75
  A 0.29 0.29 0.0 0 0 295.75 66.46
  L 295.75 56.54
  Z"
/>
<path fill="#ffffff" d="
  M 53.66 66.14
  Q 49.59 70.29 44.82 70.54
  Q 32.40 68.21 36.12 55.71
  L 40.54 51.26
  Q 58.18 48.96 53.66 66.14
  Z
  M 50.11 60.53
  A 5.10 5.10 0.0 0 0 45.01 55.43
  A 5.10 5.10 0.0 0 0 39.91 60.53
  A 5.10 5.10 0.0 0 0 45.01 65.63
  A 5.10 5.10 0.0 0 0 50.11 60.53
  Z"
/>
<path fill="#ffffff" d="
  M 26.46 51.01
  L 31.87 51.09
  Q 32.39 51.10 32.41 51.62
  L 32.53 55.61
  Q 28.21 55.77 23.84 55.80
  Q 21.57 55.81 20.42 56.55
  C 16.55 59.02 18.21 65.08 22.74 65.22
  Q 26.68 65.34 31.09 65.21
  Q 33.04 65.15 32.54 67.11
  Q 32.51 67.21 32.29 68.05
  Q 31.79 69.99 29.79 69.97
  C 26.66 69.95 22.77 70.47 19.82 69.42
  Q 14.50 67.53 13.42 61.29
  Q 13.58 53.47 20.75 51.26
  Q 22.37 50.76 26.46 51.01
  Z"
/>
<path fill="#ffffff" d="
  M 63.06 59.71
  L 62.93 69.51
  Q 62.93 70.05 62.39 70.07
  L 62.05 70.08
  L 58.86 69.69
  Q 57.84 61.01 58.25 51.72
  Q 58.29 50.99 59.02 50.99
  L 62.20 51.00
  Q 62.96 51.00 62.97 51.76
  L 63.06 59.71
  Z"
/>
<path fill="#ffffff" d="
  M 65.63 50.90
  Q 69.88 50.73 69.94 53.00
  Q 70.04 57.77 70.02 62.53
  L 70.04 68.47
  Q 70.04 70.54 68.03 70.07
  Q 67.72 70.00 67.41 69.92
  Q 65.24 69.35 65.24 67.11
  L 65.26 58.34
  L 65.63 50.90
  Z"
/>
<path fill="#ffffff" d="
  M 74.36 50.90
  Q 76.74 51.28 77.18 53.46
  L 77.27 63.35
  L 77.31 69.78
  Q 75.13 70.44 73.79 69.66
  Q 72.66 69.01 72.53 66.95
  Q 72.41 64.97 72.49 62.94
  L 72.50 51.66
  Q 72.50 51.11 73.04 51.05
  L 74.36 50.90
  Z"
/>
<path fill="#a3637e" d="
  M 91.47 59.59
  L 91.47 70.75
  C 90.84 70.20 90.09 69.61 89.23 69.62
  Q 88.73 69.63 88.42 69.21
  Q 88.08 68.75 87.52 68.85
  Q 86.97 68.95 86.73 68.47
  Q 86.51 68.05 86.09 67.83
  L 77.27 63.35
  L 77.18 53.46
  Q 77.81 52.91 78.65 53.03
  Q 79.37 53.13 79.14 52.51
  Q 79.06 52.30 79.46 52.17
  Q 79.75 52.09 80.01 52.25
  L 91.47 59.59
  Z"
/>
<path fill="#284d76" d="
  M 195.25 73.66
  Q 194.29 73.89 193.33 74.13
  Q 191.00 74.70 191.00 72.30
  L 191.00 55.25
  Q 191.00 54.75 191.50 54.75
  L 197.25 54.76
  Q 197.75 54.76 197.75 55.25
  L 197.75 70.46
  Q 197.75 73.04 195.25 73.66
  Z"
/>
<path fill="#284d76" d="
  M 221.50 69.99
  Q 221.50 73.00 218.58 73.72
  Q 217.74 73.93 216.89 74.14
  Q 214.50 74.73 214.50 72.27
  L 214.50 55.50
  A 0.75 0.75 0.0 0 1 215.25 54.75
  L 220.75 54.75
  A 0.75 0.75 0.0 0 1 221.50 55.50
  L 221.50 69.99
  Z"
/>
<path fill="#284d76" d="
  M 241.04 73.55
  Q 240.50 73.68 238.57 74.14
  Q 236.50 74.64 236.50 72.51
  L 236.50 55.50
  Q 236.50 54.75 237.25 54.75
  L 242.50 54.75
  Q 243.25 54.75 243.25 55.50
  L 243.25 70.76
  Q 243.25 73.02 241.04 73.55
  Z"
/>
<path fill="#1c2d5e" d="
  M 32.53 55.61
  Q 33.35 55.74 34.32 56.32
  Q 34.72 56.56 35.05 56.23
  Q 35.53 55.74 36.12 55.71
  Q 32.40 68.21 44.82 70.54
  Q 52.15 74.30 60.53 76.17
  Q 61.90 76.48 62.53 77.73
  Q 62.86 78.38 63.55 78.65
  Q 64.19 78.91 64.12 79.60
  Q 63.93 81.59 65.25 83.12
  Q 65.57 83.49 65.62 83.98
  Q 66.05 88.27 68.51 91.50
  L 0.76 91.48
  A 0.23 0.23 0.0 0 1 0.53 91.25
  L 0.52 63.46
  Q 0.82 63.44 0.88 63.77
  Q 1.01 64.50 1.12 63.92
  Q 1.15 63.77 1.16 63.63
  A 0.18 0.18 0.0 0 1 1.39 63.46
  Q 1.65 63.54 1.71 63.77
  Q 1.81 64.15 2.20 64.06
  Q 5.09 63.39 7.33 64.22
  Q 7.56 64.31 7.72 64.09
  Q 7.93 63.81 8.28 63.81
  Q 12.55 63.76 13.42 61.29
  Q 14.50 67.53 19.82 69.42
  C 22.77 70.47 26.66 69.95 29.79 69.97
  Q 31.79 69.99 32.29 68.05
  Q 32.51 67.21 32.54 67.11
  Q 33.04 65.15 31.09 65.21
  Q 26.68 65.34 22.74 65.22
  C 18.21 65.08 16.55 59.02 20.42 56.55
  Q 21.57 55.81 23.84 55.80
  Q 28.21 55.77 32.53 55.61
  Z"
/>
<circle fill="#392e60" cx="45.01" cy="60.53" r="5.10"/>
<path fill="#64325f" d="
  M 65.26 58.34
  L 65.24 67.11
  Q 65.24 69.35 67.41 69.92
  Q 67.72 70.00 68.03 70.07
  Q 70.04 70.54 70.04 68.47
  L 70.02 62.53
  Q 71.03 59.19 72.49 62.94
  Q 72.41 64.97 72.53 66.95
  Q 72.66 69.01 73.79 69.66
  Q 75.13 70.44 77.31 69.78
  Q 78.40 70.96 79.58 72.05
  Q 80.71 73.11 82.15 73.69
  Q 83.42 74.21 84.31 75.24
  Q 84.69 75.68 85.23 75.89
  Q 86.07 76.20 86.70 76.81
  Q 87.33 77.43 88.19 77.76
  Q 89.74 78.35 91.41 78.56
  L 91.17 90.89
  Q 91.16 91.44 90.61 91.42
  L 84.30 91.23
  Q 82.90 88.17 80.40 86.29
  C 79.55 85.65 79.28 85.02 78.96 84.05
  Q 78.90 83.86 78.70 83.83
  Q 78.46 83.80 78.25 83.93
  A 0.05 0.05 0.0 0 1 78.17 83.91
  Q 77.52 82.43 76.68 80.98
  Q 76.48 80.63 76.10 80.51
  C 74.94 80.12 74.31 78.47 73.34 77.60
  Q 71.31 75.78 69.35 73.89
  Q 68.10 72.69 66.92 72.14
  Q 65.67 71.55 64.43 70.75
  Q 64.27 70.65 64.10 70.70
  Q 63.96 70.73 63.94 70.93
  A 0.03 0.03 0.0 0 1 63.89 70.95
  Q 63.08 69.98 62.05 70.08
  L 62.39 70.07
  Q 62.93 70.05 62.93 69.51
  L 63.06 59.71
  Q 62.96 56.52 65.26 58.34
  Z"
/>
<path fill="#284d76" d="
  M 138.80 60.97
  L 127.69 61.02
  A 0.73 0.73 0.0 0 1 126.96 60.26
  L 127.03 58.21
  A 0.73 0.73 0.0 0 1 127.76 57.51
  L 139.62 57.50
  A 0.73 0.73 0.0 0 1 140.30 58.51
  L 139.47 60.52
  A 0.73 0.73 0.0 0 1 138.80 60.97
  Z"
/>
<path fill="#284d76" d="
  M 129.95 70.79
  L 138.25 70.74
  Q 139.08 70.74 138.46 70.18
  Q 137.07 68.94 138.93 67.62
  Q 140.19 66.72 141.19 67.91
  L 144.04 71.28
  Q 144.41 71.72 144.17 72.23
  Q 143.34 74.02 141.38 74.01
  Q 133.11 73.98 124.29 74.01
  Q 123.75 74.02 123.75 73.48
  L 123.75 71.59
  Q 123.75 70.84 124.49 70.74
  Q 124.79 70.70 125.08 70.77
  A 0.73 0.72 -68.4 0 0 125.88 70.42
  L 128.05 66.50
  Q 128.33 66.00 127.75 66.00
  L 123.01 66.00
  A 0.75 0.75 0.0 0 1 122.26 65.26
  L 122.24 63.26
  A 0.75 0.75 0.0 0 1 122.99 62.50
  L 144.02 62.50
  Q 145.33 62.50 145.03 63.78
  L 144.83 64.64
  Q 144.51 66.00 143.12 66.00
  L 132.41 66.00
  A 0.33 0.33 0.0 0 0 132.11 66.19
  L 129.82 70.59
  A 0.14 0.14 0.0 0 0 129.95 70.79
  Z"
/>
<path fill="#8b3b60" d="
  M 77.27 63.35
  L 86.09 67.83
  Q 86.51 68.05 86.73 68.47
  Q 86.97 68.95 87.52 68.85
  Q 88.08 68.75 88.42 69.21
  Q 88.73 69.63 89.23 69.62
  C 90.09 69.61 90.84 70.20 91.47 70.75
  L 91.41 78.56
  Q 89.74 78.35 88.19 77.76
  Q 87.33 77.43 86.70 76.81
  Q 86.07 76.20 85.23 75.89
  Q 84.69 75.68 84.31 75.24
  Q 83.42 74.21 82.15 73.69
  Q 80.71 73.11 79.58 72.05
  Q 78.40 70.96 77.31 69.78
  L 77.27 63.35
  Z"
/>
<path fill="#392e60" d="
  M 53.66 66.14
  Q 54.22 67.31 54.50 67.61
  Q 55.11 68.28 56.25 68.46
  A 1.85 1.82 68.9 0 1 57.11 68.85
  Q 58.20 69.75 58.86 69.69
  L 62.05 70.08
  Q 63.08 69.98 63.89 70.95
  A 0.03 0.03 0.0 0 0 63.94 70.93
  Q 63.96 70.73 64.10 70.70
  Q 64.27 70.65 64.43 70.75
  Q 65.67 71.55 66.92 72.14
  Q 68.10 72.69 69.35 73.89
  Q 71.31 75.78 73.34 77.60
  C 74.31 78.47 74.94 80.12 76.10 80.51
  Q 76.48 80.63 76.68 80.98
  Q 77.52 82.43 78.17 83.91
  A 0.05 0.05 0.0 0 0 78.25 83.93
  Q 78.46 83.80 78.70 83.83
  Q 78.90 83.86 78.96 84.05
  C 79.28 85.02 79.55 85.65 80.40 86.29
  Q 82.90 88.17 84.30 91.23
  L 68.51 91.50
  Q 66.05 88.27 65.62 83.98
  Q 65.57 83.49 65.25 83.12
  Q 63.93 81.59 64.12 79.60
  Q 64.19 78.91 63.55 78.65
  Q 62.86 78.38 62.53 77.73
  Q 61.90 76.48 60.53 76.17
  Q 52.15 74.30 44.82 70.54
  Q 49.59 70.29 53.66 66.14
  Z"
/>
</svg>
