<?xml version="1.0" encoding="UTF-8"?><svg id="b" xmlns="http://www.w3.org/2000/svg" viewBox="0 0 549.098 203.003"><defs><style>.ak{stroke-width:0px;}</style></defs><g id="c"><path id="d" class="ak" d="m33.762,170.092c-2.286-.074-4.385,1.256-5.293,3.355l-10.474,17.407c-.336.559-.633.969-.894.969s-.41-.41-.523-.969l-3.019-17.407c-.336-1.826-.894-3.355-3.868-3.355-2.609,0-4.288,1.043-4.809,3.429L0,196.482h4.92l4.199-20.318c.074-.299.297-.783.596-.783.224,0,.334.373.41.783l3.019,17.484c.336,2.011.82,3.132,3.056,3.132s3.172-1.12,4.362-3.132l10.399-17.406c.186-.299.559-.857.82-.857.111,0,.299.037.299.41.004.125-.008.251-.037.373l-4.47,20.313h4.92l4.883-22.96c.071-.304.108-.616.111-.928,0-1.714-1.49-2.497-3.727-2.497"/><path id="e" class="ak" d="m49.939,176.503c-6.711,0-9.654,1.857-11.331,9.691-.33,1.469-.517,2.967-.56,4.472,0,3.652,1.64,5.815,6.301,5.815h10.585l.709-3.355h-9.655c-2.683,0-3.429-1.083-3.429-2.796.005-.765.093-1.528.262-2.275h11.479c1.98.154,3.71-1.325,3.865-3.305.001-.016.002-.033.003-.049.16-.76.235-1.535.224-2.312,0-4.51-3.614-5.889-8.461-5.889m3.868,7.045c-.012.651-.55,1.169-1.201,1.157-.012,0-.025,0-.037-.001h-9.056c.707-3.355,2.347-4.845,6.075-4.845,2.312,0,4.286.707,4.286,2.757-.008.311-.033.621-.074.928"/><path id="f" class="ak" d="m64.92,190.518c.002-.464.054-.926.155-1.379l1.939-9.056h5.628l.707-3.355h-5.628l1.343-6.344h-4.362l-1.342,6.344h-2.72l-.709,3.355h2.722l-2.124,9.951c-.117.552-.179,1.113-.186,1.677,0,3.28,2.572,4.77,6.448,4.77h2.347l.709-3.355h-1.083c-2.497,0-3.839-.634-3.839-2.609"/><path id="g" class="ak" d="m87.923,176.727h-11.219l-.707,3.355h9.654c1.529,0,2.275.67,2.275,1.937-.005.301-.042.601-.111.894l-.299,1.267h-8.942c-3.727,0-5.405,2.05-6.225,5.778-.122.701-.174,1.413-.155,2.124,0,2.794,1.417,4.397,4.137,4.397h9.579c1.974.257,3.783-1.136,4.04-3.11.011-.081.018-.163.023-.244l2.273-10.587c.107-.477.159-.965.155-1.454.167-2.246-1.519-4.203-3.766-4.369-.235-.017-.471-.014-.706.009m-2.05,15.283c-.084.683-.693,1.177-1.379,1.119h-6.151c-.794.13-1.542-.408-1.672-1.201-.024-.145-.025-.293-.005-.439.014-.44.076-.878.186-1.304.446-1.939,1.191-2.647,2.683-2.647h7.272l-.935,4.473Z"/><path id="h" class="ak" d="m110.924,176.727l-8.68,14.648c-.186.299-.484.783-.709.783s-.297-.484-.336-.783l-2.236-14.648h-4.51l3.653,18.227c.373,1.752,1.566,1.752,2.685,1.752,1.427.195,2.829-.499,3.54-1.752l11.257-18.227h-4.663Z"/><path id="i" class="ak" d="m129.6,188.058c1.98.159,3.713-1.317,3.872-3.297.002-.019.003-.038.004-.058.16-.76.236-1.535.224-2.312,0-4.51-3.616-5.887-8.461-5.887-6.711,0-9.654,1.857-11.331,9.691-.33,1.469-.517,2.967-.56,4.472,0,3.653,1.64,5.815,6.301,5.815h10.585l.707-3.355h-9.654c-2.683,0-3.429-1.083-3.429-2.796.005-.765.092-1.528.26-2.275l11.481.002Zm-4.696-8.201c2.31,0,4.286.709,4.286,2.759-.008.311-.033.621-.074.928-.012.651-.549,1.169-1.201,1.157-.012,0-.025,0-.037-.001h-9.049c.707-3.355,2.347-4.845,6.075-4.845"/><path id="j" class="ak" d="m148.574,176.727h-2.94c-5.665,0-8.386,1.789-9.579,7.455l-2.61,12.299h4.36l2.384-11.141c.747-3.503,2.35-5.261,5.853-5.261h1.827l.704-3.353Z"/><path id="k" class="ak" d="m148.874,181.423c-.061.47-.086.944-.074,1.417,0,2.124,1.416,3.652,4.622,4.696l3.204,1.044c1.714.559,3.69,1.193,3.69,2.31-.005.277-.043.552-.111.82-.299,1.267-1.342,1.417-2.236,1.417h-11.108l-.707,3.355h12.634c4.137,0,5.293-1.64,5.926-4.66.091-.441.128-.891.113-1.342,0-2.94-2.46-3.987-5.405-4.92l-3.616-1.154c-.969-.299-2.497-.783-2.497-2.05.013-.225.038-.449.074-.672.262-1.304.928-1.603,2.349-1.603h10.474l.709-3.355h-11.141c-4.36,0-6.344,1.083-6.895,4.698"/><path id="l" class="ak" d="m179.256,176.503c-6.709,0-9.654,1.857-11.331,9.691-.329,1.469-.516,2.967-.559,4.472,0,3.652,1.64,5.815,6.299,5.815h10.58l.707-3.355h-9.654c-2.685,0-3.43-1.083-3.43-2.796.005-.765.093-1.528.262-2.275h11.479c1.98.159,3.713-1.317,3.872-3.297.002-.019.003-.038.004-.058.16-.76.236-1.535.224-2.312,0-4.51-3.616-5.889-8.461-5.889m3.876,7.045c-.012.651-.549,1.169-1.201,1.157-.012,0-.025,0-.037-.001h-9.056c.707-3.355,2.347-4.845,6.076-4.845,2.312,0,4.286.707,4.286,2.757-.008.311-.033.621-.074.928"/><path id="m" class="ak" d="m216.839,175.98c0-3.13-1.267-5.59-5.479-5.59h-12.604c-2.609,0-3.989.928-4.622,3.915l-4.733,22.177h4.92l1.976-9.244h11.852c5.963,0,7.641-3.577,8.423-8.088.176-1.047.263-2.107.262-3.169m-5.327,2.796c-.709,2.982-1.603,4.547-4.951,4.547h-9.429l1.529-7.156c.334-1.49.781-1.857,2.273-1.857h7.566c2.46,0,3.317.783,3.317,2.422-.023.692-.124,1.38-.299,2.05"/><path id="n" class="ak" d="m231.601,176.727h-2.94c-5.666,0-8.386,1.789-9.579,7.455l-2.609,12.299h4.362l2.384-11.141c.746-3.503,2.349-5.261,5.853-5.261h1.826l.703-3.353Z"/><path id="o" class="ak" d="m242.784,176.503c-7.082,0-10.585,1.49-12.262,9.691-.239,1.191-.364,2.402-.373,3.616,0,5.106,3.249,6.895,9.095,6.895,7.08,0,10.622-1.492,12.299-9.765.238-1.178.363-2.377.373-3.579,0-5.069-3.249-6.858-9.129-6.858m4.249,10.057c-1.006,4.845-2.982,6.783-7.455,6.783-3.466,0-4.919-1.156-4.919-3.915.032-.966.157-1.928.373-2.87,1.044-4.845,2.94-6.709,7.418-6.709,3.466,0,4.951,1.119,4.951,3.876-.032.954-.157,1.903-.373,2.833"/><path id="p" class="ak" d="m264.779,180.082h7.196l.709-3.355h-8.275c-7.082,0-9.284,3.132-10.548,9.468-.266,1.213-.416,2.449-.447,3.69,0,3.989,1.939,6.598,7.156,6.598h8.355l.707-3.355h-7.641c-3.13,0-4.062-1.342-4.062-3.392.036-1.069.186-2.13.447-3.167.783-3.727,1.826-6.485,6.41-6.485"/><path id="q" class="ak" d="m284.277,176.503c-6.709,0-9.654,1.857-11.331,9.691-.329,1.469-.516,2.967-.559,4.472,0,3.652,1.64,5.815,6.299,5.815h10.585l.707-3.355h-9.654c-2.685,0-3.43-1.083-3.43-2.796.005-.765.093-1.528.262-2.275h11.479c1.98.159,3.713-1.317,3.872-3.297.002-.019.003-.038.004-.058.161-.76.236-1.535.224-2.312,0-4.51-3.614-5.889-8.461-5.889m3.876,7.045c-.012.651-.549,1.169-1.201,1.157-.012,0-.025,0-.037-.001h-9.056c.707-3.355,2.347-4.845,6.075-4.845,2.312,0,4.286.707,4.286,2.757-.008.311-.033.62-.074.928"/><path id="r" class="ak" d="m306.158,185.559l-3.616-1.156c-.969-.299-2.496-.783-2.496-2.05.013-.225.037-.449.074-.672.262-1.304.928-1.601,2.349-1.601h10.466l.709-3.355h-11.141c-4.36,0-6.344,1.083-6.895,4.698-.061.47-.086.944-.074,1.417,0,2.124,1.416,3.652,4.622,4.696l3.204,1.044c1.714.559,3.69,1.191,3.69,2.31-.005.277-.043.552-.111.82-.299,1.267-1.342,1.417-2.236,1.417h-11.11l-.707,3.355h12.635c4.137,0,5.293-1.64,5.928-4.659.089-.441.127-.892.111-1.342,0-2.94-2.46-3.987-5.405-4.92"/><path id="s" class="ak" d="m315.294,181.423c-.061.47-.086.944-.074,1.417,0,2.124,1.416,3.652,4.622,4.696l3.204,1.044c1.714.559,3.69,1.193,3.69,2.31-.006.277-.044.552-.113.82-.299,1.267-1.342,1.417-2.236,1.417h-11.108l-.707,3.355h12.635c4.137,0,5.293-1.64,5.926-4.66.09-.441.128-.891.113-1.342,0-2.94-2.46-3.987-5.405-4.92l-3.616-1.154c-.969-.299-2.497-.783-2.497-2.05.013-.225.037-.449.074-.672.262-1.304.928-1.603,2.349-1.603h10.474l.709-3.355h-11.141c-4.36,0-6.344,1.083-6.895,4.698"/><path id="t" class="ak" d="m351.674,170.092c-9.654,0-13.605,2.049-15.84,12.971-.373,1.753-.573,3.538-.597,5.33,0,6.344,3.727,8.386,11.518,8.386,9.728,0,13.643-2.05,15.878-12.971.363-1.754.55-3.539.559-5.33,0-6.301-3.69-8.386-11.517-8.386m5.889,13.344c-1.603,7.455-3.95,9.429-10.367,9.429-4.845,0-6.895-1.117-6.895-4.92.052-1.519.252-3.03.596-4.51,1.564-7.455,3.876-9.431,10.286-9.431,4.883,0,6.933,1.119,6.933,4.995-.036,1.493-.223,2.979-.559,4.435"/><path id="u" class="ak" d="m378.366,192.01c-.084.684-.694,1.178-1.38,1.119h-4.286c-2.349,0-3.355-.969-3.355-2.87-.004-.564.059-1.127.186-1.677l2.534-11.852h-4.36l-2.759,13.008c-.109.577-.161,1.164-.155,1.752,0,3.577,2.87,4.995,6.746,4.995h6.858c1.945.281,3.75-1.069,4.031-3.014.016-.113.027-.227.033-.341l3.503-16.401h-4.36l-3.235,15.283Z"/><path id="v" class="ak" d="m392.643,190.518c.002-.464.054-.926.155-1.379l1.939-9.056h5.628l.709-3.355h-5.628l1.342-6.344h-4.363l-1.342,6.344h-2.72l-.709,3.355h2.723l-2.124,9.951c-.117.552-.179,1.113-.186,1.677,0,3.28,2.572,4.77,6.448,4.77h2.349l.709-3.355h-1.083c-2.497,0-3.839-.634-3.839-2.609"/><path id="w" class="ak" d="m402.447,181.423c-.061.47-.086.944-.074,1.417,0,2.124,1.416,3.652,4.622,4.696l3.204,1.044c1.714.559,3.69,1.193,3.69,2.31-.005.277-.043.552-.111.82-.299,1.267-1.342,1.417-2.236,1.417h-11.108l-.707,3.355h12.635c4.137,0,5.293-1.64,5.926-4.66.091-.441.129-.891.113-1.342,0-2.94-2.46-3.987-5.406-4.92l-3.616-1.154c-.969-.299-2.497-.783-2.497-2.05.013-.225.038-.449.074-.672.262-1.304.928-1.603,2.349-1.603h10.474l.709-3.355h-11.141c-4.36,0-6.344,1.083-6.895,4.698"/><path id="x" class="ak" d="m434.282,176.503c-7.082,0-10.585,1.49-12.262,9.691-.239,1.191-.364,2.402-.373,3.616,0,5.106,3.249,6.895,9.095,6.895,7.08,0,10.622-1.492,12.299-9.765.238-1.178.363-2.377.373-3.579,0-5.069-3.249-6.858-9.129-6.858m4.249,10.057c-1.006,4.845-2.982,6.783-7.455,6.783-3.466,0-4.92-1.156-4.92-3.915.032-.966.157-1.928.373-2.87,1.044-4.845,2.94-6.709,7.418-6.709,3.466,0,4.951,1.119,4.951,3.876-.032.954-.157,1.903-.373,2.833"/><path id="y" class="ak" d="m461.904,176.727l-3.249,15.283c-.084.683-.693,1.177-1.379,1.119h-4.285c-2.349,0-3.355-.969-3.355-2.87-.004-.564.059-1.127.186-1.677l2.534-11.854h-4.36l-2.757,13.008c-.109.577-.161,1.164-.155,1.752,0,3.577,2.87,4.995,6.746,4.995h6.858c1.945.281,3.75-1.069,4.031-3.014.016-.113.027-.227.033-.341l3.503-16.401-4.351.002Z"/><path id="z" class="ak" d="m480.69,176.727h-2.94c-5.665,0-8.386,1.789-9.579,7.455l-2.609,12.299h4.362l2.384-11.141c.746-3.503,2.349-5.261,5.852-5.261h1.826l.704-3.353Z"/><path id="aa" class="ak" d="m490.683,180.082h7.193l.709-3.355h-8.275c-7.082,0-9.284,3.132-10.548,9.468-.267,1.213-.416,2.449-.447,3.69,0,3.989,1.939,6.598,7.156,6.598h8.355l.707-3.355h-7.641c-3.13,0-4.062-1.342-4.062-3.392.036-1.069.186-2.13.447-3.167.783-3.727,1.827-6.485,6.41-6.485"/><path id="ab" class="ak" d="m502.204,176.727l-4.212,19.754h4.36l4.212-19.754h-4.36Z"/><path id="ac" class="ak" d="m507.943,170.092h-4.354l-.857,4.023h4.362l.85-4.023Z"/><path id="ad" class="ak" d="m519.984,176.727h-6.561c-1.959-.269-3.765,1.102-4.034,3.061-.013.097-.023.195-.028.294l-3.505,16.401h4.36l3.249-15.281c.084-.683.693-1.177,1.379-1.119h3.987c2.349,0,3.392.969,3.392,2.869-.011.566-.085,1.128-.223,1.677l-2.534,11.852h4.36l2.796-13.008c.11-.565.162-1.139.155-1.714,0-3.577-2.87-5.032-6.783-5.032"/><path id="ae" class="ak" d="m546.34,176.726h-7.343c-6.709,0-8.908,3.132-10.175,9.468-.264,1.226-.414,2.474-.447,3.727,0,3.95,1.902,6.561,6.821,6.561h5.963c-.719,2.025-2.701,3.321-4.845,3.167h-8.871l-.746,3.355h9.244c5.963,0,8.609-2.124,9.876-8.046l3.169-14.873c.074-.292.111-.593.111-.894,0-1.417-.894-2.46-2.757-2.46m-1.939,4.473l-2.534,11.927h-5.261c-2.87,0-3.727-1.304-3.727-3.317.037-1.096.187-2.184.447-3.249.783-3.727,1.827-6.485,6.034-6.485h4.137c.633,0,.928.261.928.783.006.113-.006.227-.037.336"/><path id="af" class="ak" d="m183.505,0c-14.604,0-25.994,5.289-31.936,21.789l-31.064,85.399c-.847,2.535-2.54,6.131-4.229,6.131s-3.382-3.595-4.229-6.131l-31.079-85.399C75.024,5.299,63.634,0,48.833,0c-11.207,0-30.025,2.971-30.025,22.834v108.04h18.818v18.818h19.244l-1.065-102.548c0-1.055,0-4.65,2.115-4.65,1.273,0,2.327,2.748,3.174,5.076l30.208,84.993c4.016,11.207,8.032,18.818,24.949,18.818,16.698,0,20.72-7.606,24.736-18.818l30.47-84.993c1.06-2.971,2.115-5.076,3.169-5.076,1.268,0,2.327,1.694,2.327,4.65l-1.273,102.538h38.057V22.834c0-11.415-5.943-22.834-30.208-22.834"/><rect id="ag" class="ak" y="130.874" width="18.808" height="18.808"/><rect id="ah" class="ak" x="273.816" y="130.874" width="18.808" height="18.808"/><path id="ai" class="ak" d="m336.831,1.694h-78.659c-13.742,0-22.413,6.977-22.413,22.834v125.159h19.244v-18.818h18.818v-28.539h63.01c32.768,0,39.958-20.928,39.958-50.511S369.584,1.694,336.831,1.694m-19.66,71.038h-43.356v-31.5c0-7.398,2.535-9.939,9.939-9.939h33.402c15.847,0,20.72,5.71,20.72,20.507s-4.863,20.932-20.72,20.932"/><path id="aj" class="ak" d="m470.449,0c-58.138,0-78.649,14.163-78.649,75.688s20.507,75.688,78.649,75.688,78.649-13.955,78.649-75.688c0-61.525-20.512-75.688-78.649-75.688m-58.563,85.092v-18.818h18.818v18.818h-18.818Zm58.558,36.685c-27.88,0-37.794-9.211-39.458-36.685h18.521v-18.818h-18.531c1.664-27.479,11.578-36.685,39.458-36.685s37.794,9.206,39.458,36.685h-18.501v18.818h18.521c-1.659,27.474-11.578,36.685-39.458,36.685m58.573-36.685h-18.818v-18.818h18.818v18.818Z"/></g></svg>