<?xml version="1.0" encoding="UTF-8"?><svg id="b" xmlns="http://www.w3.org/2000/svg" viewBox="0 0 679.126 109.011"><defs><style>.d{fill:#080a52;}.d,.e,.f{stroke-width:0px;}.e{fill:#ed2b2a;}.f{fill:#231f20;}</style></defs><g id="c"><path class="f" d="m203.343,25.301c4.89,0,7.498,2.119,7.498,6.928v48.736c0,4.808-2.609,6.846-7.498,6.846h-42.38c-4.971,0-7.497-2.037-7.497-6.846v-48.736c0-4.808,2.526-6.928,7.497-6.928h12.714c1.385-2.689,2.689-5.542,3.912-9.209.326-1.223,1.304-1.793,2.689-1.793.489,0,.978.082,1.467.162,1.466.326,2.526,1.141,2.526,2.283,0,.407-.082.733-.245,1.141-1.14,2.771-2.2,5.216-3.505,7.416h22.82Zm1.059,18.5v-10.35c0-1.793-.814-2.363-2.607-2.363h-39.283c-1.874,0-2.689.571-2.689,2.363v10.35h44.58Zm0,18.256v-12.469h-44.58v12.469h44.58Zm-44.58,17.523c0,1.793.815,2.363,2.689,2.363h39.283c1.793,0,2.607-.571,2.607-2.363v-11.736h-44.58v11.736Z"/><path class="f" d="m241.351,46.165c.652.571,1.06,1.386,1.06,2.282,0,.734-.245,1.467-.815,2.119-.652.896-1.711,1.304-2.609,1.304-.733,0-1.385-.245-1.874-.652-2.607-2.526-8.149-6.52-11.002-8.312-.734-.489-1.141-1.304-1.141-2.283,0-.652.244-1.385.652-1.956.733-.815,1.629-1.304,2.689-1.304.489,0,1.059.163,1.548.408,3.912,2.2,7.986,5.379,11.491,8.394Zm2.283,17.36c0,.326-.082.815-.245,1.222-2.689,7.09-6.764,16.3-11.165,22.82-.652.897-1.63,1.386-2.689,1.386-.652,0-1.385-.245-2.119-.571-.896-.652-1.466-1.63-1.466-2.608,0-.571.163-1.222.57-1.793,4.238-6.031,8.395-14.589,10.921-21.598.489-1.304,1.467-1.956,2.689-1.956.407,0,.896.082,1.304.245,1.466.571,2.2,1.63,2.2,2.853Zm3.423-35.208c0,.734-.244,1.549-.815,2.119-.652.815-1.548,1.141-2.444,1.141s-1.793-.326-2.446-.978c-2.77-2.689-7.66-6.683-10.839-8.802-.652-.408-1.059-1.304-1.059-2.2,0-.734.244-1.467.733-2.119.652-.815,1.63-1.304,2.689-1.304.57,0,1.141.163,1.711.489,3.342,2.119,8.312,6.112,11.41,9.128.733.734,1.059,1.63,1.059,2.526Zm41.565,11.981c-2.689-3.831-5.623-7.579-8.558-10.921-.489-.489-.652-1.06-.652-1.63,0-.815.489-1.63,1.386-2.119.57-.408,1.222-.571,1.874-.571.896,0,1.711.326,2.363,1.06,5.216,5.787,10.921,13.447,15.566,20.701.326.571.489,1.223.489,1.793,0,.978-.489,1.956-1.466,2.526-.571.408-1.223.571-1.876.571-1.059,0-2.118-.652-2.77-1.711-.815-1.467-1.793-2.934-2.689-4.401-13.854,1.63-29.911,2.689-44.906,2.933-1.793,0-3.016-1.059-3.096-3.096v-.163c0-1.712,1.059-3.097,2.77-3.097h4.32c5.379-8.15,9.698-17.115,12.632-24.858.489-1.385,1.63-2.037,2.933-2.037.489,0,.978.082,1.467.245,1.385.408,2.119,1.304,2.119,2.526,0,.326-.082.734-.245,1.223-3.26,7.987-7.742,16.218-12.061,22.901,10.106-.245,20.293-.815,30.398-1.874Zm-1.629,15.811c5.053,0,7.416,1.956,7.416,7.009v18.663c0,5.134-2.363,7.09-7.416,7.09h-29.993c-5.134,0-7.416-1.956-7.416-7.09v-18.663c0-5.053,2.283-7.009,7.416-7.009h29.993Zm-1.304,26.894c1.711,0,2.526-.489,2.526-2.282v-16.382c0-1.793-.815-2.363-2.526-2.363h-27.384c-1.711,0-2.526.571-2.526,2.363v16.382c0,1.793.815,2.282,2.526,2.282h27.384Z"/><path class="f" d="m321.762,57.168c0-4.482.326-8.558.733-12.225-1.792,2.934-3.749,5.705-5.704,8.068-.652.815-1.63,1.222-2.609,1.222-.652,0-1.304-.245-1.956-.652-.814-.652-1.222-1.467-1.222-2.364,0-.815.245-1.548.815-2.282,7.742-9.291,13.528-20.049,16.789-31.785.326-1.467,1.467-2.037,2.77-2.037.326,0,.734.082,1.141.163,1.467.245,2.446,1.223,2.446,2.608,0,.326,0,.571-.082.897-1.874,5.705-4.238,11.573-6.846,16.789v52.73c0,1.549-1.303,2.363-3.177,2.363s-3.098-.815-3.098-2.363v-31.133Zm51.834,11.003c1.467,0,2.2,1.06,2.2,2.771,0,1.63-.733,2.853-2.2,2.853h-11.736v14.262c0,1.549-1.059,2.363-2.933,2.363-1.793,0-3.016-.815-3.016-2.363v-14.262h-11.165c-1.467,0-2.2-1.223-2.2-2.853,0-1.711.733-2.771,2.2-2.771h11.165v-18.256c0-3.423.326-6.764.57-8.884-4.238,12.307-12.876,24.042-21.597,31.459-.652.571-1.467.897-2.2.897-.815,0-1.63-.408-2.283-1.141-.57-.733-.814-1.467-.814-2.282,0-.896.489-1.874,1.303-2.526,7.742-6.194,16.463-16.219,22.331-29.991h-17.766c-1.467,0-2.283-1.223-2.283-2.934,0-1.63.815-2.853,2.283-2.853h20.456v-14.263c0-1.548,1.222-2.363,3.016-2.363,1.874,0,3.016.815,3.016,2.363v14.263h23.716c1.467,0,2.281,1.141,2.281,2.853,0,1.63-.814,2.934-2.281,2.934h-21.435c5.787,12.225,13.367,21.841,23.879,29.991.815.652,1.304,1.712,1.304,2.689,0,.734-.244,1.467-.733,2.119-.815.897-1.63,1.304-2.446,1.304s-1.548-.326-2.281-.897c-8.884-7.416-18.256-18.99-22.657-31.703.407,2.445.57,5.542.57,8.965v18.256h11.736Z"/><path class="f" d="m455.82,28.154c3.423,0,5.623,1.467,6.438,3.831.245.571.326,1.222.326,1.874,0,1.956-1.059,4.156-3.096,6.276-5.135,4.971-11.573,9.372-17.441,12.632,8.965,3.179,18.744,7.416,27.139,12.225,1.141.734,1.793,1.793,1.793,2.934,0,.652-.163,1.304-.489,1.874-.652,1.304-1.874,1.956-3.016,1.956-.652,0-1.222-.163-1.793-.489-7.008-4.157-16.299-8.884-23.471-11.981-2.446-1.059-2.689-1.304-3.586-1.793l-.163.082c.244,1.304.244,2.853.244,5.134v22.738c0,1.956-1.467,2.934-3.505,2.934-1.955,0-3.423-.978-3.423-2.934v-18.419c0-2.771.081-6.031.326-8.475l-.245-.082c-7.823,4.727-18.174,9.291-26.813,11.491-.326.082-.652.082-.896.082-1.467,0-2.772-.815-3.261-2.445-.081-.326-.163-.734-.163-1.059,0-1.386.815-2.526,2.446-2.934,19.723-6.113,39.364-16.626,49.959-26.406.815-.734,1.141-1.304,1.141-1.712,0-.652-.652-.978-1.793-.978h-44.173c-1.629,0-2.689-1.386-2.689-3.179s1.06-3.179,2.689-3.179h23.228v-8.476c0-1.956,1.548-2.933,3.503-2.933s3.505.978,3.505,2.933v8.476h17.278Z"/><path class="f" d="m502.046,34.674c-4.727,7.335-11.247,14.099-18.42,18.826-.733.407-1.385.652-2.118.652-1.06,0-2.037-.57-2.772-1.467-.407-.571-.652-1.304-.652-2.119,0-1.06.489-2.282,1.711-3.016,8.068-5.216,16.219-14.181,21.679-27.792.571-1.467,1.549-2.363,3.179-2.363.408,0,.897.082,1.467.245,1.711.408,2.526,1.63,2.526,2.934,0,.326-.082.734-.163,1.06-.489,1.711-1.63,3.993-3.179,6.683l25.51-.489c5.216-.082,8.475,2.853,8.475,8.15,0,.978-.081,1.956-.326,3.097-4.89,23.064-21.108,41.728-48.899,48.41-.326.082-.652.082-.978.082-1.63,0-2.853-.815-3.342-2.363-.082-.407-.163-.815-.163-1.222,0-1.467.896-2.689,2.689-3.097,23.797-6.276,38.386-20.782,43.276-42.869.082-.57.163-.978.163-1.467,0-1.548-.815-2.282-3.096-2.282h-.326l-26.243.408Z"/><path class="f" d="m556.114,30.517c-1.956,0-3.016-1.385-3.016-3.586,0-1.956,1.14-3.26,3.016-3.26l41.483-.408c3.505,0,5.787,1.141,7.253,3.26.652,1.141,1.06,2.445,1.06,4.075,0,1.386-.326,3.016-.897,4.727-2.689,7.254-7.253,14.181-12.958,21.19,9.128,7.091,15.811,12.388,22.657,20.294.733.896,1.141,1.874,1.141,2.853s-.408,1.874-1.06,2.607c-.733.815-1.792,1.223-2.853,1.223s-2.118-.408-2.933-1.304c-6.112-7.335-12.469-13.447-21.516-20.538-9.047,9.943-21.842,17.849-34.474,22.576-.652.245-1.304.408-1.955.408-1.386,0-2.526-.652-3.016-2.038-.163-.407-.245-.896-.245-1.385,0-1.467.897-2.934,2.446-3.505,9.861-3.749,20.212-9.617,28.932-17.604,8.475-7.824,15.24-17.359,18.418-26.487.245-.734.408-1.304.408-1.793,0-1.223-.897-1.793-2.935-1.793l-38.956.488Z"/><path class="f" d="m637.154,84.226c0,2.2-1.548,3.097-3.586,3.097-2.2,0-3.587-.897-3.587-3.097V20.901c0-2.2,1.386-3.097,3.587-3.097,2.037,0,3.586.897,3.586,3.179v20.945c12.306,3.26,27.465,8.721,39.771,14.588,1.549.734,2.2,1.956,2.2,3.423,0,.571-.081,1.141-.326,1.793-.488,1.386-1.792,2.363-3.26,2.363-.57,0-1.141-.162-1.711-.407-10.758-5.461-24.775-11.084-36.675-14.507v35.045Z"/><path class="d" d="m99.693,25.603l-5.11,7.209c3.586,6.551,5.629,14.063,5.629,22.043,0,25.396-20.662,46.057-46.057,46.057S8.097,80.251,8.097,54.855,28.759,8.798,54.155,8.798c11.736,0,22.455,4.419,30.597,11.672l4.702-6.633C79.966,5.661,67.633.7,54.155.7,24.293.7,0,24.994,0,54.855s24.293,54.155,54.155,54.155,54.154-24.294,54.154-54.155c0-10.771-3.174-20.809-8.616-29.252Z"/><path class="d" d="m80.724,51.223c.163,1.195.254,2.407.254,3.632,0,14.791-12.033,26.824-26.823,26.824s-26.824-12.033-26.824-26.824,12.033-26.825,26.824-26.825c5.375,0,10.561,1.584,14.996,4.581,1.795,1.213,3.411,2.623,4.835,4.187l2.385-3.364c-1.488-1.543-3.137-2.952-4.953-4.178-5.106-3.45-11.075-5.274-17.262-5.274-17.024,0-30.874,13.85-30.874,30.874s13.851,30.873,30.874,30.873,30.873-13.849,30.873-30.873c0-2.789-.387-5.522-1.104-8.145l-3.199,4.513Z"/><path class="e" d="m62.022,68.158c-.996,0-1.94-.451-2.567-1.229l-11.922-14.804-9.271,12.595c-1.077,1.465-3.139,1.779-4.607.7-1.465-1.079-1.779-3.142-.7-4.607l11.806-16.04c.605-.823,1.56-1.318,2.582-1.341,1.029-.054,1.996.431,2.638,1.228l11.9,14.777L100.012,6.772c1.069-1.474,3.129-1.804,4.603-.737s1.804,3.127.737,4.601l-40.66,56.159c-.602.832-1.558,1.336-2.585,1.362-.029,0-.058.001-.085.001Z"/><polygon class="e" points="108.015 20.562 109.319 0 90.029 7.235 108.015 20.562"/></g></svg>