<?xml version="1.0" encoding="UTF-8"?><svg id="b" xmlns="http://www.w3.org/2000/svg" viewBox="0 0 666.87 76.224"><defs><style>.d{fill:#1a1a1a;}.d,.e,.f{stroke-width:0px;}.e{fill:#32bce6;}.f{fill:#0068ae;}</style></defs><g id="c"><path class="e" d="m10.177,55.869c-5.62,0-10.177,4.557-10.177,10.177s4.557,10.177,10.177,10.177h69.998v-20.355H10.177Zm-.023,15.088c-2.713,0-4.911-2.199-4.911-4.911s2.199-4.911,4.911-4.911,4.911,2.199,4.911,4.911-2.199,4.911-4.911,4.911Z"/><path class="d" d="m149.455,67.423c-4.635-2.714-8.278-6.372-10.923-10.977l9.721-7.215c2.229,2.906,4.667,5.218,7.317,6.936,2.645,1.718,5.851,2.575,9.617,2.575,3.064,0,5.468-.643,7.21-1.932,1.742-1.289,2.614-3.058,2.614-5.305,0-1.916-.644-3.385-1.933-4.411-1.291-1.024-3.574-2.264-6.848-3.718l-7.422-3.393c-5.295-2.404-9.407-5.196-12.333-8.378-2.925-3.182-4.389-7.104-4.389-11.773,0-3.958.993-7.442,2.98-10.448,1.985-3.005,4.717-5.319,8.205-6.946,3.483-1.627,7.385-2.439,11.706-2.439,5.293,0,9.876,1.191,13.744,3.572,3.868,2.38,6.88,5.569,9.041,9.561l-9.617,7.458c-3.552-5.226-7.943-7.84-13.168-7.84-2.441,0-4.48.569-6.115,1.705-1.639,1.137-2.459,2.772-2.459,4.906,0,1.792.61,3.22,1.83,4.289,1.22,1.068,3.292,2.255,6.22,3.563l7.841,3.41c5.783,2.578,10.067,5.418,12.854,8.519,2.787,3.101,4.182,6.986,4.182,11.654,0,4.181-1.045,7.84-3.135,10.975-2.09,3.136-4.968,5.54-8.624,7.212-3.659,1.672-7.786,2.509-12.385,2.509-5.856,0-11.099-1.357-15.732-4.072Z"/><path class="d" d="m213.84,66.791c-5.612-3.136-10.033-7.438-13.275-12.909-3.24-5.47-4.861-11.514-4.861-18.136s1.637-12.664,4.913-18.135c3.276-5.47,7.716-9.772,13.325-12.909,5.61-3.136,11.795-4.704,18.555-4.704,6.548,0,12.49,1.509,17.822,4.527,5.332,3.018,9.528,7.199,12.594,12.543l-10.659,7.492c-4.881-7.874-11.465-11.811-19.757-11.811-4.253,0-8.066.99-11.447,2.968-3.379,1.98-6.026,4.717-7.941,8.213-1.919,3.497-2.875,7.471-2.875,11.922s.956,8.408,2.875,11.868c1.915,3.462,4.562,6.164,7.941,8.107,3.381,1.943,7.194,2.913,11.447,2.913,8.292,0,14.876-3.935,19.757-11.811l10.659,7.494c-2.996,5.343-7.176,9.524-12.542,12.543-5.366,3.018-11.358,4.527-17.979,4.527-6.759,0-12.945-1.567-18.552-4.704Z"/><path class="d" d="m318.363,66.791c-5.612-3.136-10.035-7.438-13.277-12.909-3.237-5.47-4.858-11.514-4.858-18.136s1.635-12.664,4.913-18.135c3.274-5.47,7.716-9.772,13.325-12.909,5.607-3.136,11.795-4.704,18.552-4.704,6.55,0,12.492,1.509,17.822,4.527,5.332,3.018,9.53,7.199,12.597,12.543l-10.662,7.492c-4.879-7.874-11.465-11.811-19.757-11.811-4.25,0-8.064.99-11.445,2.968-3.381,1.98-6.026,4.717-7.943,8.213-1.917,3.497-2.873,7.471-2.873,11.922s.956,8.408,2.873,11.868c1.917,3.462,4.562,6.164,7.943,8.107,3.381,1.943,7.194,2.913,11.445,2.913,8.292,0,14.878-3.935,19.757-11.811l10.662,7.494c-2.998,5.343-7.178,9.524-12.542,12.543-5.368,3.018-11.36,4.527-17.981,4.527-6.757,0-12.945-1.567-18.55-4.704Z"/><path class="d" d="m416.978,61.251h-28.221l-3.866,8.989h-15.158L400.568,0h4.704l30.73,70.24h-15.156l-3.868-8.989Zm-14.111-34.911l-9.198,22.16h18.395l-9.198-22.16Z"/><path class="d" d="m443.319,1.254h25.922c4.808,0,9.093.924,12.856,2.77,3.763,1.847,6.705,4.46,8.831,7.84,2.126,3.381,3.19,7.264,3.19,11.654s-1.063,8.276-3.19,11.654c-2.126,3.381-5.068,6.01-8.831,7.892-3.763,1.882-8.048,2.822-12.856,2.822h-11.811v24.354h-14.111V1.254Zm25.922,31.88c3.274,0,5.835-.889,7.681-2.667,1.846-1.779,2.771-4.11,2.771-6.998,0-2.818-.94-5.101-2.821-6.845-1.883-1.744-4.426-2.618-7.631-2.618h-11.811v19.128h11.811Z"/><path class="d" d="m501.225,1.254h14.111v68.986h-14.111V1.254Z"/><path class="d" d="m543.112,66.791c-5.573-3.136-9.999-7.438-13.273-12.909-3.276-5.47-4.913-11.514-4.913-18.136s1.637-12.664,4.913-18.135c3.274-5.47,7.7-9.772,13.273-12.909,5.575-3.136,11.709-4.704,18.398-4.704s12.838,1.567,18.448,4.704c5.61,3.136,10.07,7.439,13.382,12.909,3.306,5.471,4.963,11.515,4.963,18.135s-1.657,12.666-4.963,18.136c-3.313,5.471-7.772,9.772-13.382,12.909s-11.757,4.704-18.448,4.704-12.822-1.567-18.398-4.704Zm29.842-10.962c3.379-1.943,6.029-4.663,7.945-8.159s2.873-7.471,2.873-11.923c0-4.38-.956-8.318-2.873-11.815-1.917-3.496-4.567-6.233-7.945-8.213-3.379-1.977-7.158-2.968-11.34-2.968-4.25,0-8.048.972-11.395,2.915-3.342,1.944-5.974,4.663-7.891,8.159-1.917,3.497-2.873,7.471-2.873,11.92s.956,8.426,2.873,11.923c1.917,3.497,4.549,6.216,7.891,8.159,3.347,1.943,7.144,2.913,11.395,2.913,4.182,0,7.961-.97,11.34-2.913Z"/><path class="d" d="m666.87,1.254v70.24h-4.704l-39.928-42.646v41.392h-14.111V0h4.599l40.032,42.437V1.254h14.111Z"/><path class="f" d="m10.177,1.659C4.557,1.659,0,6.215,0,11.836s4.557,10.177,10.177,10.177h69.998V1.659H10.177Zm-.023,15.088c-2.713,0-4.911-2.199-4.911-4.911s2.199-4.911,4.911-4.911,4.911,2.199,4.911,4.911-2.199,4.911-4.911,4.911Z"/><path class="f" d="m69.998,28.764c5.62,0,10.177,4.557,10.177,10.177s-4.557,10.177-10.177,10.177H0v-20.355h69.998Zm.023,15.088c2.713,0,4.911-2.199,4.911-4.911s-2.199-4.911-4.911-4.911-4.911,2.199-4.911,4.911,2.199,4.911,4.911,4.911Z"/></g></svg>