<?xml version="1.0" encoding="UTF-8"?><svg id="b" xmlns="http://www.w3.org/2000/svg" viewBox="0 0 520.831 159.848"><defs><style>.d{fill:#ed1c24;}.d,.e,.f{stroke-width:0px;}.e{fill:#00a651;}.f{fill:#231f20;}</style></defs><g id="c"><circle class="e" cx="54.916" cy="52.244" r="14.927"/><path class="e" d="m54.916,52.244c-.376-5.033-11.225-66.457,88.82-13.274,0,0-72.788-56.691-102.652-33.319-15.098,12.351,9.787,43.728,13.821,46.594h.011Z"/><circle class="e" cx="104.933" cy="107.605" r="14.927"/><path class="e" d="m104.933,107.605c.376,5.033,11.225,66.457-88.82,13.274,0,0,72.788,56.691,102.652,33.319,15.098-12.351-9.787-43.728-13.821-46.594h-.011Z"/><circle class="e" cx="52.244" cy="104.933" r="14.927"/><path class="e" d="m52.244,104.933c-5.033.376-66.457,11.225-13.274-88.82,0,0-56.691,72.788-33.319,102.652,12.351,15.098,43.728-9.787,46.594-13.821v-.011Z"/><circle class="d" cx="107.605" cy="54.916" r="14.927"/><path class="d" d="m107.605,54.916c5.033-.376,66.457-11.225,13.274,88.82,0,0,56.691-72.788,33.319-102.652-12.351-15.098-43.728,9.787-46.594,13.821v.011Z"/><path class="d" d="m291.221,92.678h-15.635V16.95h15.635v75.728Z"/><path class="e" d="m221.749,92.764c-22.707,0-32.901-11.654-32.901-29.274V18.935h18.049v9.669h52.678v18.049h-52.678v15.281c0,8.553,5.355,12.952,20.893,12.952h32.815v17.878h-38.857,0Z"/><path class="e" d="m303.562,59.519v33.159h-15.635V16.95h15.635v23.232c12.781,6.481,35.315,9.239,47.667,9.239v18.393c-18.994,0-36.7-3.627-47.667-8.295Z"/><path class="d" d="m378.925,92.592h-18.908c1.384-3.885,3.455-15.195,3.455-32.815V18.849h18.479v40.413c0,17.706-1.642,30.132-3.026,33.33Zm26.677,0h-17.352V18.763h18.564v55.35h1.556c5.698,0,8.81-5.87,8.81-21.848v-20.636h18.049v23.232c0,25.561-8.638,37.73-29.617,37.73h-.011Z"/><path class="d" d="m467.122,92.592h-16.579v-17.878h16.579c21.333,0,35.573-7.769,35.573-26.076v-10.881h-28.319c-2.243,6.997-10.967,19.434-28.673,21.762v-18.822c8.724-1.985,14.165-10.795,14.165-20.979h60.962v30.744c0,21.505-13.897,42.14-53.708,42.14v-.011Z"/><path class="f" d="m201.951,133.155c-2.114,5.945-7.072,10.463-13.682,12.813v-2.736c7.758-3.005,12.19-8.982,12.19-16.59v-7.64h2.532v7.254c0,7.758,5.022,14.122,12.276,16.976v2.736c-6.278-2.2-11.182-6.868-13.317-12.813Z"/><path class="f" d="m223.724,125.718v-3.091c0-1.631.622-3.209,1.105-3.659h2.017c-.773.622-1.363,2.35-1.363,3.659h1.814v3.091h-3.573Zm5.14,0v-3.091c0-1.631.655-3.209,1.105-3.659h2.017c-.773.622-1.363,2.35-1.363,3.659h1.781v3.091h-3.541Z"/><path class="f" d="m242.052,145.614v-26.108h25.336v26.108h-25.336Zm22.986-23.823h-20.636v21.558h20.636v-21.558Zm-16.89,17.663v-13.736h13.145v13.736h-13.145Zm10.827-11.536h-8.477v9.304h8.477v-9.304Z"/><path class="f" d="m279.224,125.751h-2.017c.773-.622,1.363-2.35,1.363-3.659h-1.781v-3.091h3.541v3.091c0,1.631-.655,3.209-1.095,3.659h-.011Zm5.14,0h-2.017c.773-.622,1.363-2.35,1.363-3.659h-1.814v-3.091h3.573v3.091c0,1.631-.622,3.209-1.105,3.659h0Z"/><path class="f" d="m315.505,141.632c-1.964,1.964-4.314,3.477-6.954,4.335v-2.522c2.114-.805,4.078-2.082,5.677-3.745-1.481-2.822-2.232-6.331-2.286-10.291l-3.445.451v6.954h-5.591v3.155h6.363v2.232h-6.363v3.777h-2.286v-3.777h-6.449v-2.232h6.449v-3.155h-5.623v-14.455h1.309c-.236-1.073-.687-2.436-1.223-3.391h2.114c.451.858.858,2.082,1.191,3.391h2.414c-.204-1.073-.655-2.436-1.191-3.391h2.114c.472.858.837,2.114,1.127,3.391h2.05l1.459-3.391h2.168l-1.427,3.391h1.395v5.14l3.445-.472v-8.059h2.318v7.758l6.932-.987v2.436l-6.932.923c.032,3.391.537,6.331,1.61,8.681,1.492-2.017,2.554-4.367,2.972-6.9h2.264c-.59,3.273-1.996,6.363-4.013,8.95,1.041,1.427,2.382,2.532,4.099,3.305v2.822c-2.404-1.009-4.282-2.468-5.677-4.335l-.011.011Zm-14.841-17.277h-3.477v4.217h3.477v-4.217Zm0,6.213h-3.477v4.196h3.477v-4.196Zm5.655-6.213h-3.509l.032.032v4.196h3.477v-4.228Zm0,6.213h-3.477v4.196h3.477v-4.196Zm12.19-6.363l-1.545-4.786h2.082l1.577,4.786h-2.114Z"/><path class="f" d="m328.06,128.219v-2.618c2.2-1.341,4.046-3.713,4.754-6.632h2.318c-.858,4.099-3.573,7.372-7.082,9.25h.011Zm4.55,4.936h.569v12.813h-2.232v-10.795c-.858.858-1.814,1.61-2.887,2.146v-2.704c2.017-1.277,4.078-4.131,4.786-7.705h2.264c-.386,2.286-1.277,4.432-2.5,6.245Zm4.282,12.459h-1.899c1.105-2.618,1.363-6.16,1.363-10.409v-6.396h1.846v6.396c0,4.367-.268,7.758-1.309,10.409Zm5.355-19.927v20.281h-2.168v-20.281h-4.668v-2.168h4.668v-4.55h2.168v4.55h4.604v2.168h-4.604Zm2.318-3.123l-.837-3.595h1.749l.858,3.595h-1.781.011Zm-.451,22.599v-16.354h1.878v16.354h-1.878Zm9.518-15.764v13.446c0,1.964-1.245,3.123-3.005,3.123h-2.382v-2.318h1.932c.687,0,1.191-.504,1.191-1.191v-13.06h-3.981v-2.382h7.705v2.382h-1.459Zm-5.795-7.555v-2.35h6.836v2.35h-6.836Z"/><path class="f" d="m375.019,142.223c-3.809,2.017-8.177,3.327-13.06,3.745v-2.404c3.863-.354,7.469-1.363,10.709-2.887-2.908-2.146-5.441-4.85-7.469-7.995h2.919c1.814,2.672,4.131,4.968,6.836,6.75,3.691-2.168,6.782-5.054,9.132-8.477h-20.185v-2.35h10.323v-4.464h-12.255v-2.286h12.255v-2.854h2.532v2.854h12.223v2.286h-12.223v4.464h10.291v2.232c-2.404,4.013-5.677,7.437-9.636,9.99,3.423,1.76,7.372,2.736,11.568,2.736v2.404c-5.022,0-9.787-1.341-13.95-3.745h-.011Z"/><path class="f" d="m402.018,135.269v7.673c0,1.631-1.191,3.037-3.091,3.037h-2.468v-2.318h1.964c.655,0,1.245-.537,1.245-1.159v-6.514c-1.245.354-2.554.655-3.809.891v-2.414c1.159-.182,2.5-.451,3.809-.837v-8.241h-3.809v-2.264h3.809v-4.164h2.35v4.164h3.209v2.264h-3.209v7.49c1.159-.386,2.264-.837,3.209-1.277v2.436c-.977.419-2.082.837-3.209,1.223v.011Zm14.004,9.014c-1.781.923-4.013,1.513-6.567,1.695v-2.017c1.728-.086,3.209-.386,4.518-.858-1.513-1.041-2.736-2.318-3.541-3.777-1.631,3.509-3.895,5.623-5.827,6.664v-2.736c2.017-1.245,4.582-4.131,5.505-10.194h-3.809v-2.05h4.046c.064-.773.086-1.545.118-2.404h-4.164v-2.05h2.35c-.333-1.245-.923-2.554-1.492-3.305h2.2c.59.805,1.127,2.146,1.459,3.305h3.305c-.236-1.191-.687-2.468-1.245-3.305h2.114c.622.858,1.009,2.114,1.277,3.305h2.736l1.459-3.777h2.286l-1.513,3.777h1.663v2.05h-10.173c-.032.837-.064,1.631-.15,2.404h10.323v2.05h-10.559c-.15.858-.322,1.663-.537,2.436h10.227v1.964c-.537,2.082-1.878,4.046-3.96,5.591,1.492.537,3.155.837,4.818.891v2.05c-2.468-.118-4.818-.719-6.868-1.695v-.011Zm-9.722-22.181v-2.114c5.505,0,12.963-.086,16.59-1.009v2.082c-4.4.955-11.214,1.041-16.59,1.041Zm4.936,15.345c-.204.504-.386,1.009-.59,1.459h1.749c.719,1.277,2.017,2.404,3.573,3.241,1.932-1.159,3.241-2.79,3.981-4.7h-8.713Z"/><path class="f" d="m431.378,134.915l-1.191-13.95h2.5l1.223,13.95h-2.533Zm4.335,10.109h-4.013v-2.436h4.013c11.536,0,16.236-4.968,16.236-14.09v-7.705h2.5v8.059c0,10.441-5.709,16.171-18.736,16.171Zm4.432-10.109l-1.127-13.95h2.468l1.223,13.95h-2.565Z"/><path class="f" d="m462.691,134.41v-2.651h24.381v2.651h-24.381Z"/><path class="f" d="m498.081,145.141h-2.736c1.395-2.468,2.232-7.018,2.232-12.791v-12.104h2.532v12.072c0,6.127-.74,10.409-2.017,12.813l-.011.011Zm11.75-.064h-5.677v-24.831h2.554v22.331h3.359c4.668,0,8.209-3.509,8.209-11.364v-6.396h2.5v6.6c0,9.164-4.314,13.65-10.946,13.65v.011Z"/></g></svg>