<?xml version="1.0" encoding="UTF-8"?><svg id="b" xmlns="http://www.w3.org/2000/svg" viewBox="0 0 618.6 171.054"><defs><style>.d{fill:#073564;stroke-width:0px;}</style></defs><g id="c"><path class="d" d="m123.48,55.459l-21.649-29.667L128.157.267l47.307-.267,23.386,25.124-25.658,30.068c-.134,0-49.713.267-49.713.267Zm-37.284,35.547l31.404-33.142-21.515-29.667-49.713.267L12.562,58.399l17.239,32.874,56.394-.267h0Zm0,4.41l-56.261.267L0,130.696l33.676,40.358,36.349-.535,37.418-40.358-21.248-34.745h0Z"/><path class="d" d="m122.01,167.178v-90.071h39.155c9.087,0,16.437,2.272,21.916,6.682h0c5.479,4.41,8.152,10.156,8.152,16.972h0c0,10.156-5.88,17.105-17.774,20.714h0c6.147.802,10.958,3.341,14.566,7.617h0c3.608,4.143,5.345,9.087,5.345,14.7h0c0,7.216-2.673,12.963-7.885,17.105h0c-5.212,4.276-12.562,6.415-22.05,6.415,0-.134-41.293-.134-41.427-.134Zm36.349-73.366h-14.433v19.511h14.433c3.207,0,5.746-.802,7.617-2.405h0c1.871-1.604,2.94-4.009,2.94-7.216h0c0-3.207-.935-5.613-2.94-7.35h0c-1.871-1.737-4.41-2.539-7.617-2.539h0Zm-14.299,36.215v20.58h16.571c2.94,0,5.479-.935,7.484-2.673h0c2.005-1.737,2.94-4.276,2.94-7.484h0c0-3.207-.935-5.746-2.806-7.617h0c-1.871-1.871-4.276-2.806-7.35-2.806-.134,0-16.838,0-16.838,0Zm64.412-53.187h54.523v16.704h-32.607v19.377h28.865v16.704h-28.732v20.981h32.607v16.704h-54.657v-90.471Zm132.032,56.929v-56.929h21.916v90.338h-21.916l-36.75-56.795v56.795h-21.783v-90.338h21.916l36.616,56.929Zm71.762-40.625h0c-2.673,0-4.945.668-6.682,2.138h0c-1.737,1.47-2.673,3.608-2.673,6.281h0c0,2.806.802,4.945,2.405,6.548h0c1.604,1.604,3.742,2.94,6.415,3.875h0c2.673.935,5.479,1.737,8.686,2.539h0c3.207.802,6.415,1.737,9.488,2.94h0c3.207,1.203,6.014,2.539,8.686,4.276h0c2.673,1.737,4.677,4.143,6.415,7.216h0c1.604,3.074,2.405,6.815,2.405,11.225h0c0,7.617-3.074,14.165-9.355,19.511h0c-6.147,5.479-14.433,8.152-24.455,8.152h0c-10.156,0-18.308-2.405-24.455-7.35h0c-6.147-4.945-9.355-11.76-9.355-20.847h23.386c.668,7.216,4.276,10.825,10.958,10.825h0c3.207,0,5.613-.802,7.484-2.539h0c1.871-1.604,2.673-3.742,2.673-6.415h0c0-2.539-.802-4.677-2.405-6.281h0c-1.604-1.604-3.742-2.94-6.415-3.875h0c-2.673-.935-5.479-1.737-8.686-2.673h0c-3.207-.802-6.415-1.871-9.488-3.074h0c-3.207-1.203-6.014-2.673-8.686-4.276h0c-2.673-1.604-4.677-4.009-6.415-7.216h0c-1.604-3.074-2.405-6.815-2.405-11.092h0c0-8.419,3.074-15.101,9.355-20.179h0c6.281-5.078,14.165-7.617,23.921-7.617h0c9.755,0,17.506,2.272,23.52,6.548h0c6.014,4.41,9.087,11.359,9.355,20.847h-23.921c-.267-3.207-1.336-5.746-3.207-7.484h0c-1.604-1.069-3.742-2.005-6.548-2.005h0Zm97.955,45.035v28.999h-21.916v-28.999l-31.271-61.072h24.856l17.373,40.625,17.239-40.625h24.856l-31.137,61.072h0Zm73.232-45.035h0c-2.673,0-4.945.668-6.682,2.138h0c-1.737,1.47-2.673,3.608-2.673,6.281h0c0,2.806.802,4.945,2.405,6.548h0c1.604,1.604,3.742,2.94,6.415,3.875h0c2.673.935,5.479,1.737,8.686,2.539h0c3.207.802,6.415,1.737,9.488,2.94h0c3.207,1.203,6.014,2.539,8.686,4.276h0c2.673,1.737,4.677,4.143,6.415,7.216h0c1.604,3.074,2.405,6.815,2.405,11.225h0c0,7.617-3.074,14.165-9.355,19.511h0c-6.147,5.479-14.433,8.152-24.455,8.152h0c-10.156,0-18.308-2.405-24.455-7.35h0c-6.147-4.945-9.355-11.76-9.355-20.847h23.386c.668,7.216,4.276,10.825,11.092,10.825h0c3.207,0,5.613-.802,7.484-2.539h0c1.871-1.604,2.673-3.742,2.673-6.415h0c0-2.539-.802-4.677-2.405-6.281h0c-1.604-1.604-3.742-2.94-6.415-3.875h0c-2.673-.935-5.479-1.737-8.686-2.673h0c-3.207-.802-6.415-1.871-9.622-3.074h0c-3.207-1.203-6.014-2.673-8.686-4.276h0c-2.673-1.604-4.677-4.009-6.415-7.216h0c-1.604-3.074-2.405-6.815-2.405-11.092h0c0-8.419,3.074-15.101,9.355-20.179h0c6.281-5.078,14.165-7.617,23.921-7.617h0c9.755,0,17.506,2.272,23.52,6.548h0c6.014,4.41,9.087,11.359,9.355,20.847h-23.787c-.401-3.207-1.336-5.746-3.207-7.484h0c-1.737-1.069-4.009-2.005-6.682-2.005h0Z"/></g></svg>