<?xml version="1.0" encoding="UTF-8"?><svg id="b" xmlns="http://www.w3.org/2000/svg" viewBox="0 0 632.544 96.195"><defs><style>.d{fill:#5b97d2;}.d,.e,.f{stroke-width:0px;}.e{fill:#fff;}.f{fill:#005794;}</style></defs><g id="c"><path class="f" d="m218.811,4.589l-9.601,51.214c-.393,1.806-2.99,1.743-3.294-.081l-7.726-51.052c-.135-.809-.835-1.402-1.655-1.402h-18.3c-.82,0-1.52.593-1.655,1.402l-7.726,51.052c-.304,1.823-2.902,1.887-3.294.081l-9.601-51.214c-.168-.771-.85-1.321-1.639-1.321h-17.686c-1.077,0-1.876,1.001-1.635,2.051l18.026,81.213c.174.763.853,1.304,1.635,1.304h23.214c.76,0,1.425-.511,1.621-1.245l6.269-26.631c.443-1.661,2.799-1.661,3.242,0l6.269,26.631c.196.734.861,1.245,1.621,1.245h23.214c.783,0,1.461-.541,1.635-1.304L239.771,5.32c.24-1.05-.558-2.051-1.635-2.051h-17.686c-.789,0-1.472.55-1.639,1.321Z"/><rect class="f" x="247.287" y="3.268" width="23.491" height="84.568" rx="1.162" ry="1.162"/><path class="f" d="m528.473,90.776h-4.642c-17.729,0-32.234-14.505-32.234-32.234V4.633c.512-.512.799-.854,1.31-1.365h20.871c.512.512.799.854,1.31,1.365v56.068c0,4.653,3.772,8.424,8.424,8.424h3.119c4.653,0,8.424-3.772,8.424-8.424V4.633c.512-.512.799-.854,1.31-1.365h20.871c.512.512.799.854,1.31,1.365v56.068c0,16.609-13.464,30.074-30.074,30.074Z"/><path class="f" d="m306.015,67.741V4.571c0-.719-.583-1.303-1.303-1.303h-20.886c-.719,0-1.303.583-1.303,1.303v81.963c0,.719.583,1.303,1.303,1.303h58.472c.719,0,1.303-.583,1.303-1.303v-16.188c0-.719-.583-1.303-1.303-1.303h-34.981c-.719,0-1.303-.583-1.303-1.303Z"/><path class="f" d="m374.14,67.741V4.571c0-.719-.583-1.303-1.303-1.303h-20.886c-.719,0-1.303.583-1.303,1.303v81.963c0,.719.583,1.303,1.303,1.303h58.472c.719,0,1.303-.583,1.303-1.303v-16.188c0-.719-.583-1.303-1.303-1.303h-34.981c-.719,0-1.303-.583-1.303-1.303Z"/><path class="f" d="m594.958,67.741V4.571c0-.719-.583-1.303-1.303-1.303h-20.886c-.719,0-1.303.583-1.303,1.303v81.963c0,.719.583,1.303,1.303,1.303h58.472c.719,0,1.303-.583,1.303-1.303v-16.188c0-.719-.583-1.303-1.303-1.303h-34.981c-.719,0-1.303-.583-1.303-1.303Z"/><path class="f" d="m484.549,20.759V4.571c0-.719-.583-1.303-1.303-1.303h-60.821c-.719,0-1.303.583-1.303,1.303v81.963c0,.719.583,1.303,1.303,1.303h20.886c.719,0,1.303-.583,1.303-1.303v-30.283c0-.719.583-1.303,1.303-1.303h25.584c.719,0,1.303-.583,1.303-1.303v-16.188c0-.719-.583-1.303-1.303-1.303h-25.584c-.719,0-1.303-.583-1.303-1.303v-11.49c0-.719.583-1.303,1.303-1.303h37.33c.719,0,1.303-.583,1.303-1.303Z"/><rect class="f" width="105.166" height="96.195"/><polygon class="e" points="9.968 79.249 44.858 67.785 44.858 5.981 9.968 17.445 9.968 79.249"/><polygon class="d" points="95.198 71.872 80.245 64.994 80.245 27.911 95.198 34.79 95.198 71.872"/><polygon class="e" points="74.264 78.75 95.198 71.872 95.198 34.79 74.264 41.668 74.264 78.75"/><polygon class="e" points="59.312 71.872 80.245 64.994 80.245 27.911 59.312 34.79 59.312 71.872"/><polygon class="d" points="69.779 79.249 44.858 67.785 44.858 5.981 69.779 17.445 69.779 79.249"/><polygon class="d" points="74.264 78.75 59.312 71.872 59.312 34.79 74.264 41.668 74.264 78.75"/><polygon class="d" points="34.889 90.712 9.968 79.249 9.968 17.445 34.889 28.908 34.889 90.712"/><polygon class="e" points="34.889 90.712 69.779 79.249 69.779 17.445 34.889 28.908 34.889 90.712"/><polygon class="f" points="48.845 39.873 39.873 42.864 39.873 34.889 48.845 31.899 48.845 39.873"/><polygon class="f" points="48.845 52.085 39.873 55.075 39.873 47.101 48.845 44.11 48.845 52.085"/><polygon class="f" points="48.845 64.296 39.873 67.287 39.873 59.312 48.845 56.321 48.845 64.296"/><polygon class="f" points="63.798 35.388 54.826 38.378 54.826 30.404 63.798 27.413 63.798 35.388"/><polygon class="f" points="63.798 47.599 54.826 50.589 54.826 42.615 63.798 39.624 63.798 47.599"/><polygon class="f" points="63.798 59.81 54.826 62.801 54.826 54.826 63.798 51.836 63.798 59.81"/></g></svg>