<?xml version="1.0" encoding="UTF-8"?><svg id="b" xmlns="http://www.w3.org/2000/svg" viewBox="0 0 599.187 111.34"><defs><style>.d{fill:#fc3;}.d,.e{stroke-width:0px;}.e{fill:#231f20;}</style></defs><g id="c"><path class="d" d="m177.142,87.099v-6.754c-4.307,5.09-12.334,8.516-19.089,8.516-15.272,0-26.333-12.824-26.333-29.27,0-15.761,11.453-28.683,27.214-28.683,7.636,0,15.173,4.502,18.013,8.713h.195v-6.853h11.943v54.331h-11.943Zm-.391-27.312c0-9.496-6.559-16.936-15.957-16.936-9.104,0-16.054,7.636-16.054,17.327,0,9.104,6.95,16.74,16.152,16.74,9.496,0,15.859-7.832,15.859-17.131Z"/><path class="e" d="m12.235,85.705c-5.191-3.041-9.27-7.138-12.235-12.294l10.888-8.083c2.497,3.258,5.228,5.846,8.195,7.769,2.965,1.925,6.556,2.885,10.771,2.885,3.433,0,6.126-.722,8.078-2.163,1.951-1.444,2.927-3.426,2.927-5.943,0-2.146-.723-3.792-2.166-4.941-1.445-1.147-4-2.536-7.668-4.162l-8.312-3.803c-5.932-2.691-10.537-5.821-13.814-9.383-3.279-3.565-4.918-7.959-4.918-13.186,0-4.434,1.112-8.335,3.336-11.702,2.225-3.365,5.287-5.957,9.191-7.78,3.902-1.822,8.272-2.734,13.112-2.734,5.931,0,11.064,1.334,15.396,4,4.332,2.668,7.707,6.239,10.127,10.709l-10.771,8.354c-3.98-5.852-8.897-8.779-14.752-8.779-2.733,0-5.016.636-6.849,1.909-1.835,1.273-2.751,3.104-2.751,5.497,0,2.005.683,3.607,2.049,4.802,1.365,1.197,3.688,2.527,6.967,3.992l8.78,3.819c6.477,2.889,11.277,6.071,14.4,9.541,3.121,3.474,4.683,7.826,4.683,13.056,0,4.682-1.171,8.779-3.512,12.292-2.342,3.512-5.562,6.206-9.659,8.079-4.097,1.873-8.722,2.809-13.873,2.809-6.556,0-12.431-1.519-17.62-4.56Z"/><path class="e" d="m117.191,35.896c3.902,4.263,5.853,9.914,5.853,16.951v36.014h-15.688v-33.807c0-3.363-.994-6.082-2.985-8.157s-4.586-3.112-7.785-3.112-5.835,1.037-7.903,3.112c-2.069,2.075-3.103,4.794-3.103,8.157v33.807h-15.805V1.054h15.805v34.655c1.951-1.951,4.292-3.472,7.024-4.566,2.731-1.092,5.697-1.639,8.898-1.639,6.556,0,11.784,2.132,15.688,6.393Z"/><path class="d" d="m217.875,30.909v57.952h-15.805V30.909h15.805Z"/><path class="e" d="m303.043,65.212h-40.625c.936,3.443,2.828,6.101,5.679,7.967,2.848,1.871,6.38,2.803,10.594,2.803,5.697,0,11.083-1.795,16.157-5.385l6.556,10.901c-6.87,5.846-14.596,8.767-23.182,8.767-6.011,0-11.434-1.33-16.273-3.988-4.84-2.658-8.625-6.313-11.356-10.966-2.734-4.655-4.098-9.796-4.098-15.427s1.327-10.77,3.981-15.425c2.653-4.653,6.302-8.308,10.946-10.968,4.643-2.658,9.776-3.988,15.396-3.988,5.307,0,10.028,1.195,14.167,3.584,4.136,2.388,7.356,5.638,9.658,9.747,2.302,4.114,3.454,8.674,3.454,13.685,0,2.82-.351,5.718-1.054,8.693Zm-35.59-18.516c-2.499,1.938-4.177,4.56-5.035,7.862h26.343c-.079-3.302-1.329-5.924-3.747-7.862-2.42-1.94-5.347-2.91-8.78-2.91-3.356,0-6.284.97-8.78,2.91Z"/><path class="e" d="m324.292,85.705c-5.191-3.041-9.27-7.138-12.235-12.294l10.888-8.083c2.498,3.258,5.227,5.846,8.194,7.769,2.967,1.925,6.557,2.885,10.772,2.885,3.434,0,6.126-.722,8.079-2.163,1.949-1.444,2.925-3.426,2.925-5.943,0-2.146-.722-3.792-2.165-4.941-1.444-1.147-4-2.536-7.668-4.162l-8.312-3.803c-5.932-2.691-10.537-5.821-13.815-9.383-3.279-3.565-4.916-7.959-4.916-13.186,0-4.434,1.111-8.335,3.335-11.702,2.224-3.365,5.286-5.957,9.192-7.78,3.902-1.822,8.27-2.734,13.112-2.734,5.93,0,11.063,1.334,15.396,4,4.331,2.668,7.706,6.239,10.126,10.709l-10.77,8.354c-3.981-5.852-8.899-8.779-14.752-8.779-2.734,0-5.017.636-6.85,1.909-1.835,1.273-2.75,3.104-2.75,5.497,0,2.005.682,3.607,2.048,4.802,1.366,1.197,3.689,2.527,6.965,3.992l8.782,3.819c6.477,2.889,11.277,6.071,14.4,9.541,3.121,3.474,4.682,7.826,4.682,13.056,0,4.682-1.17,8.779-3.512,12.292-2.34,3.512-5.56,6.206-9.657,8.079-4.099,1.873-8.723,2.809-13.874,2.809-6.557,0-12.431-1.519-17.62-4.56Z"/><path class="e" d="m382.534,16.742c-1.951-1.873-2.927-4.175-2.927-6.909,0-2.809.976-5.149,2.927-7.024,1.951-1.873,4.333-2.809,7.142-2.809s5.21.936,7.201,2.809c1.989,1.875,2.984,4.215,2.984,7.024,0,2.734-.995,5.036-2.984,6.909-1.991,1.873-4.392,2.809-7.201,2.809s-5.191-.936-7.142-2.809Zm-.701,14.167h15.804v57.952h-15.804V30.909Z"/><path class="e" d="m471.511,30.909v51.513c0,9.442-2.734,16.625-8.197,21.542-5.463,4.916-12.721,7.376-21.776,7.376-10.928,0-20.41-3.592-28.449-10.772l8.312-11.004c3.201,2.418,6.265,4.272,9.192,5.56,2.925,1.288,6.145,1.932,9.657,1.932,4.684,0,8.43-1.151,11.239-3.453,2.811-2.302,4.215-5.718,4.215-10.244v-3.161c-2.106,2.264-4.663,3.979-7.668,5.152-3.005,1.17-6.343,1.755-10.01,1.755-5.307,0-10.067-1.21-14.282-3.636-4.215-2.424-7.513-5.827-9.893-10.206-2.382-4.379-3.571-9.385-3.571-15.017,0-5.709,1.21-10.734,3.63-15.074,2.418-4.339,5.737-7.704,9.952-10.09,4.213-2.384,8.935-3.577,14.165-3.577,4.137,0,7.824.762,11.065,2.283,3.239,1.521,5.871,3.649,7.902,6.38v-7.258h14.518Zm-19.903,38.034c2.887-2.586,4.331-6.244,4.331-10.972s-1.425-8.274-4.272-10.638c-2.851-2.363-6.305-3.548-10.362-3.548-4.293,0-7.864,1.275-10.711,3.824-2.851,2.55-4.274,6.042-4.274,10.473s1.444,7.997,4.331,10.694c2.887,2.696,6.439,4.045,10.654,4.045,3.981,0,7.414-1.292,10.303-3.878Z"/><path class="e" d="m534.617,35.896c3.902,4.263,5.852,9.914,5.852,16.951v36.014h-15.688v-33.807c0-3.363-.995-6.082-2.984-8.157-1.991-2.075-4.588-3.112-7.786-3.112s-5.835,1.037-7.904,3.112c-2.069,2.075-3.102,4.794-3.102,8.157v33.807h-15.804V1.054h15.804v34.655c1.951-1.951,4.293-3.472,7.024-4.566,2.731-1.092,5.697-1.639,8.897-1.639,6.557,0,11.784,2.132,15.69,6.393Z"/><path class="e" d="m574.653,45.191v22.075c0,3.169.859,5.415,2.576,6.736,1.717,1.319,4.449,1.98,8.197,1.98.936,0,3.432-.156,7.492-.469v13.338c-3.746.943-7.376,1.414-10.888,1.414-7.336,0-13.034-1.776-17.092-5.332-4.059-3.556-6.088-8.887-6.088-16v-23.742h-9.133v-14.282h9.133v-14.636h15.804v28.918Z"/><path class="e" d="m581.859,46.246c-1.951-1.873-2.927-4.175-2.927-6.909,0-2.809.976-5.149,2.927-7.024,1.951-1.873,4.333-2.809,7.142-2.809s5.21.936,7.201,2.809c1.989,1.875,2.984,4.215,2.984,7.024,0,2.734-.995,5.036-2.984,6.909-1.991,1.873-4.392,2.809-7.201,2.809s-5.191-.936-7.142-2.809Z"/><path class="d" d="m225.718,47.651c-1.951-1.873-2.927-4.175-2.927-6.909,0-2.809.976-5.149,2.927-7.024,1.951-1.873,4.333-2.809,7.142-2.809s5.21.936,7.201,2.809c1.989,1.875,2.984,4.215,2.984,7.024,0,2.734-.995,5.036-2.984,6.909-1.991,1.873-4.392,2.809-7.201,2.809s-5.191-.936-7.142-2.809Z"/></g></svg>