<?xml version="1.0" encoding="UTF-8"?><svg id="b" xmlns="http://www.w3.org/2000/svg" xmlns:xlink="http://www.w3.org/1999/xlink" viewBox="0 0 628.096 138.093"><defs><style>.o{fill:url(#e);}.o,.p,.q,.r,.s,.t,.u,.v,.w,.x{stroke-width:0px;}.y{stroke:url(#k);stroke-dasharray:0 0 2.098 2.098;}.y,.z,.aa,.s,.ab,.ac{fill:none;}.y,.z,.aa,.ad,.ab,.ac{stroke-miterlimit:10;}.y,.z,.ac{stroke-width:.197px;}.p{fill:url(#g);}.z{stroke:url(#j);}.q{fill:url(#i);}.aa{stroke-dasharray:0 0 2.115 2.115;}.aa,.ab{stroke:#fff;stroke-width:.197px;}.t{fill:url(#h);}.u{fill:#fff;}.ad{stroke:#000;stroke-width:1.687px;}.v{fill:url(#d);}.ae{clip-path:url(#n);}.w{fill:url(#f);}.ac{stroke:url(#l);}.x{fill:url(#m);}</style><linearGradient id="d" x1="1.389" y1="22.979" x2="98.229" y2="22.979" gradientUnits="userSpaceOnUse"><stop offset="0" stop-color="#00efc8"/><stop offset="1" stop-color="#1872ea"/></linearGradient><linearGradient id="e" x1="0" y1="47.573" x2="102.915" y2="47.573" xlink:href="#d"/><linearGradient id="f" x1="36.295" y1="74.188" x2="113.183" y2="74.188" xlink:href="#d"/><linearGradient id="g" x1="89.437" y1="74.439" x2="118.122" y2="74.439" xlink:href="#d"/><linearGradient id="h" x1="158.899" y1="14.858" x2="98.29" y2="14.858" xlink:href="#d"/><linearGradient id="i" x1="150.834" y1="28.193" x2="113.247" y2="28.193" xlink:href="#d"/><linearGradient id="j" x1="31.224" y1="2.064" x2="132.452" y2="17.756" gradientUnits="userSpaceOnUse"><stop offset="0" stop-color="#1872ea"/><stop offset="1" stop-color="#00efc8"/></linearGradient><linearGradient id="k" x1="23.858" y1="49.582" x2="125.086" y2="65.273" xlink:href="#j"/><linearGradient id="l" x1="16.392" y1="97.745" x2="117.62" y2="113.436" xlink:href="#j"/><linearGradient id="m" x1="151.19" y1="2.449" x2="111.088" y2="30.941" xlink:href="#d"/><clipPath id="n"><path class="s" d="m107.259,24.868c1.221,1.718,2.335,3.48,3.347,5.277,16.68-8.025,33.807-13.476,48.699-16.274-4.257-.051-28.003.045-56.332,5.65,1.511,1.68,2.945,3.461,4.286,5.347Z"/></clipPath></defs><g id="c"><path class="r" d="m459.602,115.136V40.332h13.402v74.804h-13.402Z"/><path class="r" d="m480.864,88.265c0-15.791,12.732-29.312,29.214-29.312,16.581,0,29.016,13.324,29.016,29.115,0,16.383-12.238,29.313-29.016,29.313-16.087,0-29.214-13.325-29.214-29.116Zm45.104.099c0-8.982-6.711-17.37-15.989-17.37-8.784,0-15.989,8.092-15.989,17.271s6.711,17.075,16.087,17.075c9.277,0,15.89-7.897,15.89-16.976Z"/><path class="r" d="m614.694,52.864v-12.293h13.402v12.293h-13.402Zm-.007,62.272v-54.631h13.402v54.631h-13.402Z"/><path class="r" d="m179.026,88.556c15.653-6.913,25.418-18.264,29.298-34.062h-60.626v-14.063h78.711c0,5.57-.881,11.547-2.644,17.926-1.763,6.38-4.09,11.97-6.98,16.762-6.628,11.143-16.359,19.461-29.192,24.962"/><path class="r" d="m166.578,72.079c6.323,1.958,11.839,4.455,16.54,7.491,10.935,6.967,18.95,16.948,24.054,29.944l-11.784,8.209c-6.43-15.857-17.476-25.966-33.147-30.329l4.336-15.315Z"/><path class="r" d="m253.994,55.952c0,17.56-2.679,31.415-8.037,41.569-4.301,8.179-11.001,14.91-20.097,20.202v-17.242c4.23-4.157,7.333-8.884,9.307-14.173,2.608-7.19,3.915-16.921,3.915-29.192v-16.685h14.912v15.52Zm58.665,4.444c-1.618,34.043-17.507,52.163-47.664,54.364V40.332h13.494v57.148c6.341-2.07,11.293-6.633,14.852-13.688,3.236-6.341,5.146-14.137,5.727-23.396h13.591Z"/><path class="ad" d="m325.545,83.955l16.922-.173h.692c7.184,0,10.129.866,12.813,3.809,2.38,2.553,3.679,6.103,3.679,9.997,0,4.762-2.207,9.307-5.757,11.904-3.245,2.38-7.747,3.289-16.144,3.289h-2.881v-6.362h2.881c5.152,0,8.915-.736,11.211-2.121,1.904-1.212,3.16-3.852,3.16-6.752,0-2.165-.909-4.501-2.207-5.671-.78-.692-1.733-1.168-2.814-1.341-.173,0-4.328-.217-4.718-.173l-16.835.173v-6.579Z"/><path class="r" d="m399.474,60.505l-.249,16.195c6.978-.498,10.091-.622,18.437-.686v10.528c-10.962,0-21.99.5-27.345,1.247-6.477.81-10.901,4.672-10.901,9.593,0,3.362,1.93,5.731,5.233,6.477,1.62.373,6.165.622,11.772.622,3.237,0,10.03-.31,21.365-.934v11.025c-9.217.312-14.263.437-20.867.437-11.835,0-16.319-.561-20.491-2.491-5.734-2.679-9.095-8.161-9.095-14.763,0-5.482,2.367-10.464,6.665-14.077,3.24-2.742,6.417-4.05,13.889-5.543l-.559-17.63h12.145Z"/><path class="r" d="m441.878,102.843v12.293h-13.402v-12.293h13.402Zm.007-42.338v34.696h-13.402v-34.696h13.402Z"/><path class="r" d="m592.258,67.419h.198m12.787,20.85v18.303c0,19.924-13.877,31.521-30.034,31.521-12.291,0-23.294-7.038-27.655-18.239h15.066c3.668,4.362,8.029,6.145,13.58,6.145,9.119,0,16.157-6.74,16.851-17.148l-.198-.198"/><path class="r" d="m575.602,58.628c-16.37,0-29.641,13.271-29.641,29.641s13.271,29.641,29.641,29.641,29.641-13.271,29.641-29.641-13.271-29.641-29.641-29.641Zm0,46.347c-9.227,0-16.707-7.48-16.707-16.707s7.48-16.707,16.707-16.707,16.707,7.48,16.707,16.707-7.48,16.707-16.707,16.707Z"/><path class="u" d="m159.305,11.246c-2.855.835-5.683,1.795-8.471,2.87,3.979-1.432,6.959-2.363,8.471-2.87Z"/><path class="u" d="m98.555,15.067c.68-.062,34.461-1.649,34.461-1.649l11.496-.211,14.387.664s-12.166,4.16-17.178,6.608c-7.272,3.551-19.195,12.092-19.195,12.092,0,0-7.908,7.217-8.16,7.526-3.482-7.066-12.633-20.554-15.812-25.029Z"/><path class="v" d="m67.064,19.506c10.531-2.113,21.04-3.612,31.165-4.636C78.111-2.993,47.645-5.319,24.777,10.929,12.455,19.683,4.503,32.296,1.389,45.958c15.411-12.117,43.233-21.949,65.675-26.452Z"/><path class="o" d="m76.242,26.315c9.035-2.871,18.066-5.082,26.673-6.785-.87-.967-1.766-1.9-2.687-2.798C61.363,22.852,23.774,37.602,0,62.562c.307,5.345,1.341,10.68,3.129,15.851,15.67-24.606,44.855-43.119,73.113-52.097Z"/><path class="w" d="m113.183,35.444c-.785-1.791-1.662-3.557-2.638-5.289-34.913,16.797-67.865,44.875-74.25,83.533,11.001,4.567,23.233,5.744,34.996,3.254-4.1-39.969,18.455-65.69,41.892-81.497Z"/><path class="p" d="m90.365,109.219c.973-.61,1.936-1.246,2.884-1.919,21.951-15.596,30.039-43.433,21.59-67.64-17.985,17.621-28.724,41.872-24.474,69.56Z"/><path class="t" d="m98.29,14.859c.679.603,1.345,1.225,1.999,1.863,19.757-3.111,39.842-3.995,58.61-2.852-14.723-1.187-36.575-1.444-60.609.988Z"/><path class="q" d="m114.902,39.646c10.14-9.934,22.579-17.761,35.932-22.906-9.124,3.282-23.513,9.2-37.587,18.692.609,1.39,1.16,2.796,1.655,4.214Z"/><path class="z" d="m132.446,17.564c-.34.073-.682.147-1.024.223"/><path class="y" d="m129.377,18.249C87.669,27.909,32.916,54.794,17.125,96.299"/><path class="ac" d="m16.759,97.282c-.119.328-.236.656-.35.985"/><path class="x" d="m107.259,24.868c1.221,1.718,2.335,3.48,3.347,5.277,16.68-8.025,33.807-13.476,48.699-16.274-4.257-.051-28.003.045-56.332,5.65,1.511,1.68,2.945,3.461,4.286,5.347Z"/><g class="ae"><path class="ab" d="m162.646,13.928c-.348.008-.697.017-1.048.027"/><path class="aa" d="m159.486,14.035c-48.449,2.204-122.929,30.901-142.359,82.253"/><path class="ab" d="m16.759,97.281c-.119.328-.236.657-.35.987"/></g></g></svg>