<?xml version="1.0" encoding="UTF-8"?><svg id="b" xmlns="http://www.w3.org/2000/svg" viewBox="0 0 605.874 116.452"><defs><style>.d{fill:#fff;}.d,.e{stroke-width:0px;}.e{fill:#e8869f;}</style></defs><g id="c"><path class="d" d="m120.534,49.303c-.062-2.598-1.334-4.935-3.32-6.411.738-2.361.394-4.998-1.083-7.136-5.393-7.809-15.151-12.324-26.007-12.589-.68-.017-1.35-.074-2.038-.058-2.672-8.968-8.172-16.346-15.241-20.402-1.731-.993-3.553-1.794-5.454-2.362-.622-.185-1.252-.294-1.879-.331-1.88-.11-3.729.431-5.242,1.505C58.758.445,56.909-.096,55.028.014c-.627.036-1.257.145-1.879.331-1.901.568-3.723,1.369-5.454,2.362-7.069,4.056-12.568,11.434-15.241,20.402-.688-.017-1.358.04-2.038.058-10.857.265-20.614,4.78-26.007,12.589-1.477,2.138-1.821,4.776-1.083,7.136C1.341,44.367.069,46.704.007,49.303c-.241,10.083,5.665,20.102,15.257,26.716-2.213,6.281-2.741,12.733-1.693,18.623.785,4.416,2.43,8.525,5.053,11.959,1.577,2.065,3.979,3.208,6.452,3.236.791,2.342,2.619,4.273,5.068,5.135.016.005.032.008.048.013,2.782.974,5.743,1.467,8.825,1.467l21.254-.031,21.254.031c3.082,0,6.043-.493,8.825-1.467.016-.005.032-.008.047-.013,2.449-.862,4.277-2.793,5.068-5.135,2.473-.028,4.875-1.171,6.452-3.236,2.622-3.435,4.267-7.544,5.053-11.959,1.048-5.89.52-12.342-1.693-18.623,9.591-6.614,15.498-16.634,15.257-26.716Zm-57.318,33.757c-.06-.066-.118-.134-.182-.196.089-.018.169-.054.257-.074.098.1.179.214.266.323-.112-.022-.228-.032-.341-.052Zm-5.965-.271c.088.02.169.057.257.074-.065.062-.122.13-.182.196-.113.02-.229.03-.341.052.088-.109.169-.223.266-.323Z"/><path class="e" d="m112.306,49.499l-9.324-1.982,6.378-7.083c-5.157-7.466-16.306-10.867-27.871-8.242-1.077-11.81-7.756-21.362-16.452-23.961l-4.764,8.254-4.767-8.254c-8.696,2.598-15.372,12.151-16.452,23.963-11.565-2.624-22.714.774-27.871,8.24l6.378,7.083-9.324,1.982c-.216,9.073,6.806,18.376,17.705,23.051-6.07,10.19-6.284,21.842-.774,29.054l8.706-3.875-.995,9.479c2.344.825,4.877,1.133,7.476.971V41.718c0-1.634,1.336-2.97,2.968-2.97h33.898c1.632,0,2.97,1.336,2.97,2.97v66.461c2.599.162,5.129-.146,7.476-.971l-.997-9.479,8.708,3.878c5.507-7.215,5.293-18.867-.776-29.057,10.9-4.675,17.922-13.978,17.705-23.051"/><rect class="e" x="67.301" y="48.119" width="4.635" height="4.635" rx="1.484" ry="1.484"/><rect class="e" x="67.301" y="64.674" width="4.635" height="4.635" rx="1.484" ry="1.484"/><rect class="e" x="57.954" y="48.119" width="4.635" height="4.635" rx="1.484" ry="1.484"/><rect class="e" x="57.954" y="59.156" width="4.635" height="4.635" rx="1.484" ry="1.484"/><rect class="e" x="57.954" y="70.193" width="4.635" height="4.635" rx="1.484" ry="1.484"/><rect class="e" x="48.606" y="70.193" width="4.635" height="4.635" rx="1.484" ry="1.484"/><rect class="e" x="48.606" y="53.637" width="4.635" height="4.635" rx="1.484" ry="1.484"/><path class="e" d="m60.271,89.743c2.208,0,3.998-1.79,3.998-3.998s-1.79-4-3.998-4-3.998,1.79-3.998,4,1.79,3.998,3.998,3.998"/><path class="e" d="m60.271,91.018c-4.835,0-8.755,3.92-8.755,8.755,0,2.168.792,3.527,2.098,4.372v.882c0,1.108.901,2.008,2.008,2.008h9.298c1.105,0,2.006-.901,2.006-2.008v-.882c1.308-.844,2.1-2.203,2.1-4.372,0-4.835-3.92-8.755-8.755-8.755m5.609,14.008c0,.529-.43.962-.96.962h-9.298c-.529,0-.959-.433-.959-.962v-5.178c0-.531.43-.962.959-.962h9.298c.529,0,.96.43.96.962v5.178Z"/><path class="e" d="m494.391,26.46h-22.985c-1.077,0-1.86.879-1.86,1.86v64.752c0,.976.783,1.858,1.86,1.858h8.997c.978,0,1.858-.882,1.858-1.858v-22.987h12.228c11.932,0,21.811-9.879,21.811-22.009,0-11.833-9.879-21.616-21.91-21.616Zm-.783,31.693h-11.346v-19.662h11.346c5.477,0,10.075,4.108,10.075,9.489,0,5.771-4.598,10.173-10.075,10.173Z"/><path class="e" d="m427.695,60.11c4.595-2.152,10.759-8.021,10.759-15.554,0-10.27-8.999-18.093-20.637-18.093h-22.399c-1.074,0-1.857.88-1.857,1.858v64.749c0,.978.783,1.86,1.857,1.86h23.672c11.932,0,21.322-7.923,21.322-18.879,0-9-7.533-14.279-12.715-15.942Zm-21.52-22.009h10.467c4.987,0,8.411,3.424,8.411,8.313s-3.424,8.804-8.411,8.804h-10.467v-17.117Zm11.836,45.287h-11.836v-17.411h10.663c5.086,0,9.978,3.619,9.978,8.511,0,5.084-3.916,8.901-8.804,8.901Z"/><path class="e" d="m571.639,26.46c-19.018,0-34.136,15.311-34.136,34.329s15.118,34.141,34.136,34.141,34.235-15.121,34.235-34.141-15.215-34.329-34.235-34.329m14.573,40.295c2.568,4.311,2.657,9.242.327,12.292l-3.683-1.639.421,4.009c-3.621,1.275-8.282-.336-11.589-4.111-3.306,3.774-7.967,5.385-11.591,4.111l.423-4.009-3.685,1.639c-2.331-3.05-2.241-7.981.327-12.292-4.609-1.978-7.582-5.914-7.49-9.752l3.944-.84-2.697-2.996c2.182-3.158,6.9-4.597,11.793-3.487.456-4.995,3.281-9.037,6.958-10.138l2.018,3.494,2.015-3.494c3.68,1.101,6.505,5.143,6.961,10.138,4.894-1.11,9.609.329,11.791,3.487l-2.697,2.996,3.944.84c.092,3.838-2.878,7.774-7.49,9.752"/><path class="e" d="m164.1,57.554c-5.383-1.76-6.403-3.244-6.403-5.367,0-1.573,1.247-4.234,5.92-4.234,2.967,0,5.661,1.787,5.861,1.918,1.298.781,2.733.485,3.661-.75l.188-.305c.048-.096.122-.214.278-.434.795-1.255.514-2.757-.733-3.69-.161-.113-3.998-2.754-9.209-2.754-8.894,0-12.123,6.158-12.123,10.296,0,6.884,4.91,9.188,10.405,11.13,5.856,1.983,7.735,3.459,7.735,6.072,0,2.282-2.747,4.282-5.877,4.282-3.53,0-6.288-2.152-7.358-3.12-.958-.832-2.572-1.076-3.945.499l-.439.586c-.719.991-.971,2.483.404,3.631,1.114,1.025,5.22,4.373,11.292,4.373,6.736,0,12.217-4.64,12.217-10.343,0-7.12-5.854-9.723-11.875-11.789Z"/><path class="e" d="m201.448,43.137c-.216-.431-.88-1.433-2.538-1.433-.992,0-1.915.563-2.391,1.518l-14.477,32.723c-.305.804-.227,1.634.216,2.277.436.633,1.157.997,1.98.997h1.311c1.027,0,1.989-.603,2.492-1.625l3.227-7.422h15.29l3.316,7.528c.466.923,1.426,1.519,2.441,1.519h1.219c1.167,0,1.78-.611,2.042-.975.26-.362.641-1.132.211-2.391l-14.339-32.716Zm-7.606,21.207l5.146-11.918,5.057,11.918h-10.203Z"/><path class="e" d="m234.024,60.365l14.815-13.753c.73-.735.953-1.81.565-2.737-.377-.906-1.245-1.469-2.267-1.469h-1.311c-.691,0-1.385.063-2.301.865l-12.573,11.724v-9.884c0-1.516-1.187-2.704-2.703-2.704h-.843c-1.516,0-2.705,1.188-2.705,2.704v31.498c0,1.487,1.123,2.609,2.611,2.609h.937c1.566,0,2.703-1.098,2.703-2.609v-10.691l12.619,12.248c.739.737,1.47,1.052,2.441,1.052h1.502c1.118,0,2.071-.644,2.43-1.641.344-.965.051-2.047-.627-2.6l-15.292-14.611Z"/><path class="e" d="m284.772,42.408h-.935c-1.539,0-2.657,1.098-2.657,2.609v20.062c0,5.135-3.19,8.452-8.125,8.452-4.878,0-8.031-3.336-8.031-8.499v-20.015c0-1.439-1.171-2.609-2.609-2.609h-.985c-1.438,0-2.609,1.17-2.609,2.609v20.249c0,8.491,5.854,14.422,14.234,14.422,8.435,0,14.326-5.931,14.326-14.422v-20.249c0-1.439-1.171-2.609-2.609-2.609Z"/><path class="e" d="m364.635,75.853l-14.339-32.716c-.216-.431-.88-1.433-2.538-1.433-.994,0-1.918.563-2.393,1.518l-14.482,32.733c-.301.804-.218,1.632.225,2.271.439.63,1.157.992,1.977.992h1.311c1.015,0,1.975-.596,2.492-1.625l3.227-7.422h15.29l3.316,7.529c.466.922,1.424,1.518,2.439,1.518h1.219c1.169,0,1.782-.612,2.044-.976.26-.362.641-1.131.211-2.39Zm-21.945-11.509l5.146-11.919,5.057,11.919h-10.203Z"/><path class="e" d="m324.166,54.439c0-6.747-5.468-12.033-12.449-12.033h-11.625c-1.463,0-2.609,1.146-2.609,2.609v31.594c0,1.439,1.171,2.61,2.609,2.61h.845c1.541,0,2.747-1.147,2.747-2.61v-10.047s7.018-.001,7.206-.002l6.159,11.124c.485.975,1.376,1.535,2.448,1.535h1.454c.916,0,1.72-.465,2.147-1.242.448-.814.397-1.837-.078-2.584l-5.714-10.134c4.184-2.081,6.86-6.182,6.86-10.82Zm-20.434-5.876h7.843c3.498,0,6.343,2.635,6.343,5.876,0,3.452-2.765,6.155-6.295,6.155h-7.891v-12.03Z"/></g></svg>