<?xml version="1.0" encoding="UTF-8"?><svg id="b" xmlns="http://www.w3.org/2000/svg" viewBox="0 0 601.853 167.923"><defs><style>.d,.e{stroke:#000;stroke-width:1.046px;}.f{fill:#007554;stroke-width:0px;}.e{stroke-miterlimit:10;}</style></defs><g id="c"><path class="f" d="m120.527.483c-6.432-2.415-12.25,4.716-8.554,10.508,15.046,23.576,30.949,49.931,33.442,57.316,1.511,4.477,2.133,9.435,2.177,14.182.065,7.075-3.252,12.867-8.833,17.265-5.831,4.594-12.477,6.963-19.921,6.988-.896.003-1.788-.159-2.637-.448-4.113-1.397-7.533-3.656-9.631-7.618-2.811-5.311-1.174-11.159,3.863-13.542.732,2.04,1.402,4.107,2.222,6.113.487,1.193,1.238,2.582,2.817,1.702,1.393-.776,1.282-2.136.511-3.476-.465-.808-.857-1.685-1.118-2.579-1.081-3.708.537-6.492,4.644-8.087.46-.179.939-.308,1.419-.423,1.706-.409,3.224-.735,3.725,1.929.231,1.228,1.466,2.386,2.497,3.287.032.028.071.054.118.08,1.197.661,2.568-.611,2.132-1.907-.079-.233-.141-.449-.17-.631-.032-.201-.409-.329-.588-.526-2.188-2.394-1.772-4.775,1.351-6.552,2.699-1.536,6.178-1.126,8.331,1.112.817.849,1.688,1.224,2.743.246,1.203-1.114.715-2.114-.231-3.11-3.95-4.16-11.444-3.529-15.582,1.237-.502.579-1.479.964-2.271,1.035-3.852.342-7.066,1.92-9.813,4.597-1.03,1.004-2.177,1.888-3.567,3.08-2.834-6.172-13.811-25.342-25.446-41.609-6.623-9.259-14.17-18.984-20.676-27.114-5.805-7.253-16.201-8.904-23.926-3.745-.22.147-.439.295-.658.443C-1.115,37.468-12.037,92.336,14.481,132.825c10.788,16.472,26.087,28.193,43.195,34.615,6.433,2.415,12.25-4.716,8.554-10.508-15.046-23.576-30.949-49.931-33.442-57.316-1.511-4.477-2.133-9.435-2.177-14.182-.065-7.075,3.252-12.867,8.833-17.265,5.831-4.594,12.477-6.963,19.921-6.988.896-.003,1.788.159,2.637.448,4.113,1.397,7.533,3.656,9.631,7.618,2.811,5.311,1.174,11.159-3.863,13.542-.732-2.039-1.402-4.107-2.222-6.113-.487-1.193-1.238-2.582-2.817-1.702-1.393.777-1.282,2.136-.51,3.476.465.808.857,1.685,1.118,2.579,1.081,3.709-.538,6.493-4.647,8.088-.459.178-.937.307-1.416.422-1.706.409-3.224.735-3.725-1.929-.231-1.228-1.466-2.386-2.497-3.287-.032-.028-.071-.054-.118-.08-1.197-.661-2.568.611-2.132,1.907.079.233.141.449.17.631.032.201.409.329.588.526,2.188,2.394,1.772,4.775-1.351,6.552-2.699,1.536-6.178,1.126-8.331-1.112-.817-.849-1.688-1.224-2.743-.246-1.203,1.114-.715,2.114.231,3.11,3.95,4.16,11.444,3.529,15.582-1.237.502-.579,1.479-.964,2.271-1.035,3.852-.342,7.066-1.92,9.813-4.597,1.03-1.004,2.177-1.888,3.567-3.08,2.834,6.172,13.811,25.342,25.446,41.609,6.623,9.259,14.17,18.984,20.676,27.114,5.805,7.253,16.201,8.904,23.926,3.744.22-.147.439-.295.658-.444,40.012-27.232,50.933-82.101,24.415-122.589C152.934,18.626,137.635,6.905,120.527.483Z"/><path class="f" d="m474.746,136.026h-16.334c-1.68,0-3.045-1.362-3.045-3.045s1.364-3.045,3.045-3.045h16.334c1.68,0,3.045,1.362,3.045,3.045s-1.364,3.045-3.045,3.045Z"/><path class="f" d="m344.05,158.115c-.947,0-1.867-.444-2.452-1.24l-10.833-14.712v12.564c0,1.682-1.364,3.045-3.045,3.045s-3.045-1.362-3.045-3.045v-21.833c0-1.316.846-2.481,2.093-2.893,1.244-.407,2.62.027,3.403,1.088l10.833,14.712v-12.736c0-1.682,1.364-3.045,3.045-3.045s3.045,1.362,3.045,3.045v22.004c0,1.316-.846,2.481-2.093,2.893-.312.101-.635.152-.951.152Z"/><path class="f" d="m370.095,157.944h-15.114c-1.68,0-3.045-1.362-3.045-3.045v-21.833c0-1.682,1.364-3.045,3.045-3.045h15.114c1.68,0,3.045,1.362,3.045,3.045s-1.364,3.045-3.045,3.045h-12.069v15.743h12.069c1.68,0,3.045,1.362,3.045,3.045s-1.364,3.045-3.045,3.045Z"/><path class="f" d="m367.659,146.943h-11.808c-1.68,0-3.045-1.362-3.045-3.045s1.364-3.045,3.045-3.045h11.808c1.68,0,3.045,1.362,3.045,3.045s-1.364,3.045-3.045,3.045Z"/><path class="f" d="m498.584,157.944h-15.114c-1.68,0-3.045-1.362-3.045-3.045v-21.833c0-1.682,1.364-3.045,3.045-3.045h15.114c1.68,0,3.045,1.362,3.045,3.045s-1.364,3.045-3.045,3.045h-12.069v15.743h12.069c1.68,0,3.045,1.362,3.045,3.045s-1.364,3.045-3.045,3.045Z"/><path class="f" d="m496.148,146.943h-11.812c-1.68,0-3.045-1.362-3.045-3.045s1.364-3.045,3.045-3.045h11.812c1.68,0,3.045,1.362,3.045,3.045s-1.364,3.045-3.045,3.045Z"/><path class="f" d="m394.873,157.944h-5.193c-7.699,0-13.964-6.263-13.964-13.96s6.265-13.962,13.964-13.962h5.193c1.68,0,3.045,1.362,3.045,3.045s-1.364,3.045-3.045,3.045h-5.193c-4.343,0-7.875,3.532-7.875,7.873s3.532,7.871,7.875,7.871h5.193c1.68,0,3.045,1.362,3.045,3.045s-1.364,3.045-3.045,3.045Z"/><path class="f" d="m411.971,157.858c-7.652,0-13.878-6.224-13.878-13.874s6.226-13.876,13.878-13.876,13.874,6.226,13.874,13.876-6.226,13.874-13.874,13.874Zm0-21.661c-4.296,0-7.789,3.493-7.789,7.787s3.493,7.785,7.789,7.785,7.785-3.493,7.785-7.785-3.493-7.787-7.785-7.787Z"/><path class="f" d="m466.579,158.03c-1.68,0-3.045-1.362-3.045-3.045v-21.833c0-1.682,1.364-3.045,3.045-3.045s3.045,1.362,3.045,3.045v21.833c0,1.682-1.364,3.045-3.045,3.045Z"/><path class="f" d="m445.282,145.672h-9.742c-1.68,0-3.045-1.362-3.045-3.045s1.364-3.045,3.045-3.045h9.742c1.68,0,3.045,1.362,3.045,3.045s-1.364,3.045-3.045,3.045Z"/><path class="d" d="m305.081,74.29c1.476,1.796,2.791,3.528,3.946,5.195.897,1.284,1.234,2.694,1.009,4.234-.227,1.538-.949,2.823-2.164,3.848h-.097c-1.155.899-2.44,1.25-3.849,1.058-1.412-.192-2.567-.897-3.464-2.115-.064-.064-.161-.159-.288-.289-.13-.127-.191-.224-.191-.288-.258-.321-.579-.289-.964.095-4.234,5.452-9.908,8.179-17.027,8.179-5.452,0-9.911-1.54-13.375-4.619-3.464-3.078-5.195-7.086-5.195-12.026,0-4.873,1.697-8.818,5.098-11.834,3.401-3.014,7.889-4.522,13.472-4.522,3.91,0,7.437.77,10.58,2.309.449.192.676,0,.676-.577v-1.443c0-8.016-.915-13.598-2.743-16.74-1.828-3.141-4.761-4.714-8.804-4.714-3.27,0-6.701,1.074-10.292,3.223-3.594,2.149-8.435,6.366-14.529,12.652-.385.383-.576.865-.576,1.443.064,4.363.127,10.406.191,18.135.064,7.73.097,13.037.097,15.924,0,1.474-.527,2.741-1.588,3.799-1.058,1.059-2.325,1.588-3.801,1.588h-.961c-1.54,0-2.837-.546-3.898-1.635-1.058-1.093-1.585-2.375-1.585-3.849,0-2.372-.018-5.899-.048-10.583-.033-4.681-.082-8.209-.145-10.582,0-.129-.064-.224-.191-.289-.13-.062-.258-.062-.385,0-1.027,1.155-2.552,2.92-4.57,5.292-2.022,2.375-3.416,3.978-4.185,4.811-.964,1.153-2.197,1.779-3.704,1.876-1.509.095-2.806-.368-3.898-1.396l-.867-.77c-1.091-1.024-1.682-2.276-1.779-3.752-.097-1.474.336-2.79,1.3-3.945,7.953-9.107,13.757-15.586,17.412-19.435.385-.383.579-.865.579-1.443,0-.897-.018-2.228-.048-3.993-.033-1.762-.048-3.126-.048-4.088,0-.577-.258-.802-.77-.673-4.425.514-8.465.865-12.123,1.058-1.476.065-2.758-.433-3.846-1.491-1.091-1.058-1.67-2.325-1.734-3.801v-.385c-.064-1.474.449-2.756,1.54-3.848,1.091-1.09,2.373-1.667,3.849-1.732,4.619-.256,8.562-.577,11.832-.962h.291c.576,0,.864-.288.864-.865,0-.833-.033-2.132-.094-3.898-.067-1.762-.097-3.093-.097-3.992,0-1.474.527-2.758,1.588-3.849,1.058-1.09,2.322-1.635,3.801-1.635h.961c1.54,0,2.852.529,3.946,1.587,1.088,1.059,1.634,2.358,1.634,3.898,0,1.988.015,4.892.048,8.706.03,3.817.079,6.656.145,8.515,0,.129.079.241.239.336.161.097.273.082.336-.047,5.389-4.746,9.989-7.953,13.805-9.621,3.816-1.667,7.81-2.502,11.978-2.502,7.568,0,13.357,2.549,17.366,7.648,4.01,5.099,6.013,13.775,6.013,26.025,0,3.978-.352,7.73-1.058,11.256-.13.643,0,1.155.385,1.54Zm-13.663,2.308c.194-.512.064-.993-.385-1.443-2.691-2.372-5.707-3.56-9.041-3.56-2.182,0-3.898.546-5.149,1.635-1.249,1.093-1.876,2.535-1.876,4.329,0,1.861.643,3.352,1.925,4.475s2.982,1.684,5.101,1.684c4.616,0,7.759-2.373,9.426-7.121Z"/><path class="e" d="m376.132,95.455c-12.96,0-22.658-1.828-29.104-5.484-6.446-3.655-9.668-8.754-9.668-15.296,0-6.159,4.328-13.278,12.987-21.359,1.155-1.09,2.516-1.635,4.088-1.635s2.934.546,4.088,1.635l.77.674c1.091.962,1.652,2.149,1.685,3.56.03,1.411-.497,2.631-1.588,3.655-5.71,5.517-8.562,9.782-8.562,12.796,0,2.952,2.082,5.292,6.252,7.024,4.17,1.732,10.52,2.597,19.051,2.597,6.54,0,14.463-1.058,23.761-3.175,1.476-.32,2.822-.08,4.043.721,1.215.803,1.955,1.909,2.212,3.319l.191,1.155c.255,1.54-.015,2.952-.818,4.234-.803,1.284-1.94,2.085-3.416,2.405-9.556,2.117-18.215,3.175-25.974,3.175Zm17.027-70.714c1.476-.062,2.758.418,3.849,1.444,1.091,1.026,1.667,2.278,1.731,3.752v.577c.064,1.476-.418,2.79-1.443,3.945-1.027,1.155-2.276,1.764-3.752,1.828-6.671.258-11.771.385-15.296.385-9.365,0-18.442-.482-27.228-1.443-1.54-.129-2.806-.802-3.801-2.022-.994-1.217-1.427-2.597-1.297-4.137l.097-.577c.061-1.474.673-2.676,1.828-3.607,1.155-.929,2.467-1.331,3.943-1.203,9.171.962,17.991,1.443,26.459,1.443,4.167,0,9.141-.127,14.911-.385Z"/><path class="d" d="m444.921,89.394c-4.876,0-9.301-2.581-13.278-7.744-3.976-5.163-5.965-11.464-5.965-18.906,0-11.608,4.007-21.021,12.026-28.238,8.016-7.215,18.697-10.823,32.038-10.823,11.096,0,20.155,3.16,27.177,9.477,7.025,6.318,10.535,14.479,10.535,24.484,0,8.789-2.246,16.26-6.734,22.417-4.489,6.157-10.808,10.52-18.951,13.084-1.476.449-2.873.289-4.185-.48-1.315-.77-2.231-1.891-2.743-3.367l-.191-.482c-.452-1.346-.336-2.676.336-3.992.673-1.314,1.715-2.228,3.128-2.743,5.322-2.052,9.411-5.178,12.265-9.38,2.852-4.199,4.279-9.22,4.279-15.057s-1.746-10.758-5.243-14.767c-3.494-4.008-8.162-6.525-13.996-7.553-.515-.127-.836.129-.964.77-2.564,18.344-6.398,31.814-11.496,40.408-5.101,8.595-11.114,12.891-18.039,12.891Zm15.969-53.684c-7.119,1.412-12.714,4.473-16.787,9.188-4.073,4.714-6.11,10.471-6.11,17.269,0,4.234.785,7.745,2.358,10.535,1.57,2.79,3.191,4.185,4.858,4.185,1.218,0,2.5-.721,3.849-2.165,1.346-1.443,2.758-3.687,4.234-6.734,1.473-3.046,2.934-7.278,4.376-12.699,1.443-5.419,2.773-11.753,3.992-19.001.064-.192,0-.352-.191-.48-.194-.129-.385-.161-.579-.097Z"/><path class="d" d="m529.633,40.424c-1.479.065-2.761-.449-3.849-1.54-1.091-1.09-1.637-2.372-1.637-3.848v-1.155c0-1.474.53-2.758,1.588-3.849,1.058-1.09,2.325-1.635,3.801-1.635,21.934-.32,43.901-1.794,65.901-4.425,1.476-.192,2.776.177,3.898,1.106,1.121.93,1.746,2.164,1.876,3.704l.097.673c.127,1.476-.273,2.823-1.203,4.042-.93,1.218-2.134,1.956-3.607,2.212-11.674,2.053-20.558,5.452-26.649,10.199-6.095,4.748-9.141,10.167-9.141,16.259,0,5.389,2.1,9.879,6.301,13.47,4.201,3.591,10.247,5.965,18.136,7.119,1.473.192,2.676.865,3.607,2.02.93,1.155,1.331,2.47,1.203,3.945l-.097,1.058c-.191,1.54-.864,2.79-2.018,3.752-1.155.962-2.503,1.347-4.043,1.155-11.481-1.284-20.412-4.649-26.792-10.102-6.383-5.451-9.574-12.282-9.574-20.492,0-5.066,1.491-9.892,4.473-14.479,2.982-4.586,7.201-8.45,12.653-11.593.061,0,.094-.064.094-.192,0-.064-.064-.097-.191-.097-12.253,1.476-23.861,2.375-34.826,2.694Z"/></g></svg>