<?xml version="1.0" encoding="UTF-8"?><svg id="b" xmlns="http://www.w3.org/2000/svg" xmlns:xlink="http://www.w3.org/1999/xlink" viewBox="0 0 598.968 194.677"><defs><style>.g{fill:#ed7827;}.g,.h,.i,.j{stroke-width:0px;}.h{fill:none;}.k{clip-path:url(#e);}.l{clip-path:url(#f);}.i{fill:#04649c;}.j{fill:#a0a0a0;}</style><clipPath id="e"><circle class="h" cx="94.15" cy="35.299" r="35.299"/></clipPath><clipPath id="f"><circle class="h" cx="94.15" cy="35.299" r="35.299"/></clipPath></defs><g id="c"><path class="i" d="m247.459,34.482h20.574c6.211,0,9.316,3.265,9.316,9.795h0c-.16,5.001-2.782,10.085-7.867,15.254h0c-4.597,6.051-7.804,11.191-9.619,15.418h0c-1.815,4.236-2.845,8.413-3.089,12.531h0c-.235,6.858.815,12.018,3.152,15.481h0c2.336,3.471,6.089,5.328,11.258,5.572h0c5.564.479,9.997-1.214,13.3-5.081h0c3.311-3.874,5.005-10.854,5.081-20.94h0c-.076-10.884-1.605-23.062-4.589-36.534h0c-1.051-5.404.563-8.631,4.841-9.682h0c4.757-.807,8.144.483,10.161,3.87h0c1.614,2.58,3.711,5.728,6.291,9.442h0c1.773,2.58,5.808,7.014,12.102,13.3h0c3.547,4.202,3.706,8.56.479,13.073h0c-4.11,4.194-7.82,4.354-11.132.479h0c-.403-.235-1.492-1.887-3.265-4.954h0c.563,2.336,1.025,4.677,1.387,7.022h0c.361,2.336.542,4.551.542,6.644h0c0,3.471-.483,7.585-1.45,12.342h0c-.967,4.765-2.719,9.447-5.257,14.044h0c-2.547,4.597-6.156,8.367-10.829,11.308h0c-4.681,2.95-10.691,4.383-18.028,4.299h0c-6.135-.319-11.22-1.79-15.254-4.412h0c-4.034-2.622-7.358-5.929-9.972-9.922h0c-2.622-4.001-4.299-8.236-5.03-12.708h0c-.723-4.48-1.004-8.694-.845-12.645h0c.403-6.455,1.958-12.666,4.665-18.633h0c2.698-5.967,6.266-11.17,10.703-15.607h-7.627c-6.211,0-9.316-3.105-9.316-9.316h0c0-6.295,3.105-9.442,9.316-9.442h0Zm120.76,11.371h0c-.891-4.11-1.496-7.135-1.815-9.077h0c-1.454-5.32,1.126-8.383,7.741-9.19h0c6.135-.647,9.686,2.097,10.653,8.232h0c.723,4.11,1.366,7.131,1.929,9.064h0c4.438-.16,10.733-.601,18.885-1.324h0c5.808-.647,9.035,1.933,9.682,7.741h0c.639,6.211-1.946,9.762-7.753,10.653h0c-6.53.807-11.972,1.37-16.326,1.689h0c2.58,9.522,4.475,16.216,5.686,20.083h0c1.689,5.085-.408,8.274-6.291,9.569h0c-7.018.967-11.216-1.576-12.594-7.627h0c-2.177-8.791-3.908-15.809-5.194-21.053h0c-3.79.16-7.984.261-12.582.303h0c-4.606.042-10.094.063-16.464.063h0c-6.287,0-9.43-3.147-9.43-9.442h0c0-6.371,3.143-9.556,9.43-9.556h0c10.976.076,19.124.034,24.445-.126Zm-22.629,35.45h0c3.227-4.354,7.261-5.644,12.102-3.87h0c4.841,3.068,5.971,6.778,3.391,11.132h0c-2.101,4.194-3.152,7.703-3.152,10.527h0c0,1.857.366,3.433,1.097,4.728h0c.723,1.286,2.215,2.454,4.475,3.505h0c2.252,1.051,6.081,1.614,11.485,1.689h0c6.135.084,14.246-.441,24.331-1.576h0c6.287-.967,9.51,1.778,9.669,8.232h0c0,5.967-2.74,9.518-8.22,10.653h0c-6.371.967-15.246,1.53-26.625,1.689h0c-11.615-.244-20.507-2.845-26.676-7.804h0c-6.169-4.959-9.094-11.191-8.774-18.696h0c.328-4.757,1.177-8.829,2.547-12.216h0c1.37-3.387,2.82-6.051,4.349-7.993Zm49.86-46.695v-9.203h0c0-2.74,1.37-4.11,4.11-4.11h0c2.824,0,4.236,1.37,4.236,4.11h0v9.203h0c0,2.74-1.374,4.11-4.122,4.11h0c-2.816,0-4.223-1.37-4.223-4.11h0Zm13.061,0v-9.203h0c0-2.74,1.37-4.11,4.11-4.11h0c2.824,0,4.236,1.37,4.236,4.11h0v9.203h0c0,2.74-1.37,4.11-4.11,4.11h0c-2.824,0-4.236-1.37-4.236-4.11h0Zm21.053,17.057v-.126h0c0-5.967,2.984-8.951,8.951-8.951h9.808c.319-2.261.479-4.156.479-5.686h0c.563-5.564,3.87-8.346,9.922-8.346h0c5.732.639,8.434,3.421,8.106,8.346h0c0,1.53-.122,3.425-.366,5.686h17.435c5.967,0,8.951,2.984,8.951,8.951h0c0,6.051-2.984,9.077-8.951,9.077h-18.393c-.168,1.773-.29,3.547-.366,5.32h0c-.084,1.782-.164,3.517-.24,5.207h10.892c5.808,0,8.711,2.904,8.711,8.711h0c0,5.892-2.904,8.837-8.711,8.837h-11.258c-.563,6.858-.021,12.241,1.626,16.149h0c1.656,3.917,5.228,5.913,10.716,5.988h0c4.278-.076,7.362-.761,9.253-2.055h0c1.899-1.294,3.269-2.946,4.11-4.954h0c.849-2.017,1.273-4.118,1.273-6.303h0c0-2.496-.282-6.123-.845-10.88h0c-.487-5.572,1.933-8.64,7.262-9.203h0c5.808-.244,9.195,2.017,10.161,6.782h0c1.051,4.194,1.576,9.556,1.576,16.086h0c0,2.261-.361,5.026-1.084,8.295h0c-.731,3.261-2.265,6.505-4.601,9.732h0c-2.345,3.227-5.652,5.913-9.922,8.056h0c-4.278,2.135-10.006,3.282-17.183,3.442h0c-8.472-.084-15.048-2.16-19.73-6.228h0c-4.673-4.076-7.678-9.241-9.014-15.494h0c-1.328-6.253-1.748-12.724-1.261-19.414h-8.598c-5.808,0-8.711-2.904-8.711-8.711h0c0-5.892,2.904-8.837,8.711-8.837h8.837c0-1.689.021-3.425.063-5.207h0c.034-1.773.134-3.547.303-5.32h-8.963c-5.967,0-8.951-2.984-8.951-8.951h0Zm161.656,21.419h0c-13.792.882-23.23,2.131-28.315,3.744h0c-5.085,1.614-9.459,3.811-13.124,6.593h0c-3.673,2.782-5.551,6.392-5.635,10.829h0c.084,4.278,1.458,7.585,4.122,9.922h0c2.656,2.345,5.862,3.757,9.619,4.236h0c3.748.487,7.799.609,12.153.366h0c5.085,0,11.821-.445,20.209-1.336h0c5.732-.563,8.636,2.345,8.711,8.724h0c.16,5.883-2.421,9.148-7.741,9.795h0c-5.564.967-12.502,1.412-20.814,1.336h0c-7.741.076-14.981-.614-21.721-2.068h0c-6.732-1.446-12.476-4.833-17.233-10.161h0c-4.765-5.32-6.866-12.619-6.303-21.898h0c.487-5.085,1.597-9.379,3.328-12.884h0c1.74-3.513,4.101-6.459,7.085-8.837h0c2.984-2.378,5.929-4.496,8.837-6.354h0l-4.601-27.344h0c-.487-4.513,1.971-7.257,7.375-8.232h0c5.648-.479,8.795,1.782,9.442,6.782h0l3.505,22.995h0c7.102-2.748,17.469-4.404,31.101-4.967h0c5.085,0,7.665,3.185,7.741,9.556h0c-.076,6.051-2.656,9.119-7.741,9.203Z"/><path class="j" d="m264.903,171.429c-.895,0-1.639-.744-1.639-1.626,0-.92.744-1.664,1.639-1.664s1.639.744,1.639,1.664c0,.882-.744,1.626-1.639,1.626Zm-15.885-.807c-.819,0-1.803-.076-2.471-.176v2.206c.618-.025,1.475-.076,2.446-.076h12.695c-.353,2.383-1.488,5.9-3.253,8.131-2.055,2.622-5.131,4.803-9.266,5.862l1.664,1.891c4.312-1.462,7.236-3.795,9.417-6.593,1.954-2.534,3.114-6.568,3.656-9.165l.05-.277c.303.101.63.151.946.151,1.538,0,2.773-1.235,2.773-2.773s-1.235-2.799-2.773-2.799-2.773,1.261-2.773,2.799c0,.265.05.542.126.794-.303.025-.542.025-.769.025h-12.468Zm36.005,2.698l-1.803.618c.517,1.109,1.651,4.261,1.929,5.37l1.828-.643c-.315-1.084-1.525-4.362-1.954-5.345Zm6.845.719c-.378,3.164-1.664,6.316-3.429,8.472-2.03,2.559-5.169,4.438-8.043,5.282l1.626,1.651c2.773-1.059,5.799-2.963,8.081-5.887,1.79-2.231,2.849-4.891,3.517-7.614.101-.315.202-.719.378-1.235l-2.131-.668Zm-12.594.517l-1.828.719c.492.87,1.828,4.286,2.206,5.572l1.878-.693c-.466-1.286-1.765-4.526-2.257-5.597Zm30.975-6.001l-1.109,1.664c1.462.845,4.135,2.622,5.32,3.517l1.172-1.677c-1.072-.794-3.921-2.685-5.383-3.505Zm-3.719,17.725l1.147,2.004c2.307-.466,5.723-1.639,8.22-3.076,3.946-2.32,7.388-5.522,9.518-8.863l-1.185-2.042c-2.004,3.505-5.282,6.719-9.392,9.077-2.509,1.437-5.572,2.42-8.308,2.9Zm-.025-12.14l-1.084,1.677c1.488.769,4.185,2.509,5.396,3.404l1.147-1.74c-1.097-.769-3.996-2.547-5.459-3.341Zm42.825,11.296c.353-2.282,1.097-7.186,1.286-8.875.025-.189.101-.517.176-.769l-1.513-.719c-.227.101-.845.176-1.235.176h-7.539c-.618,0-1.362-.076-1.954-.151v2.08c.618-.025,1.261-.063,1.979-.063h7.879c-.076,1.412-.794,6.24-1.16,8.32h-8.976c-.744,0-1.462-.05-2.055-.101v2.055c.719-.05,1.286-.076,2.055-.076h13.59c.517,0,1.437.025,1.878.05v-2.004c-.517.05-1.412.076-1.954.076h-2.458Zm34.996-18.406h-1.765v10.968c0,.353-.101.454-.466.454-.378.05-1.614.05-3.026,0,.265.492.542,1.185.618,1.677,1.752,0,2.95-.025,3.694-.29.744-.303.946-.769.946-1.79v-11.018Zm-4.639,1.235h-1.715v8.245h1.715v-8.245Zm-10.829,4.488v-3.253h3.051v3.391h-3.051v-.139Zm3.051,1.778v5.307h1.727v-5.307h2.799v-1.639h-2.799v-3.391h2.307v-1.639h-11.094v1.639h2.294v3.391h-3.114v1.639h2.988c-.29,1.664-1.059,3.328-3.215,4.639.34.265.971.933,1.21,1.286,2.509-1.588,3.429-3.795,3.719-5.925h3.177Zm3.807,12.392v-3.126h7.488v-1.677h-7.488v-2.786h-1.853v2.786h-7.778v1.677h7.778v3.126h-10.338v1.74h22.251v-1.74h-10.06Zm34.328-8.875c-1.286,2.408-3.202,4.286-5.547,5.774-2.332-1.513-4.122-3.442-5.358-5.774h10.905Zm1.412-1.878l-.378.076h-5.799v-3.795h9.442v-1.815h-9.442v-3.757h-1.878v3.757h-9.392v1.815h9.392v3.795h-8.27v1.803h2.622l-.542.202c1.336,2.673,3.164,4.854,5.522,6.568-2.874,1.437-6.215,2.357-9.745,2.925.353.416.845,1.261,1.021,1.752,3.744-.719,7.337-1.828,10.413-3.542,2.799,1.689,6.24,2.799,10.224,3.429.252-.555.744-1.349,1.147-1.79-3.694-.441-6.896-1.387-9.594-2.773,2.849-1.929,5.106-4.488,6.518-7.854l-1.261-.794Zm31.567-9.14c-2.874.643-8.106,1.059-12.392,1.21.176.416.403,1.009.454,1.437,4.337-.126,9.657-.517,13.01-1.261l-1.072-1.387Zm-4.652,5.837c-.126-.807-.429-2.206-.744-3.265l-1.462.252c.265,1.084.567,2.521.643,3.366l1.563-.353Zm-7.867,6.972l-.24-1.664-2.584.819v-5.459h2.66v-1.702h-2.66v-4.954h-1.727v4.954h-3.076v1.702h3.076v6.001c-1.235.378-2.357.719-3.278.971l.303,1.778c.92-.265,1.904-.593,2.975-.933v5.988c0,.378-.126.454-.429.454-.265.025-1.261.025-2.32,0,.24.517.466,1.261.542,1.702,1.563.025,2.496-.05,3.076-.34.618-.303.857-.794.857-1.815v-6.568l2.824-.933Zm1.223-9.468c.466.996.933,2.307,1.16,3.152l1.513-.529c-.227-.769-.794-2.055-1.235-3l-1.437.378Zm9.682,11.27c-.618,1.462-1.513,2.66-2.622,3.593-1.387-.983-2.509-2.206-3.29-3.593h5.913Zm1.122-1.488l-.328.05h-6.934c.126-.542.252-1.109.315-1.651h9.669v-1.563h-9.417c.076-.668.151-1.336.202-1.967h8.497v-1.5h-3c.769-1.072,1.588-2.408,2.282-3.606l-1.74-.567c-.542,1.248-1.488,2.95-2.269,4.173h-8.8v1.5h3.24c-.05.63-.126,1.298-.189,1.967h-3.618v1.563h3.366c-.593,3.593-1.929,7.425-5.484,9.632.429.277.996.87,1.273,1.286,2.446-1.601,3.908-3.933,4.879-6.467.769,1.248,1.765,2.307,2.9,3.227-1.462.895-3.177,1.513-5.055,1.929.34.277.845.996,1.046,1.362,1.979-.492,3.807-1.21,5.396-2.294,1.664,1.084,3.618,1.853,5.799,2.32.252-.466.719-1.185,1.109-1.563-2.03-.366-3.908-.983-5.497-1.878,1.488-1.387,2.647-3.177,3.391-5.497l-1.034-.454Zm28.353-9.833c0-.92.719-1.664,1.626-1.664.895,0,1.639.744,1.639,1.664,0,.895-.744,1.639-1.639,1.639-.908,0-1.626-.744-1.626-1.639Zm-1.147,0c0,1.538,1.235,2.773,2.773,2.773,1.513,0,2.773-1.235,2.773-2.773s-1.261-2.799-2.773-2.799c-1.538,0-2.773,1.261-2.773,2.799Zm-12.859,9.808c-.87,2.08-2.257,4.69-3.82,6.745l2.105.895c1.387-1.979,2.736-4.538,3.643-6.82,1.046-2.521,1.916-6.19,2.257-7.753.101-.517.303-1.235.441-1.79l-2.194-.441c-.328,2.849-1.374,6.619-2.433,9.165Zm12.191-.933c1.046,2.647,2.181,5.988,2.799,8.522l2.206-.719c-.643-2.231-1.954-6.026-2.975-8.472-1.034-2.635-2.622-6.051-3.618-7.841l-2.004.681c1.084,1.828,2.597,5.27,3.593,7.829Zm24.117-5.875l-1.815.618c.517,1.109,1.664,4.261,1.929,5.37l1.841-.643c-.328-1.084-1.538-4.362-1.954-5.345Zm6.833.719c-.366,3.164-1.664,6.316-3.416,8.472-2.03,2.559-5.181,4.438-8.056,5.282l1.639,1.651c2.773-1.059,5.799-2.963,8.081-5.887,1.778-2.231,2.849-4.891,3.517-7.614.101-.315.189-.719.366-1.235l-2.131-.668Zm-12.582.517l-1.841.719c.492.87,1.841,4.286,2.206,5.572l1.878-.693c-.466-1.286-1.752-4.526-2.244-5.597Zm32.16-1.878c.391-.895.693-1.79.946-2.509.164-.517.416-1.16.618-1.727l-2.383-.479c-.05.719-.202,1.387-.366,1.979-.277.946-.719,2.231-1.412,3.479-.845,1.513-2.635,4.034-4.412,5.32l1.954,1.172c1.462-1.198,3.126-3.454,4.135-5.307h6.341c-.34,6.291-3.013,9.543-5.446,11.371-.542.454-1.311.87-2.004,1.147l2.105,1.437c4.261-2.736,7.035-6.871,7.438-13.956h4.185c.567,0,1.538.025,2.332.076v-2.131c-.719.101-1.715.126-2.332.126h-11.699Zm23.612,6.619c.769-.076,2.08-.126,3.442-.126h13.615c1.109,0,2.156.101,2.647.126v-2.433c-.542.05-1.437.126-2.673.126h-13.59c-1.387,0-2.698-.076-3.442-.126v2.433Zm44.956-10.186l-1.362.567c.819,1.135,1.639,2.622,2.257,3.908l1.412-.643c-.58-1.16-1.689-2.95-2.307-3.832Zm3.24-1.198l-1.387.593c.845,1.122,1.689,2.534,2.357,3.845l1.412-.643c-.618-1.135-1.715-2.925-2.383-3.795Zm-13.817.819l-1.122,1.664c1.437.845,4.135,2.622,5.333,3.543l1.16-1.715c-1.059-.769-3.908-2.673-5.37-3.492Zm-3.719,17.725l1.135,2.004c2.307-.479,5.723-1.614,8.207-3.076,3.959-2.332,7.388-5.522,9.543-8.85l-1.198-2.055c-2.004,3.492-5.27,6.745-9.392,9.102-2.496,1.412-5.597,2.395-8.295,2.874Zm-.025-12.153l-1.122,1.689c1.513.769,4.185,2.509,5.434,3.391l1.109-1.727c-1.059-.769-3.959-2.559-5.421-3.353Z"/><g id="d"><path class="i" d="m157.755,105.075c13.036,11.372,22.858,25.735,29.954,42.609,1.213,2.886,1.574,5.898.913,9.02-.93,4.391-4.041,7.607-7.751,8.09-3.631.474-7.098-1.819-9.02-5.813-2.312-4.807-4.392-9.814-7.113-14.304-13.828-22.824-32.79-36.7-56.71-41.058-37.949-6.912-74.573,15.471-90.78,55.035-2.004,4.891-5.415,7.084-9.719,6.246-4.018-.78-7.011-4.643-7.452-9.692-.234-2.687.042-5.265,1.134-7.74,15.816-35.821,40.855-57.895,75.214-65.542,18.269-4.066,36.27-1.933,53.738,5.564.353.152.698.325,1.054.467,7.731,3.643,17.145,9.947,26.538,17.117Z"/></g><g class="k"><circle class="i" cx="94.15" cy="35.299" r="34.038"/></g><g class="l"><circle class="h" cx="94.15" cy="35.299" r="35.299"/></g><path class="g" d="m86.384,161.379h-26.068c-1.235,0-2.239-1.003-2.239-2.24v-20.864c0-1.235,1.003-2.239,2.239-2.239h26.068c1.237,0,2.239,1.003,2.239,2.239v20.864c.002,1.237-1.002,2.24-2.239,2.24Zm44.486-2.24v-20.864c0-1.235-1.003-2.239-2.239-2.239h-26.068c-1.237,0-2.239,1.003-2.239,2.239v20.864c0,1.237,1.003,2.239,2.239,2.239h26.068c1.235.002,2.239-1.002,2.239-2.239Zm-42.246,33.3v-20.864c0-1.237-1.003-2.239-2.239-2.239h-26.069c-1.235,0-2.239,1.002-2.239,2.239v20.864c0,1.237,1.003,2.239,2.239,2.239h26.068c1.237,0,2.24-1.002,2.24-2.239Zm42.246,0v-20.864c0-1.237-1.003-2.239-2.239-2.239h-26.068c-1.237,0-2.239,1.003-2.239,2.239v20.864c0,1.237,1.003,2.239,2.239,2.239h26.068c1.235,0,2.239-1.002,2.239-2.239Z"/></g></svg>