<?xml version="1.0" encoding="UTF-8"?><svg id="b" xmlns="http://www.w3.org/2000/svg" viewBox="0 0 626.201 90.713"><defs><style>.d{fill:#173f80;stroke-width:0px;}</style></defs><g id="c"><path class="d" d="m477.628,30.311c4.849,3.202,7.944,7.438,9.033,13.092,2.154,11.186-5.103,21.833-16.384,23.812-1.839.323-3.728.497-5.595.51-8.08.056-16.16.026-24.24.028-1.007,0-2.013,0-3.223,0V1.406c.817-.099,1.527-.257,2.238-.259,7.516-.013,15.033-.074,22.548.023,10.626.137,17.649,6.298,19.242,16.715.554,3.625-.38,6.918-3.619,12.426Zm-26.761,25.33c5.055,0,9.927.236,14.764-.069,4.483-.283,7.565-3.681,7.766-7.803.217-4.476-2.28-8.129-6.978-8.634-5.056-.543-10.216-.123-15.552-.123v16.628Zm-.013-29.138c3.296,0,6.381.01,9.465-.009.556-.003,1.121-.079,1.667-.194,3.614-.761,5.835-3.28,5.784-6.531-.05-3.203-2.439-6.067-5.956-6.376-3.591-.316-7.232-.07-10.961-.07v13.179Z"/><path class="d" d="m592.976.357c20.848.94,34.42,16.956,33.141,36.524-1.274,19.493-16.551,32.732-36.54,31.687-21.656-1.132-33.709-17.458-32.888-35.652.937-20.773,17.243-33.278,36.287-32.56Zm19.924,34.253c.039-12.718-9.419-22.635-21.553-22.598-11.893.036-21.35,9.838-21.404,22.183-.056,12.773,9.296,22.688,21.414,22.703,12.075.015,21.505-9.74,21.543-22.288Z"/><path class="d" d="m124.402,67.761c-.19-.912-.337-1.622-.539-2.595-10.204,5.678-19.899,5.022-28.475-2.887-7.692-7.094-9.542-18.396-5.202-28.197,5.476-12.363,16.858-16.067,33.217-10.48,0-2.071,0-3.988,0-5.905-.001-4.961.052-9.922-.03-14.881-.033-1.977.527-2.935,2.718-2.804,2.623.158,5.269.142,7.894,0,2.1-.113,2.807.659,2.78,2.739-.092,7.018-.034,14.039-.033,21.059.002,13.571-.056,27.143.062,40.714.022,2.58-.724,3.476-3.335,3.288-2.983-.215-5.993-.05-9.055-.05Zm-1.004-23.089c.023,0,.046,0,.069,0,0-1.679.115-3.37-.045-5.034-.091-.95-.409-2.04-1.005-2.753-4.349-5.204-12.822-5.762-17.568-1.244-4.916,4.679-5.029,13.307-.045,17.863,3.794,3.468,8.216,4.048,13.053,2.202,4.555-1.738,6.268-4.953,5.55-9.637-.07-.456-.009-.931-.009-1.398Z"/><path class="d" d="m512.575,40.703v26.687h-12.97V1.69c.109-.081.257-.285.403-.284,9.857.055,19.764-.466,29.558.349,11.617.967,18.178,9.48,17.445,21.003-.677,10.648-8.602,17.787-19.981,17.934-4.685.061-9.372.01-14.456.01Zm.13-27.57v15.746c4.636,0,9.125.18,13.592-.05,4.563-.235,7.524-3.547,7.492-7.855-.032-4.282-3.046-7.567-7.6-7.793-4.398-.219-8.815-.047-13.483-.047Z"/><path class="d" d="m354.472,90.662c.573-1.475.877-2.416,1.294-3.306,3.408-7.278,6.794-14.566,10.288-21.802.89-1.844.904-3.367-.054-5.242-5.954-11.658-11.782-23.379-17.645-35.083-.532-1.063-1.016-2.15-1.786-3.784,4.836,0,9.192-.094,13.534.098.673.03,1.478,1.275,1.901,2.118,3.601,7.186,7.126,14.411,10.679,21.621.365.741.763,1.466,1.434,2.751,2.402-5.266,4.593-10.065,6.78-14.865,1.472-3.231,3.007-6.436,4.376-9.709.624-1.492,1.441-2.15,3.133-2.093,3.646.123,7.299.038,11.454.038-.468,1.209-.742,2.046-1.108,2.84-9.821,21.297-19.676,42.578-29.437,63.901-.874,1.909-1.937,2.656-4.032,2.559-3.428-.16-6.869-.043-10.813-.043Z"/><path class="d" d="m43.208,67.587h-12.847V21.541h12.15c.181.823.356,1.614.575,2.612.448-.2.851-.334,1.208-.545,10.55-6.246,24.11-2.957,29.358,7.559,1.652,3.309,2.395,7.309,2.596,11.044.418,7.743.164,15.521.262,23.284.021,1.695-.548,2.324-2.284,2.257-2.814-.108-5.643-.115-8.454.04-2.023.112-2.555-.67-2.532-2.585.087-7.389.043-14.779.025-22.169-.013-5.345-1.959-8.685-5.728-9.922-4.553-1.494-11.126.486-13.663,4.27-.515.768-.629,1.917-.635,2.892-.05,8.044-.031,16.089-.032,24.134,0,1,0,2.001,0,3.175Z"/><path class="d" d="m196.939,67.58h-12.031c-.188-.69-.391-1.436-.664-2.436-4.76,3.103-9.807,4.303-15.341,3.334-8.652-1.515-15.864-8.548-16.437-17.222-.616-9.308-.41-18.669-.601-28.006-.031-1.539.742-1.889,2.088-1.867,2.911.048,5.828.111,8.735-.018,1.94-.086,2.356.764,2.349,2.495-.031,7.854-.113,15.713.115,23.561.225,7.752,6.443,11.436,13.514,8.168,3.505-1.62,5.762-3.806,5.517-8.34-.42-7.739-.064-15.518-.141-23.279-.019-1.907.526-2.688,2.55-2.605,3.365.138,6.739.038,10.348.038v46.178Z"/><path class="d" d="m265.705,32.325h-12.547v-10.734h12.552c0-3.69.111-7.032-.04-10.361-.097-2.129.692-2.817,2.762-2.702,2.623.146,5.262.146,7.887.036,1.876-.079,2.507.702,2.474,2.468-.063,3.344-.018,6.689-.018,10.329h14.878v10.893h-14.493c0,7.132-.221,13.925.184,20.681.082,1.372,2.391,2.799,3.928,3.821.822.546,2.186.367,3.306.371,5.09.022,5.089.004,5.928,5.204,1.056,6.543,2.154,5.771-5.127,6.327-7.954.608-15.476-.967-19.362-8.961-1.492-3.069-1.997-6.786-2.217-10.254-.353-5.571-.095-11.18-.095-17.12Z"/><path class="d" d="m208.688,62.604c2.328-3.404,4.367-6.386,5.935-8.678,4.395,1.302,8.271,2.467,12.162,3.582.522.15,1.124.089,1.681.042,2.006-.171,4.147-.379,4.702-2.751.596-2.544-1.486-3.427-3.295-4.185-2.677-1.122-5.46-1.988-8.159-3.062-7.615-3.033-11.016-7.317-10.566-13.195.489-6.389,5.044-11.233,12.394-13.182,6.799-1.802,17.051.227,21.539,4.433-1.938,2.966-3.905,5.978-5.427,8.307-3.949-.82-7.26-1.584-10.606-2.149-.851-.144-1.97.115-2.677.603-.838.579-1.784,1.557-1.889,2.455-.081.685.918,1.844,1.71,2.216,2.366,1.111,4.899,1.865,7.306,2.897,2.402,1.03,4.922,1.951,7.06,3.403,8.224,5.585,8.06,16.637-.367,21.978-7.42,4.702-15.357,4.307-23.271,1.388-2.766-1.02-5.314-2.625-8.233-4.1Z"/><path class="d" d="m0,1.284h13.351c.077,1.354.205,2.545.203,3.735-.027,19.909-.102,39.818-.064,59.727.004,2.25-.507,3.184-2.95,3.04-3.439-.202-6.899-.051-10.54-.051V1.284Z"/><path class="d" d="m320.888,67.606h-12.648V21.673h11.819c.193.971.399,2.01.492,2.478,3.754-1.225,7.413-2.475,11.115-3.587.956-.287,2.044-.16,3.073-.183,2.4-.054,3.687.673,3.003,3.475-.526,2.156-.639,4.425-.791,6.653-.13,1.899-.901,2.265-2.842,2.339-2.882.11-5.932.563-8.547,1.699-3.252,1.414-4.897,4.121-4.76,8.085.284,8.204.086,16.424.086,24.972Z"/></g></svg>