<?xml version="1.0" encoding="UTF-8"?><svg id="b" xmlns="http://www.w3.org/2000/svg" viewBox="0 0 20.858 20.858"><defs><style>.d{fill:#fff;stroke-width:0px;}</style></defs><g id="c"><path class="d" d="m10.429,20.858C4.679,20.858,0,16.18,0,10.429S4.679,0,10.429,0s10.43,4.679,10.43,10.429-4.679,10.43-10.43,10.43Zm0-18.858C5.781,2,2,5.781,2,10.429s3.781,8.43,8.429,8.43,8.43-3.781,8.43-8.43S15.077,2,10.429,2Z"/><path class="d" d="m15.027,9.538l-6.032-3.483c-.686-.396-1.542.099-1.542.89v6.966c0,.792.857,1.286,1.542.89l6.032-3.483c.686-.396.686-1.385,0-1.781Z"/></g></svg>