<?xml version="1.0" encoding="UTF-8"?><svg id="b" xmlns="http://www.w3.org/2000/svg" xmlns:xlink="http://www.w3.org/1999/xlink" viewBox="0 0 109.29 88.233"><defs><style>.xh{clip-path:url(#d);}.xi{fill:none;}.xi,.xj{stroke-width:0px;}.xj{fill:#8d8d8d;}</style><clipPath id="d"><rect class="xi" x=".001" y=".626" width="108.834" height="87.122"/></clipPath></defs><g id="c"><g class="xh"><path id="e" class="xj" d="m102.21,14.427c0,.32-.259.579-.579.579-.32,0-.579-.259-.579-.579s.259-.579.579-.579c.32,0,.579.259.579.579h0"/><path id="f" class="xj" d="m102.21,16.083c0,.32-.259.579-.579.579-.32,0-.579-.259-.579-.579s.259-.579.579-.579c.32,0,.579.259.579.579h0"/><path id="g" class="xj" d="m102.21,17.738c0,.32-.259.579-.579.579s-.579-.259-.579-.579.259-.579.579-.579.579.259.579.579h0"/><path id="h" class="xj" d="m102.21,19.391c0,.32-.259.579-.579.579s-.579-.259-.579-.579.259-.579.579-.579.579.259.579.579h0"/><path id="i" class="xj" d="m102.21,21.043c0,.32-.259.579-.579.579s-.579-.259-.579-.579.259-.579.579-.579.579.259.579.579h0"/><path id="j" class="xj" d="m102.21,22.696c0,.32-.259.579-.579.579s-.579-.259-.579-.579.259-.579.579-.579.579.259.579.579h0"/><path id="k" class="xj" d="m103.867,14.427c0,.32-.259.579-.579.579-.32,0-.579-.259-.579-.579s.259-.579.579-.579c.32,0,.579.259.579.579h0"/><path id="l" class="xj" d="m103.867,16.083c0,.32-.259.579-.579.579-.32,0-.579-.259-.579-.579s.259-.579.579-.579c.32,0,.579.259.579.579h0"/><path id="m" class="xj" d="m103.867,17.738c0,.32-.259.579-.579.579s-.579-.259-.579-.579.259-.579.579-.579.579.259.579.579h0"/><path id="n" class="xj" d="m103.867,19.391c0,.32-.259.579-.579.579s-.579-.259-.579-.579.259-.579.579-.579.579.259.579.579h0"/><path id="o" class="xj" d="m103.867,21.043c0,.32-.259.579-.579.579s-.579-.259-.579-.579.259-.579.579-.579.579.259.579.579h0"/><path id="p" class="xj" d="m103.867,22.696c0,.32-.259.579-.579.579s-.579-.259-.579-.579.259-.579.579-.579.579.259.579.579h0"/><path id="q" class="xj" d="m103.867,24.349c0,.32-.259.579-.579.579s-.579-.259-.579-.579.259-.579.579-.579.579.259.579.579h0"/><path id="r" class="xj" d="m105.523,16.083c0,.32-.259.579-.579.579-.32,0-.579-.259-.579-.579s.259-.579.579-.579c.32,0,.579.259.579.579h0"/><path id="s" class="xj" d="m105.523,17.738c0,.32-.259.579-.579.579s-.579-.259-.579-.579.259-.579.579-.579.579.259.579.579h0"/><path id="t" class="xj" d="m105.523,19.391c0,.32-.259.579-.579.579s-.579-.259-.579-.579.259-.579.579-.579.579.259.579.579h0"/><path id="u" class="xj" d="m105.523,21.043c0,.32-.259.579-.579.579s-.579-.259-.579-.579.259-.579.579-.579.579.259.579.579h0"/><path id="v" class="xj" d="m107.18,12.778c0,.32-.259.579-.579.579-.32,0-.579-.259-.579-.579s.259-.579.579-.579c.32,0,.579.259.579.579h0"/><path id="w" class="xj" d="m107.18,14.427c0,.32-.259.579-.579.579-.32,0-.579-.259-.579-.579s.259-.579.579-.579c.32,0,.579.259.579.579h0"/><path id="x" class="xj" d="m107.18,21.043c0,.32-.259.579-.579.579s-.579-.259-.579-.579.259-.579.579-.579.579.259.579.579h0"/><path id="y" class="xj" d="m108.836,12.778c0,.32-.259.579-.579.579-.32,0-.579-.259-.579-.579s.259-.579.579-.579c.32,0,.579.259.579.579h0"/><path id="z" class="xj" d="m85.658,14.427c0,.32-.259.579-.579.579-.32,0-.579-.259-.579-.579s.259-.579.579-.579c.32,0,.579.259.579.579h0"/><path id="aa" class="xj" d="m85.658,16.083c0,.32-.259.579-.579.579-.32,0-.579-.259-.579-.579s.259-.579.579-.579c.32,0,.579.259.579.579h0"/><path id="ab" class="xj" d="m85.658,17.738c0,.32-.259.579-.579.579s-.579-.259-.579-.579.259-.579.579-.579.579.259.579.579h0"/><path id="ac" class="xj" d="m85.658,19.391c0,.32-.259.579-.579.579s-.579-.259-.579-.579.259-.579.579-.579.579.259.579.579h0"/><path id="ad" class="xj" d="m85.658,21.043c0,.32-.259.579-.579.579s-.579-.259-.579-.579.259-.579.579-.579.579.259.579.579h0"/><path id="ae" class="xj" d="m87.313,1.205c0,.32-.259.579-.579.579s-.579-.259-.579-.579.259-.579.579-.579t0,0c.32,0,.579.259.579.579h0"/><path id="af" class="xj" d="m87.313,11.125c0,.32-.259.579-.579.579-.32,0-.579-.259-.579-.579s.259-.579.579-.579c.32,0,.579.259.579.579h0"/><path id="ag" class="xj" d="m87.313,12.778c0,.32-.259.579-.579.579-.32,0-.579-.259-.579-.579s.259-.579.579-.579c.32,0,.579.259.579.579h0"/><path id="ah" class="xj" d="m87.313,14.427c0,.32-.259.579-.579.579-.32,0-.579-.259-.579-.579s.259-.579.579-.579c.32,0,.579.259.579.579h0"/><path id="ai" class="xj" d="m87.313,16.083c0,.32-.259.579-.579.579-.32,0-.579-.259-.579-.579s.259-.579.579-.579c.32,0,.579.259.579.579h0"/><path id="aj" class="xj" d="m87.313,17.738c0,.32-.259.579-.579.579s-.579-.259-.579-.579.259-.579.579-.579.579.259.579.579h0"/><path id="ak" class="xj" d="m87.313,19.391c0,.32-.259.579-.579.579s-.579-.259-.579-.579.259-.579.579-.579.579.259.579.579h0"/><path id="al" class="xj" d="m87.313,21.043c0,.32-.259.579-.579.579s-.579-.259-.579-.579.259-.579.579-.579.579.259.579.579h0"/><path id="am" class="xj" d="m88.97,2.859c0,.32-.259.579-.579.579s-.579-.259-.579-.579.259-.579.579-.579c.32,0,.579.259.579.579h0"/><path id="an" class="xj" d="m88.97,7.818c0,.32-.259.579-.579.579s-.579-.259-.579-.579.259-.579.579-.579c.32,0,.579.259.579.579h0"/><path id="ao" class="xj" d="m88.97,9.471c0,.32-.259.579-.579.579-.32,0-.579-.259-.579-.579s.259-.579.579-.579c.32,0,.579.259.579.579h0"/><path id="ap" class="xj" d="m88.97,11.125c0,.32-.259.579-.579.579-.32,0-.579-.259-.579-.579s.259-.579.579-.579c.32,0,.579.259.579.579h0"/><path id="aq" class="xj" d="m88.97,12.778c0,.32-.259.579-.579.579-.32,0-.579-.259-.579-.579s.259-.579.579-.579c.32,0,.579.259.579.579h0"/><path id="ar" class="xj" d="m88.97,14.427c0,.32-.259.579-.579.579-.32,0-.579-.259-.579-.579s.259-.579.579-.579c.32,0,.579.259.579.579h0"/><path id="as" class="xj" d="m88.97,16.083c0,.32-.259.579-.579.579-.32,0-.579-.259-.579-.579s.259-.579.579-.579c.32,0,.579.259.579.579h0"/><path id="at" class="xj" d="m88.97,17.738c0,.32-.259.579-.579.579s-.579-.259-.579-.579.259-.579.579-.579.579.259.579.579h0"/><path id="au" class="xj" d="m88.97,19.391c0,.32-.259.579-.579.579s-.579-.259-.579-.579.259-.579.579-.579.579.259.579.579h0"/><path id="av" class="xj" d="m88.97,21.043c0,.32-.259.579-.579.579s-.579-.259-.579-.579.259-.579.579-.579.579.259.579.579h0"/><path id="aw" class="xj" d="m88.97,22.696c0,.32-.259.579-.579.579s-.579-.259-.579-.579.259-.579.579-.579.579.259.579.579h0"/><path id="ax" class="xj" d="m90.626,4.512c0,.32-.259.579-.579.579s-.579-.259-.579-.579.259-.579.579-.579c.32,0,.579.259.579.579h0"/><path id="ay" class="xj" d="m90.626,6.161c0,.32-.259.579-.579.579s-.579-.259-.579-.579.259-.579.579-.579c.32,0,.579.259.579.579h0"/><path id="az" class="xj" d="m90.626,7.818c0,.32-.259.579-.579.579s-.579-.259-.579-.579.259-.579.579-.579c.32,0,.579.259.579.579h0"/><path id="ba" class="xj" d="m90.626,9.471c0,.32-.259.579-.579.579-.32,0-.579-.259-.579-.579s.259-.579.579-.579c.32,0,.579.259.579.579h0"/><path id="bb" class="xj" d="m90.626,11.125c0,.32-.259.579-.579.579-.32,0-.579-.259-.579-.579s.259-.579.579-.579c.32,0,.579.259.579.579h0"/><path id="bc" class="xj" d="m90.626,12.778c0,.32-.259.579-.579.579-.32,0-.579-.259-.579-.579s.259-.579.579-.579c.32,0,.579.259.579.579h0"/><path id="bd" class="xj" d="m90.626,14.427c0,.32-.259.579-.579.579-.32,0-.579-.259-.579-.579s.259-.579.579-.579c.32,0,.579.259.579.579h0"/><path id="be" class="xj" d="m90.626,16.083c0,.32-.259.579-.579.579-.32,0-.579-.259-.579-.579s.259-.579.579-.579c.32,0,.579.259.579.579h0"/><path id="bf" class="xj" d="m90.626,17.738c0,.32-.259.579-.579.579s-.579-.259-.579-.579.259-.579.579-.579.579.259.579.579h0"/><path id="bg" class="xj" d="m90.626,19.391c0,.32-.259.579-.579.579s-.579-.259-.579-.579.259-.579.579-.579.579.259.579.579h0"/><path id="bh" class="xj" d="m90.626,21.043c0,.32-.259.579-.579.579s-.579-.259-.579-.579.259-.579.579-.579.579.259.579.579h0"/><path id="bi" class="xj" d="m90.626,22.696c0,.32-.259.579-.579.579s-.579-.259-.579-.579.259-.579.579-.579.579.259.579.579h0"/><path id="bj" class="xj" d="m90.626,24.349c0,.32-.259.579-.579.579s-.579-.259-.579-.579.259-.579.579-.579.579.259.579.579h0"/><path id="bk" class="xj" d="m92.283,1.205c0,.32-.259.579-.579.579s-.579-.259-.579-.579.259-.579.579-.579t0,0c.32,0,.579.259.579.579h0"/><path id="bl" class="xj" d="m92.283,2.859c0,.32-.259.579-.579.579s-.579-.259-.579-.579.259-.579.579-.579c.32,0,.579.259.579.579h0"/><path id="bm" class="xj" d="m92.283,4.512c0,.32-.259.579-.579.579s-.579-.259-.579-.579.259-.579.579-.579c.32,0,.579.259.579.579h0"/><path id="bn" class="xj" d="m92.283,6.161c0,.32-.259.579-.579.579s-.579-.259-.579-.579.259-.579.579-.579c.32,0,.579.259.579.579h0"/><path id="bo" class="xj" d="m92.283,7.818c0,.32-.259.579-.579.579s-.579-.259-.579-.579.259-.579.579-.579c.32,0,.579.259.579.579h0"/><path id="bp" class="xj" d="m92.283,9.471c0,.32-.259.579-.579.579-.32,0-.579-.259-.579-.579s.259-.579.579-.579c.32,0,.579.259.579.579h0"/><path id="bq" class="xj" d="m92.283,11.125c0,.32-.259.579-.579.579-.32,0-.579-.259-.579-.579s.259-.579.579-.579c.32,0,.579.259.579.579h0"/><path id="br" class="xj" d="m92.283,12.778c0,.32-.259.579-.579.579-.32,0-.579-.259-.579-.579s.259-.579.579-.579c.32,0,.579.259.579.579h0"/><path id="bs" class="xj" d="m92.283,14.427c0,.32-.259.579-.579.579-.32,0-.579-.259-.579-.579s.259-.579.579-.579c.32,0,.579.259.579.579h0"/><path id="bt" class="xj" d="m92.283,16.083c0,.32-.259.579-.579.579-.32,0-.579-.259-.579-.579s.259-.579.579-.579c.32,0,.579.259.579.579h0"/><path id="bu" class="xj" d="m92.283,17.738c0,.32-.259.579-.579.579s-.579-.259-.579-.579.259-.579.579-.579.579.259.579.579h0"/><path id="bv" class="xj" d="m92.283,19.391c0,.32-.259.579-.579.579s-.579-.259-.579-.579.259-.579.579-.579.579.259.579.579h0"/><path id="bw" class="xj" d="m92.283,21.043c0,.32-.259.579-.579.579s-.579-.259-.579-.579.259-.579.579-.579.579.259.579.579h0"/><path id="bx" class="xj" d="m92.283,22.696c0,.32-.259.579-.579.579s-.579-.259-.579-.579.259-.579.579-.579.579.259.579.579h0"/><path id="by" class="xj" d="m92.283,24.349c0,.32-.259.579-.579.579s-.579-.259-.579-.579.259-.579.579-.579.579.259.579.579h0"/><path id="bz" class="xj" d="m92.283,26.003c0,.32-.259.579-.579.579s-.579-.259-.579-.579.259-.579.579-.579.579.259.579.579h0"/><path id="ca" class="xj" d="m93.939,1.205c0,.32-.259.579-.579.579s-.579-.259-.579-.579.259-.579.579-.579c.32,0,.579.259.579.579h0"/><path id="cb" class="xj" d="m93.939,2.859c0,.32-.259.579-.579.579s-.579-.259-.579-.579.259-.579.579-.579c.32,0,.579.259.579.579h0"/><path id="cc" class="xj" d="m93.939,4.512c0,.32-.259.579-.579.579s-.579-.259-.579-.579.259-.579.579-.579c.32,0,.579.259.579.579h0"/><path id="cd" class="xj" d="m93.939,6.161c0,.32-.259.579-.579.579s-.579-.259-.579-.579.259-.579.579-.579c.32,0,.579.259.579.579h0"/><path id="ce" class="xj" d="m93.939,7.818c0,.32-.259.579-.579.579s-.579-.259-.579-.579.259-.579.579-.579c.32,0,.579.259.579.579h0"/><path id="cf" class="xj" d="m93.939,9.471c0,.32-.259.579-.579.579-.32,0-.579-.259-.579-.579s.259-.579.579-.579c.32,0,.579.259.579.579h0"/><path id="cg" class="xj" d="m93.939,11.125c0,.32-.259.579-.579.579-.32,0-.579-.259-.579-.579s.259-.579.579-.579c.32,0,.579.259.579.579h0"/><path id="ch" class="xj" d="m93.939,12.778c0,.32-.259.579-.579.579-.32,0-.579-.259-.579-.579s.259-.579.579-.579c.32,0,.579.259.579.579h0"/><path id="ci" class="xj" d="m93.939,14.427c0,.32-.259.579-.579.579-.32,0-.579-.259-.579-.579s.259-.579.579-.579c.32,0,.579.259.579.579h0"/><path id="cj" class="xj" d="m93.939,16.083c0,.32-.259.579-.579.579-.32,0-.579-.259-.579-.579s.259-.579.579-.579c.32,0,.579.259.579.579h0"/><path id="ck" class="xj" d="m93.939,17.738c0,.32-.259.579-.579.579s-.579-.259-.579-.579.259-.579.579-.579.579.259.579.579h0"/><path id="cl" class="xj" d="m93.939,19.391c0,.32-.259.579-.579.579s-.579-.259-.579-.579.259-.579.579-.579.579.259.579.579h0"/><path id="cm" class="xj" d="m93.939,21.043c0,.32-.259.579-.579.579s-.579-.259-.579-.579.259-.579.579-.579.579.259.579.579h0"/><path id="cn" class="xj" d="m93.939,22.696c0,.32-.259.579-.579.579s-.579-.259-.579-.579.259-.579.579-.579.579.259.579.579h0"/><path id="co" class="xj" d="m93.939,24.349c0,.32-.259.579-.579.579s-.579-.259-.579-.579.259-.579.579-.579.579.259.579.579h0"/><path id="cp" class="xj" d="m93.939,26.003c0,.32-.259.579-.579.579s-.579-.259-.579-.579.259-.579.579-.579.579.259.579.579h0"/><path id="cq" class="xj" d="m93.939,27.656c0,.32-.259.579-.579.579s-.579-.259-.579-.579.259-.579.579-.579.579.259.579.579h0"/><path id="cr" class="xj" d="m95.596,4.512c0,.32-.259.579-.579.579s-.579-.259-.579-.579.259-.579.579-.579c.32,0,.579.259.579.579h0"/><path id="cs" class="xj" d="m95.596,6.161c0,.32-.259.579-.579.579s-.579-.259-.579-.579.259-.579.579-.579c.32,0,.579.259.579.579h0"/><path id="ct" class="xj" d="m95.596,7.818c0,.32-.259.579-.579.579s-.579-.259-.579-.579.259-.579.579-.579c.32,0,.579.259.579.579h0"/><path id="cu" class="xj" d="m95.596,9.471c0,.32-.259.579-.579.579-.32,0-.579-.259-.579-.579s.259-.579.579-.579c.32,0,.579.259.579.579h0"/><path id="cv" class="xj" d="m95.596,11.125c0,.32-.259.579-.579.579-.32,0-.579-.259-.579-.579s.259-.579.579-.579c.32,0,.579.259.579.579h0"/><path id="cw" class="xj" d="m95.596,12.778c0,.32-.259.579-.579.579-.32,0-.579-.259-.579-.579s.259-.579.579-.579c.32,0,.579.259.579.579h0"/><path id="cx" class="xj" d="m95.596,14.427c0,.32-.259.579-.579.579-.32,0-.579-.259-.579-.579s.259-.579.579-.579c.32,0,.579.259.579.579h0"/><path id="cy" class="xj" d="m95.596,16.083c0,.32-.259.579-.579.579-.32,0-.579-.259-.579-.579s.259-.579.579-.579c.32,0,.579.259.579.579h0"/><path id="cz" class="xj" d="m95.596,17.738c0,.32-.259.579-.579.579s-.579-.259-.579-.579.259-.579.579-.579.579.259.579.579h0"/><path id="da" class="xj" d="m95.596,19.391c0,.32-.259.579-.579.579s-.579-.259-.579-.579.259-.579.579-.579.579.259.579.579h0"/><path id="db" class="xj" d="m95.596,21.043c0,.32-.259.579-.579.579s-.579-.259-.579-.579.259-.579.579-.579.579.259.579.579h0"/><path id="dc" class="xj" d="m95.596,22.696c0,.32-.259.579-.579.579s-.579-.259-.579-.579.259-.579.579-.579.579.259.579.579h0"/><path id="dd" class="xj" d="m95.596,24.349c0,.32-.259.579-.579.579s-.579-.259-.579-.579.259-.579.579-.579.579.259.579.579h0"/><path id="de" class="xj" d="m97.252,7.818c0,.32-.259.579-.579.579s-.579-.259-.579-.579.259-.579.579-.579c.32,0,.579.259.579.579h0"/><path id="df" class="xj" d="m97.252,9.471c0,.32-.259.579-.579.579-.32,0-.579-.259-.579-.579s.259-.579.579-.579c.32,0,.579.259.579.579h0"/><path id="dg" class="xj" d="m97.252,11.125c0,.32-.259.579-.579.579-.32,0-.579-.259-.579-.579s.259-.579.579-.579c.32,0,.579.259.579.579h0"/><path id="dh" class="xj" d="m97.252,12.778c0,.32-.259.579-.579.579-.32,0-.579-.259-.579-.579s.259-.579.579-.579c.32,0,.579.259.579.579h0"/><path id="di" class="xj" d="m97.252,14.427c0,.32-.259.579-.579.579-.32,0-.579-.259-.579-.579s.259-.579.579-.579c.32,0,.579.259.579.579h0"/><path id="dj" class="xj" d="m97.252,16.083c0,.32-.259.579-.579.579-.32,0-.579-.259-.579-.579s.259-.579.579-.579c.32,0,.579.259.579.579h0"/><path id="dk" class="xj" d="m97.252,17.738c0,.32-.259.579-.579.579s-.579-.259-.579-.579.259-.579.579-.579.579.259.579.579h0"/><path id="dl" class="xj" d="m97.252,19.391c0,.32-.259.579-.579.579s-.579-.259-.579-.579.259-.579.579-.579.579.259.579.579h0"/><path id="dm" class="xj" d="m97.252,21.043c0,.32-.259.579-.579.579s-.579-.259-.579-.579.259-.579.579-.579.579.259.579.579h0"/><path id="dn" class="xj" d="m97.252,22.696c0,.32-.259.579-.579.579s-.579-.259-.579-.579.259-.579.579-.579.579.259.579.579h0"/><path id="do" class="xj" d="m98.908,11.125c0,.32-.259.579-.579.579-.32,0-.579-.259-.579-.579s.259-.579.579-.579c.32,0,.579.259.579.579h0"/><path id="dp" class="xj" d="m98.908,12.778c0,.32-.259.579-.579.579-.32,0-.579-.259-.579-.579s.259-.579.579-.579c.32,0,.579.259.579.579h0"/><path id="dq" class="xj" d="m98.908,14.427c0,.32-.259.579-.579.579-.32,0-.579-.259-.579-.579s.259-.579.579-.579c.32,0,.579.259.579.579h0"/><path id="dr" class="xj" d="m98.908,16.083c0,.32-.259.579-.579.579-.32,0-.579-.259-.579-.579s.259-.579.579-.579c.32,0,.579.259.579.579h0"/><path id="ds" class="xj" d="m98.908,17.738c0,.32-.259.579-.579.579s-.579-.259-.579-.579.259-.579.579-.579.579.259.579.579h0"/><path id="dt" class="xj" d="m98.908,19.391c0,.32-.259.579-.579.579s-.579-.259-.579-.579.259-.579.579-.579.579.259.579.579h0"/><path id="du" class="xj" d="m98.908,21.043c0,.32-.259.579-.579.579s-.579-.259-.579-.579.259-.579.579-.579.579.259.579.579h0"/><path id="dv" class="xj" d="m100.564,12.778c0,.32-.259.579-.579.579-.32,0-.579-.259-.579-.579s.259-.579.579-.579c.32,0,.579.259.579.579h0"/><path id="dw" class="xj" d="m100.564,14.427c0,.32-.259.579-.579.579-.32,0-.579-.259-.579-.579s.259-.579.579-.579c.32,0,.579.259.579.579h0"/><path id="dx" class="xj" d="m100.564,16.083c0,.32-.259.579-.579.579-.32,0-.579-.259-.579-.579s.259-.579.579-.579c.32,0,.579.259.579.579h0"/><path id="dy" class="xj" d="m100.564,17.738c0,.32-.259.579-.579.579s-.579-.259-.579-.579.259-.579.579-.579.579.259.579.579h0"/><path id="dz" class="xj" d="m100.564,19.391c0,.32-.259.579-.579.579s-.579-.259-.579-.579.259-.579.579-.579.579.259.579.579h0"/><path id="ea" class="xj" d="m100.564,21.043c0,.32-.259.579-.579.579s-.579-.259-.579-.579.259-.579.579-.579.579.259.579.579h0"/><path id="eb" class="xj" d="m69.097,45.841c0,.32-.259.579-.579.579s-.579-.259-.579-.579.259-.579.579-.579.579.259.579.579h0"/><path id="ec" class="xj" d="m69.097,47.494c0,.32-.259.579-.579.579s-.579-.259-.579-.579.259-.579.579-.579.579.259.579.579h0"/><path id="ed" class="xj" d="m69.097,49.147c0,.32-.259.579-.579.579s-.579-.259-.579-.579.259-.579.579-.579.579.259.579.579h0"/><path id="ee" class="xj" d="m69.097,50.801c0,.32-.259.579-.579.579s-.579-.259-.579-.579.259-.579.579-.579.579.259.579.579h0"/><path id="ef" class="xj" d="m69.097,52.453c0,.32-.259.579-.579.579s-.579-.259-.579-.579.259-.579.579-.579.579.259.579.579h0"/><path id="eg" class="xj" d="m69.097,54.107c0,.32-.259.579-.579.579s-.579-.259-.579-.579.259-.579.579-.579.579.259.579.579h0"/><path id="eh" class="xj" d="m69.097,55.76c0,.32-.259.579-.579.579s-.579-.259-.579-.579.259-.579.579-.579.579.259.579.579h0"/><path id="ei" class="xj" d="m69.097,57.413c0,.32-.259.579-.579.579s-.579-.259-.579-.579.259-.579.579-.579.579.259.579.579h0"/><path id="ej" class="xj" d="m69.097,59.066c0,.32-.259.579-.579.579s-.579-.259-.579-.579.259-.579.579-.579.579.259.579.579h0"/><path id="ek" class="xj" d="m69.097,60.719c0,.32-.259.579-.579.579s-.579-.259-.579-.579.259-.579.579-.579.579.259.579.579h0"/><path id="el" class="xj" d="m69.097,62.372c0,.32-.259.579-.579.579s-.579-.259-.579-.579.259-.579.579-.579.579.259.579.579h0"/><path id="em" class="xj" d="m69.097,64.025c0,.32-.259.579-.579.579s-.579-.259-.579-.579.259-.579.579-.579.579.259.579.579h0"/><path id="en" class="xj" d="m69.097,65.679c0,.32-.259.579-.579.579s-.579-.259-.579-.579.259-.579.579-.579.579.259.579.579h0"/><path id="eo" class="xj" d="m70.754,37.575c0,.32-.259.579-.579.579s-.579-.259-.579-.579.259-.579.579-.579.579.259.579.579h0"/><path id="ep" class="xj" d="m70.754,42.535c0,.32-.259.579-.579.579s-.579-.259-.579-.579.259-.579.579-.579.579.259.579.579h0"/><path id="eq" class="xj" d="m70.754,44.188c0,.32-.259.579-.579.579s-.579-.259-.579-.579.259-.579.579-.579.579.259.579.579h0"/><path id="er" class="xj" d="m70.754,45.841c0,.32-.259.579-.579.579s-.579-.259-.579-.579.259-.579.579-.579.579.259.579.579h0"/><path id="es" class="xj" d="m70.754,47.494c0,.32-.259.579-.579.579s-.579-.259-.579-.579.259-.579.579-.579.579.259.579.579h0"/><path id="et" class="xj" d="m70.754,49.147c0,.32-.259.579-.579.579s-.579-.259-.579-.579.259-.579.579-.579.579.259.579.579h0"/><path id="eu" class="xj" d="m70.754,50.801c0,.32-.259.579-.579.579s-.579-.259-.579-.579.259-.579.579-.579.579.259.579.579h0"/><path id="ev" class="xj" d="m70.754,52.453c0,.32-.259.579-.579.579s-.579-.259-.579-.579.259-.579.579-.579.579.259.579.579h0"/><path id="ew" class="xj" d="m70.754,54.107c0,.32-.259.579-.579.579s-.579-.259-.579-.579.259-.579.579-.579.579.259.579.579h0"/><path id="ex" class="xj" d="m70.754,55.76c0,.32-.259.579-.579.579s-.579-.259-.579-.579.259-.579.579-.579.579.259.579.579h0"/><path id="ey" class="xj" d="m70.754,57.413c0,.32-.259.579-.579.579s-.579-.259-.579-.579.259-.579.579-.579.579.259.579.579h0"/><path id="ez" class="xj" d="m70.754,59.066c0,.32-.259.579-.579.579s-.579-.259-.579-.579.259-.579.579-.579.579.259.579.579h0"/><path id="fa" class="xj" d="m70.754,60.719c0,.32-.259.579-.579.579s-.579-.259-.579-.579.259-.579.579-.579.579.259.579.579h0"/><path id="fb" class="xj" d="m72.409,37.575c0,.32-.259.579-.579.579s-.579-.259-.579-.579.259-.579.579-.579.579.259.579.579h0"/><path id="fc" class="xj" d="m72.409,39.228c0,.32-.259.579-.579.579s-.579-.259-.579-.579.259-.579.579-.579.579.259.579.579h0"/><path id="fd" class="xj" d="m72.409,40.881c0,.32-.259.579-.579.579s-.579-.259-.579-.579.259-.579.579-.579.579.259.579.579h0"/><path id="fe" class="xj" d="m72.409,42.535c0,.32-.259.579-.579.579s-.579-.259-.579-.579.259-.579.579-.579.579.259.579.579h0"/><path id="ff" class="xj" d="m72.409,44.188c0,.32-.259.579-.579.579s-.579-.259-.579-.579.259-.579.579-.579.579.259.579.579h0"/><path id="fg" class="xj" d="m72.409,45.841c0,.32-.259.579-.579.579s-.579-.259-.579-.579.259-.579.579-.579.579.259.579.579h0"/><path id="fh" class="xj" d="m72.409,47.494c0,.32-.259.579-.579.579s-.579-.259-.579-.579.259-.579.579-.579.579.259.579.579h0"/><path id="fi" class="xj" d="m72.409,49.147c0,.32-.259.579-.579.579s-.579-.259-.579-.579.259-.579.579-.579.579.259.579.579h0"/><path id="fj" class="xj" d="m72.409,50.801c0,.32-.259.579-.579.579s-.579-.259-.579-.579.259-.579.579-.579.579.259.579.579h0"/><path id="fk" class="xj" d="m72.409,52.453c0,.32-.259.579-.579.579s-.579-.259-.579-.579.259-.579.579-.579.579.259.579.579h0"/><path id="fl" class="xj" d="m72.409,54.107c0,.32-.259.579-.579.579s-.579-.259-.579-.579.259-.579.579-.579.579.259.579.579h0"/><path id="fm" class="xj" d="m72.409,55.76c0,.32-.259.579-.579.579s-.579-.259-.579-.579.259-.579.579-.579.579.259.579.579h0"/><path id="fn" class="xj" d="m72.409,57.413c0,.32-.259.579-.579.579s-.579-.259-.579-.579.259-.579.579-.579.579.259.579.579h0"/><path id="fo" class="xj" d="m72.409,59.066c0,.32-.259.579-.579.579s-.579-.259-.579-.579.259-.579.579-.579.579.259.579.579h0"/><path id="fp" class="xj" d="m74.066,21.043c0,.32-.259.579-.579.579s-.579-.259-.579-.579.259-.579.579-.579.579.259.579.579h0"/><path id="fq" class="xj" d="m74.066,22.696c0,.32-.259.579-.579.579s-.579-.259-.579-.579.259-.579.579-.579.579.259.579.579h0"/><path id="fr" class="xj" d="m74.066,24.349c0,.32-.259.579-.579.579s-.579-.259-.579-.579.259-.579.579-.579.579.259.579.579h0"/><path id="fs" class="xj" d="m74.066,32.615c0,.32-.259.579-.579.579s-.579-.259-.579-.579.259-.579.579-.579.579.259.579.579h0"/><path id="ft" class="xj" d="m74.066,34.269c0,.32-.259.579-.579.579s-.579-.259-.579-.579.259-.579.579-.579.579.259.579.579h0"/><path id="fu" class="xj" d="m74.066,35.922c0,.32-.259.579-.579.579s-.579-.259-.579-.579.259-.579.579-.579.579.259.579.579h0"/><path id="fv" class="xj" d="m74.066,37.575c0,.32-.259.579-.579.579s-.579-.259-.579-.579.259-.579.579-.579.579.259.579.579h0"/><path id="fw" class="xj" d="m74.066,39.228c0,.32-.259.579-.579.579s-.579-.259-.579-.579.259-.579.579-.579.579.259.579.579h0"/><path id="fx" class="xj" d="m74.066,40.881c0,.32-.259.579-.579.579s-.579-.259-.579-.579.259-.579.579-.579.579.259.579.579h0"/><path id="fy" class="xj" d="m74.066,42.535c0,.32-.259.579-.579.579s-.579-.259-.579-.579.259-.579.579-.579.579.259.579.579h0"/><path id="fz" class="xj" d="m74.066,44.188c0,.32-.259.579-.579.579s-.579-.259-.579-.579.259-.579.579-.579.579.259.579.579h0"/><path id="ga" class="xj" d="m74.066,45.841c0,.32-.259.579-.579.579s-.579-.259-.579-.579.259-.579.579-.579.579.259.579.579h0"/><path id="gb" class="xj" d="m74.066,47.494c0,.32-.259.579-.579.579s-.579-.259-.579-.579.259-.579.579-.579.579.259.579.579h0"/><path id="gc" class="xj" d="m74.066,49.147c0,.32-.259.579-.579.579s-.579-.259-.579-.579.259-.579.579-.579.579.259.579.579h0"/><path id="gd" class="xj" d="m74.066,50.801c0,.32-.259.579-.579.579s-.579-.259-.579-.579.259-.579.579-.579.579.259.579.579h0"/><path id="ge" class="xj" d="m74.066,52.453c0,.32-.259.579-.579.579s-.579-.259-.579-.579.259-.579.579-.579.579.259.579.579h0"/><path id="gf" class="xj" d="m74.066,54.107c0,.32-.259.579-.579.579s-.579-.259-.579-.579.259-.579.579-.579.579.259.579.579h0"/><path id="gg" class="xj" d="m74.066,55.76c0,.32-.259.579-.579.579s-.579-.259-.579-.579.259-.579.579-.579.579.259.579.579h0"/><path id="gh" class="xj" d="m75.723,24.349c0,.32-.259.579-.579.579s-.579-.259-.579-.579.259-.579.579-.579.579.259.579.579h0"/><path id="gi" class="xj" d="m75.723,26.003c0,.32-.259.579-.579.579s-.579-.259-.579-.579.259-.579.579-.579.579.259.579.579h0"/><path id="gj" class="xj" d="m75.723,29.309c0,.32-.259.579-.579.579s-.579-.259-.579-.579.259-.579.579-.579.579.259.579.579h0"/><path id="gk" class="xj" d="m75.723,30.962c0,.32-.259.579-.579.579s-.579-.259-.579-.579.259-.579.579-.579.579.259.579.579h0"/><path id="gl" class="xj" d="m75.723,32.615c0,.32-.259.579-.579.579s-.579-.259-.579-.579.259-.579.579-.579.579.259.579.579h0"/><path id="gm" class="xj" d="m75.723,34.269c0,.32-.259.579-.579.579s-.579-.259-.579-.579.259-.579.579-.579.579.259.579.579h0"/><path id="gn" class="xj" d="m75.723,35.922c0,.32-.259.579-.579.579s-.579-.259-.579-.579.259-.579.579-.579.579.259.579.579h0"/><path id="go" class="xj" d="m75.723,37.575c0,.32-.259.579-.579.579s-.579-.259-.579-.579.259-.579.579-.579.579.259.579.579h0"/><path id="gp" class="xj" d="m75.723,39.228c0,.32-.259.579-.579.579s-.579-.259-.579-.579.259-.579.579-.579.579.259.579.579h0"/><path id="gq" class="xj" d="m75.723,40.881c0,.32-.259.579-.579.579s-.579-.259-.579-.579.259-.579.579-.579.579.259.579.579h0"/><path id="gr" class="xj" d="m75.723,42.535c0,.32-.259.579-.579.579s-.579-.259-.579-.579.259-.579.579-.579.579.259.579.579h0"/><path id="gs" class="xj" d="m75.723,44.188c0,.32-.259.579-.579.579s-.579-.259-.579-.579.259-.579.579-.579.579.259.579.579h0"/><path id="gt" class="xj" d="m75.723,45.841c0,.32-.259.579-.579.579s-.579-.259-.579-.579.259-.579.579-.579.579.259.579.579h0"/><path id="gu" class="xj" d="m75.723,47.494c0,.32-.259.579-.579.579s-.579-.259-.579-.579.259-.579.579-.579.579.259.579.579h0"/><path id="gv" class="xj" d="m75.723,49.147c0,.32-.259.579-.579.579s-.579-.259-.579-.579.259-.579.579-.579.579.259.579.579h0"/><path id="gw" class="xj" d="m77.379,17.738c0,.32-.259.579-.579.579s-.579-.259-.579-.579.259-.579.579-.579.579.259.579.579h0"/><path id="gx" class="xj" d="m77.379,19.391c0,.32-.259.579-.579.579s-.579-.259-.579-.579.259-.579.579-.579.579.259.579.579h0"/><path id="gy" class="xj" d="m77.379,21.043c0,.32-.259.579-.579.579s-.579-.259-.579-.579.259-.579.579-.579.579.259.579.579h0"/><path id="gz" class="xj" d="m77.379,22.696c0,.32-.259.579-.579.579s-.579-.259-.579-.579.259-.579.579-.579.579.259.579.579h0"/><path id="ha" class="xj" d="m77.379,24.349c0,.32-.259.579-.579.579s-.579-.259-.579-.579.259-.579.579-.579.579.259.579.579h0"/><path id="hb" class="xj" d="m77.379,26.003c0,.32-.259.579-.579.579s-.579-.259-.579-.579.259-.579.579-.579.579.259.579.579h0"/><path id="hc" class="xj" d="m77.379,29.309c0,.32-.259.579-.579.579s-.579-.259-.579-.579.259-.579.579-.579.579.259.579.579h0"/><path id="hd" class="xj" d="m77.379,30.962c0,.32-.259.579-.579.579s-.579-.259-.579-.579.259-.579.579-.579.579.259.579.579h0"/><path id="he" class="xj" d="m77.379,32.615c0,.32-.259.579-.579.579s-.579-.259-.579-.579.259-.579.579-.579.579.259.579.579h0"/><path id="hf" class="xj" d="m77.379,34.269c0,.32-.259.579-.579.579s-.579-.259-.579-.579.259-.579.579-.579.579.259.579.579h0"/><path id="hg" class="xj" d="m77.379,35.922c0,.32-.259.579-.579.579s-.579-.259-.579-.579.259-.579.579-.579.579.259.579.579h0"/><path id="hh" class="xj" d="m77.379,37.575c0,.32-.259.579-.579.579s-.579-.259-.579-.579.259-.579.579-.579.579.259.579.579h0"/><path id="hi" class="xj" d="m77.379,39.228c0,.32-.259.579-.579.579s-.579-.259-.579-.579.259-.579.579-.579.579.259.579.579h0"/><path id="hj" class="xj" d="m77.379,40.881c0,.32-.259.579-.579.579s-.579-.259-.579-.579.259-.579.579-.579.579.259.579.579h0"/><path id="hk" class="xj" d="m77.379,42.535c0,.32-.259.579-.579.579s-.579-.259-.579-.579.259-.579.579-.579.579.259.579.579h0"/><path id="hl" class="xj" d="m77.379,44.188c0,.32-.259.579-.579.579s-.579-.259-.579-.579.259-.579.579-.579.579.259.579.579h0"/><path id="hm" class="xj" d="m77.379,45.841c0,.32-.259.579-.579.579s-.579-.259-.579-.579.259-.579.579-.579.579.259.579.579h0"/><path id="hn" class="xj" d="m77.379,47.494c0,.32-.259.579-.579.579s-.579-.259-.579-.579.259-.579.579-.579.579.259.579.579h0"/><path id="ho" class="xj" d="m77.379,49.147c0,.32-.259.579-.579.579s-.579-.259-.579-.579.259-.579.579-.579.579.259.579.579h0"/><path id="hp" class="xj" d="m77.379,50.801c0,.32-.259.579-.579.579s-.579-.259-.579-.579.259-.579.579-.579.579.259.579.579h0"/><path id="hq" class="xj" d="m79.035,17.738c0,.32-.259.579-.579.579s-.579-.259-.579-.579.259-.579.579-.579.579.259.579.579h0"/><path id="hr" class="xj" d="m79.035,19.391c0,.32-.259.579-.579.579s-.579-.259-.579-.579.259-.579.579-.579.579.259.579.579h0"/><path id="hs" class="xj" d="m79.035,21.043c0,.32-.259.579-.579.579s-.579-.259-.579-.579.259-.579.579-.579.579.259.579.579h0"/><path id="ht" class="xj" d="m79.035,22.696c0,.32-.259.579-.579.579s-.579-.259-.579-.579.259-.579.579-.579.579.259.579.579h0"/><path id="hu" class="xj" d="m79.035,24.349c0,.32-.259.579-.579.579s-.579-.259-.579-.579.259-.579.579-.579.579.259.579.579h0"/><path id="hv" class="xj" d="m79.035,26.003c0,.32-.259.579-.579.579s-.579-.259-.579-.579.259-.579.579-.579.579.259.579.579h0"/><path id="hw" class="xj" d="m79.035,32.615c0,.32-.259.579-.579.579s-.579-.259-.579-.579.259-.579.579-.579.579.259.579.579h0"/><path id="hx" class="xj" d="m79.035,34.269c0,.32-.259.579-.579.579s-.579-.259-.579-.579.259-.579.579-.579.579.259.579.579h0"/><path id="hy" class="xj" d="m79.035,35.922c0,.32-.259.579-.579.579s-.579-.259-.579-.579.259-.579.579-.579.579.259.579.579h0"/><path id="hz" class="xj" d="m79.035,37.575c0,.32-.259.579-.579.579s-.579-.259-.579-.579.259-.579.579-.579.579.259.579.579h0"/><path id="ia" class="xj" d="m79.035,39.228c0,.32-.259.579-.579.579s-.579-.259-.579-.579.259-.579.579-.579.579.259.579.579h0"/><path id="ib" class="xj" d="m79.035,40.881c0,.32-.259.579-.579.579s-.579-.259-.579-.579.259-.579.579-.579.579.259.579.579h0"/><path id="ic" class="xj" d="m79.035,42.535c0,.32-.259.579-.579.579s-.579-.259-.579-.579.259-.579.579-.579.579.259.579.579h0"/><path id="id" class="xj" d="m79.035,44.188c0,.32-.259.579-.579.579s-.579-.259-.579-.579.259-.579.579-.579.579.259.579.579h0"/><path id="ie" class="xj" d="m79.035,45.841c0,.32-.259.579-.579.579s-.579-.259-.579-.579.259-.579.579-.579.579.259.579.579h0"/><path id="if" class="xj" d="m79.035,47.494c0,.32-.259.579-.579.579s-.579-.259-.579-.579.259-.579.579-.579.579.259.579.579h0"/><path id="ig" class="xj" d="m80.693,16.083c0,.32-.259.579-.579.579-.32,0-.579-.259-.579-.579s.259-.579.579-.579c.32,0,.579.259.579.579h0"/><path id="ih" class="xj" d="m80.693,17.738c0,.32-.259.579-.579.579s-.579-.259-.579-.579.259-.579.579-.579.579.259.579.579h0"/><path id="ii" class="xj" d="m80.693,19.391c0,.32-.259.579-.579.579s-.579-.259-.579-.579.259-.579.579-.579.579.259.579.579h0"/><path id="ij" class="xj" d="m80.693,21.043c0,.32-.259.579-.579.579s-.579-.259-.579-.579.259-.579.579-.579.579.259.579.579h0"/><path id="ik" class="xj" d="m80.693,22.696c0,.32-.259.579-.579.579s-.579-.259-.579-.579.259-.579.579-.579.579.259.579.579h0"/><path id="il" class="xj" d="m80.693,24.349c0,.32-.259.579-.579.579s-.579-.259-.579-.579.259-.579.579-.579.579.259.579.579h0"/><path id="im" class="xj" d="m80.693,26.003c0,.32-.259.579-.579.579s-.579-.259-.579-.579.259-.579.579-.579.579.259.579.579h0"/><path id="in" class="xj" d="m80.693,27.656c0,.32-.259.579-.579.579s-.579-.259-.579-.579.259-.579.579-.579.579.259.579.579h0"/><path id="io" class="xj" d="m80.693,29.309c0,.32-.259.579-.579.579s-.579-.259-.579-.579.259-.579.579-.579.579.259.579.579h0"/><path id="ip" class="xj" d="m80.693,30.962c0,.32-.259.579-.579.579s-.579-.259-.579-.579.259-.579.579-.579.579.259.579.579h0"/><path id="iq" class="xj" d="m80.693,32.615c0,.32-.259.579-.579.579s-.579-.259-.579-.579.259-.579.579-.579.579.259.579.579h0"/><path id="ir" class="xj" d="m80.693,34.269c0,.32-.259.579-.579.579s-.579-.259-.579-.579.259-.579.579-.579.579.259.579.579h0"/><path id="is" class="xj" d="m80.693,35.922c0,.32-.259.579-.579.579s-.579-.259-.579-.579.259-.579.579-.579.579.259.579.579h0"/><path id="it" class="xj" d="m80.693,37.575c0,.32-.259.579-.579.579s-.579-.259-.579-.579.259-.579.579-.579.579.259.579.579h0"/><path id="iu" class="xj" d="m80.693,39.228c0,.32-.259.579-.579.579s-.579-.259-.579-.579.259-.579.579-.579.579.259.579.579h0"/><path id="iv" class="xj" d="m80.693,40.881c0,.32-.259.579-.579.579s-.579-.259-.579-.579.259-.579.579-.579.579.259.579.579h0"/><path id="iw" class="xj" d="m80.693,42.535c0,.32-.259.579-.579.579s-.579-.259-.579-.579.259-.579.579-.579.579.259.579.579h0"/><path id="ix" class="xj" d="m80.693,44.188c0,.32-.259.579-.579.579s-.579-.259-.579-.579.259-.579.579-.579.579.259.579.579h0"/><path id="iy" class="xj" d="m80.693,45.841c0,.32-.259.579-.579.579s-.579-.259-.579-.579.259-.579.579-.579.579.259.579.579h0"/><path id="iz" class="xj" d="m82.348,16.083c0,.32-.259.579-.579.579-.32,0-.579-.259-.579-.579s.259-.579.579-.579c.32,0,.579.259.579.579h0"/><path id="ja" class="xj" d="m82.348,17.738c0,.32-.259.579-.579.579s-.579-.259-.579-.579.259-.579.579-.579.579.259.579.579h0"/><path id="jb" class="xj" d="m82.348,19.391c0,.32-.259.579-.579.579s-.579-.259-.579-.579.259-.579.579-.579.579.259.579.579h0"/><path id="jc" class="xj" d="m82.348,21.043c0,.32-.259.579-.579.579s-.579-.259-.579-.579.259-.579.579-.579.579.259.579.579h0"/><path id="jd" class="xj" d="m82.348,26.003c0,.32-.259.579-.579.579s-.579-.259-.579-.579.259-.579.579-.579.579.259.579.579h0"/><path id="je" class="xj" d="m82.348,29.309c0,.32-.259.579-.579.579s-.579-.259-.579-.579.259-.579.579-.579.579.259.579.579h0"/><path id="jf" class="xj" d="m82.348,30.962c0,.32-.259.579-.579.579s-.579-.259-.579-.579.259-.579.579-.579.579.259.579.579h0"/><path id="jg" class="xj" d="m82.348,34.269c0,.32-.259.579-.579.579s-.579-.259-.579-.579.259-.579.579-.579.579.259.579.579h0"/><path id="jh" class="xj" d="m82.348,35.922c0,.32-.259.579-.579.579s-.579-.259-.579-.579.259-.579.579-.579.579.259.579.579h0"/><path id="ji" class="xj" d="m82.348,37.575c0,.32-.259.579-.579.579s-.579-.259-.579-.579.259-.579.579-.579.579.259.579.579h0"/><path id="jj" class="xj" d="m82.348,39.228c0,.32-.259.579-.579.579s-.579-.259-.579-.579.259-.579.579-.579.579.259.579.579h0"/><path id="jk" class="xj" d="m82.348,40.881c0,.32-.259.579-.579.579s-.579-.259-.579-.579.259-.579.579-.579.579.259.579.579h0"/><path id="jl" class="xj" d="m82.348,42.535c0,.32-.259.579-.579.579s-.579-.259-.579-.579.259-.579.579-.579.579.259.579.579h0"/><path id="jm" class="xj" d="m82.348,44.188c0,.32-.259.579-.579.579s-.579-.259-.579-.579.259-.579.579-.579.579.259.579.579h0"/><path id="jn" class="xj" d="m84.004,16.083c0,.32-.259.579-.579.579-.32,0-.579-.259-.579-.579s.259-.579.579-.579c.32,0,.579.259.579.579h0"/><path id="jo" class="xj" d="m84.004,17.738c0,.32-.259.579-.579.579s-.579-.259-.579-.579.259-.579.579-.579.579.259.579.579h0"/><path id="jp" class="xj" d="m84.004,19.391c0,.32-.259.579-.579.579s-.579-.259-.579-.579.259-.579.579-.579.579.259.579.579h0"/><path id="jq" class="xj" d="m84.004,21.043c0,.32-.259.579-.579.579s-.579-.259-.579-.579.259-.579.579-.579.579.259.579.579h0"/><path id="jr" class="xj" d="m52.544,49.147c0,.32-.259.579-.579.579s-.579-.259-.579-.579.259-.579.579-.579h0c.32,0,.579.259.579.579"/><path id="js" class="xj" d="m52.544,50.801c0,.32-.259.579-.579.579s-.579-.259-.579-.579.259-.579.579-.579h0c.32,0,.579.259.579.579"/><path id="jt" class="xj" d="m52.544,52.453c0,.32-.259.579-.579.579s-.579-.259-.579-.579.259-.579.579-.579h0c.32,0,.579.259.579.579"/><path id="ju" class="xj" d="m52.544,54.107c0,.32-.259.579-.579.579s-.579-.259-.579-.579.259-.579.579-.579h0c.32,0,.579.259.579.579"/><path id="jv" class="xj" d="m52.544,55.76c0,.32-.259.579-.579.579s-.579-.259-.579-.579.259-.579.579-.579h0c.32,0,.579.259.579.579"/><path id="jw" class="xj" d="m52.544,57.413c0,.32-.259.579-.579.579s-.579-.259-.579-.579.259-.579.579-.579h0c.32,0,.579.259.579.579"/><path id="jx" class="xj" d="m52.544,59.066c0,.32-.259.579-.579.579s-.579-.259-.579-.579.259-.579.579-.579h0c.32,0,.579.259.579.579"/><path id="jy" class="xj" d="m52.544,60.719c0,.32-.259.579-.579.579s-.579-.259-.579-.579.259-.579.579-.579h0c.32,0,.579.259.579.579"/><path id="jz" class="xj" d="m52.544,62.372c0,.32-.259.579-.579.579s-.579-.259-.579-.579.259-.579.579-.579h0c.32,0,.579.259.579.579"/><path id="ka" class="xj" d="m52.544,64.025c0,.32-.259.579-.579.579s-.579-.259-.579-.579c0-.32.259-.579.579-.579s.579.259.579.579h0"/><path id="kb" class="xj" d="m52.544,65.679c0,.32-.259.579-.579.579s-.579-.259-.579-.579c0-.32.259-.579.579-.579s.579.259.579.579h0"/><path id="kc" class="xj" d="m52.544,67.332c0,.32-.259.579-.579.579s-.579-.259-.579-.579c0-.32.259-.579.579-.579s.579.259.579.579h0"/><path id="kd" class="xj" d="m52.544,68.985c0,.32-.259.579-.579.579s-.579-.259-.579-.579c0-.32.259-.579.579-.579s.579.259.579.579h0"/><path id="ke" class="xj" d="m54.2,49.147c0,.32-.259.579-.579.579s-.579-.259-.579-.579.259-.579.579-.579h0c.32,0,.579.259.579.579"/><path id="kf" class="xj" d="m54.2,50.801c0,.32-.259.579-.579.579s-.579-.259-.579-.579.259-.579.579-.579h0c.32,0,.579.259.579.579"/><path id="kg" class="xj" d="m54.2,55.76c0,.32-.259.579-.579.579s-.579-.259-.579-.579.259-.579.579-.579h0c.32,0,.579.259.579.579"/><path id="kh" class="xj" d="m54.2,57.413c0,.32-.259.579-.579.579s-.579-.259-.579-.579.259-.579.579-.579h0c.32,0,.579.259.579.579"/><path id="ki" class="xj" d="m54.2,59.066c0,.32-.259.579-.579.579s-.579-.259-.579-.579.259-.579.579-.579h0c.32,0,.579.259.579.579"/><path id="kj" class="xj" d="m54.2,60.719c0,.32-.259.579-.579.579s-.579-.259-.579-.579.259-.579.579-.579h0c.32,0,.579.259.579.579"/><path id="kk" class="xj" d="m54.2,62.372c0,.32-.259.579-.579.579s-.579-.259-.579-.579.259-.579.579-.579h0c.32,0,.579.259.579.579"/><path id="kl" class="xj" d="m54.2,64.025c0,.32-.259.579-.579.579s-.579-.259-.579-.579c0-.32.259-.579.579-.579s.579.259.579.579h0"/><path id="km" class="xj" d="m54.2,65.679c0,.32-.259.579-.579.579s-.579-.259-.579-.579c0-.32.259-.579.579-.579s.579.259.579.579h0"/><path id="kn" class="xj" d="m54.2,67.332c0,.32-.259.579-.579.579s-.579-.259-.579-.579c0-.32.259-.579.579-.579s.579.259.579.579h0"/><path id="ko" class="xj" d="m54.2,68.985c0,.32-.259.579-.579.579s-.579-.259-.579-.579c0-.32.259-.579.579-.579s.579.259.579.579h0"/><path id="kp" class="xj" d="m55.857,55.76c0,.32-.259.579-.579.579s-.579-.259-.579-.579.259-.579.579-.579h0c.32,0,.579.259.579.579"/><path id="kq" class="xj" d="m55.857,57.413c0,.32-.259.579-.579.579s-.579-.259-.579-.579.259-.579.579-.579h0c.32,0,.579.259.579.579"/><path id="kr" class="xj" d="m55.857,59.066c0,.32-.259.579-.579.579s-.579-.259-.579-.579.259-.579.579-.579h0c.32,0,.579.259.579.579"/><path id="ks" class="xj" d="m55.857,60.719c0,.32-.259.579-.579.579s-.579-.259-.579-.579.259-.579.579-.579h0c.32,0,.579.259.579.579"/><path id="kt" class="xj" d="m55.857,62.372c0,.32-.259.579-.579.579s-.579-.259-.579-.579.259-.579.579-.579h0c.32,0,.579.259.579.579"/><path id="ku" class="xj" d="m55.857,64.025c0,.32-.259.579-.579.579s-.579-.259-.579-.579c0-.32.259-.579.579-.579s.579.259.579.579h0"/><path id="kv" class="xj" d="m55.857,65.679c0,.32-.259.579-.579.579s-.579-.259-.579-.579c0-.32.259-.579.579-.579s.579.259.579.579h0"/><path id="kw" class="xj" d="m55.857,67.332c0,.32-.259.579-.579.579s-.579-.259-.579-.579c0-.32.259-.579.579-.579s.579.259.579.579h0"/><path id="kx" class="xj" d="m55.857,68.985c0,.32-.259.579-.579.579s-.579-.259-.579-.579c0-.32.259-.579.579-.579s.579.259.579.579h0"/><path id="ky" class="xj" d="m57.513,54.107c0,.32-.259.579-.579.579s-.579-.259-.579-.579.259-.579.579-.579h0c.32,0,.579.259.579.579"/><path id="kz" class="xj" d="m57.513,55.76c0,.32-.259.579-.579.579s-.579-.259-.579-.579.259-.579.579-.579h0c.32,0,.579.259.579.579"/><path id="la" class="xj" d="m57.513,57.413c0,.32-.259.579-.579.579s-.579-.259-.579-.579.259-.579.579-.579h0c.32,0,.579.259.579.579"/><path id="lb" class="xj" d="m57.513,59.066c0,.32-.259.579-.579.579s-.579-.259-.579-.579.259-.579.579-.579h0c.32,0,.579.259.579.579"/><path id="lc" class="xj" d="m57.513,60.719c0,.32-.259.579-.579.579s-.579-.259-.579-.579.259-.579.579-.579h0c.32,0,.579.259.579.579"/><path id="ld" class="xj" d="m57.513,62.372c0,.32-.259.579-.579.579s-.579-.259-.579-.579.259-.579.579-.579h0c.32,0,.579.259.579.579"/><path id="le" class="xj" d="m57.513,64.025c0,.32-.259.579-.579.579s-.579-.259-.579-.579c0-.32.259-.579.579-.579s.579.259.579.579h0"/><path id="lf" class="xj" d="m57.513,65.679c0,.32-.259.579-.579.579s-.579-.259-.579-.579c0-.32.259-.579.579-.579s.579.259.579.579h0"/><path id="lg" class="xj" d="m57.513,67.332c0,.32-.259.579-.579.579s-.579-.259-.579-.579c0-.32.259-.579.579-.579s.579.259.579.579h0"/><path id="lh" class="xj" d="m59.169,49.147c0,.32-.259.579-.579.579s-.579-.259-.579-.579.259-.579.579-.579h0c.32,0,.579.259.579.579"/><path id="li" class="xj" d="m59.169,52.453c0,.32-.259.579-.579.579s-.579-.259-.579-.579.259-.579.579-.579h0c.32,0,.579.259.579.579"/><path id="lj" class="xj" d="m59.169,54.107c0,.32-.259.579-.579.579s-.579-.259-.579-.579.259-.579.579-.579h0c.32,0,.579.259.579.579"/><path id="lk" class="xj" d="m59.169,55.76c0,.32-.259.579-.579.579s-.579-.259-.579-.579.259-.579.579-.579h0c.32,0,.579.259.579.579"/><path id="ll" class="xj" d="m59.169,57.413c0,.32-.259.579-.579.579s-.579-.259-.579-.579.259-.579.579-.579h0c.32,0,.579.259.579.579"/><path id="lm" class="xj" d="m59.169,59.066c0,.32-.259.579-.579.579s-.579-.259-.579-.579.259-.579.579-.579h0c.32,0,.579.259.579.579"/><path id="ln" class="xj" d="m59.169,60.719c0,.32-.259.579-.579.579s-.579-.259-.579-.579.259-.579.579-.579h0c.32,0,.579.259.579.579"/><path id="lo" class="xj" d="m59.169,62.372c0,.32-.259.579-.579.579s-.579-.259-.579-.579.259-.579.579-.579h0c.32,0,.579.259.579.579"/><path id="lp" class="xj" d="m59.169,64.025c0,.32-.259.579-.579.579s-.579-.259-.579-.579c0-.32.259-.579.579-.579s.579.259.579.579h0"/><path id="lq" class="xj" d="m59.169,65.679c0,.32-.259.579-.579.579s-.579-.259-.579-.579c0-.32.259-.579.579-.579s.579.259.579.579h0"/><path id="lr" class="xj" d="m59.169,67.332c0,.32-.259.579-.579.579s-.579-.259-.579-.579c0-.32.259-.579.579-.579s.579.259.579.579h0"/><path id="ls" class="xj" d="m59.169,68.985c0,.32-.259.579-.579.579s-.579-.259-.579-.579c0-.32.259-.579.579-.579s.579.259.579.579h0"/><path id="lt" class="xj" d="m59.169,70.638c0,.32-.259.579-.579.579s-.579-.259-.579-.579c0-.32.259-.579.579-.579s.579.259.579.579h0"/><path id="lu" class="xj" d="m60.825,47.494c0,.32-.259.579-.579.579s-.579-.259-.579-.579.259-.579.579-.579h0c.32,0,.579.259.579.579"/><path id="lv" class="xj" d="m60.825,49.147c0,.32-.259.579-.579.579s-.579-.259-.579-.579.259-.579.579-.579h0c.32,0,.579.259.579.579"/><path id="lw" class="xj" d="m60.825,50.801c0,.32-.259.579-.579.579s-.579-.259-.579-.579.259-.579.579-.579h0c.32,0,.579.259.579.579"/><path id="lx" class="xj" d="m60.825,52.453c0,.32-.259.579-.579.579s-.579-.259-.579-.579.259-.579.579-.579h0c.32,0,.579.259.579.579"/><path id="ly" class="xj" d="m60.825,54.107c0,.32-.259.579-.579.579s-.579-.259-.579-.579.259-.579.579-.579h0c.32,0,.579.259.579.579"/><path id="lz" class="xj" d="m60.825,55.76c0,.32-.259.579-.579.579s-.579-.259-.579-.579.259-.579.579-.579h0c.32,0,.579.259.579.579"/><path id="ma" class="xj" d="m60.825,57.413c0,.32-.259.579-.579.579s-.579-.259-.579-.579.259-.579.579-.579h0c.32,0,.579.259.579.579"/><path id="mb" class="xj" d="m60.825,59.066c0,.32-.259.579-.579.579s-.579-.259-.579-.579.259-.579.579-.579h0c.32,0,.579.259.579.579"/><path id="mc" class="xj" d="m60.825,60.719c0,.32-.259.579-.579.579s-.579-.259-.579-.579.259-.579.579-.579h0c.32,0,.579.259.579.579"/><path id="md" class="xj" d="m60.825,62.372c0,.32-.259.579-.579.579s-.579-.259-.579-.579.259-.579.579-.579h0c.32,0,.579.259.579.579"/><path id="me" class="xj" d="m60.825,64.025c0,.32-.259.579-.579.579s-.579-.259-.579-.579c0-.32.259-.579.579-.579s.579.259.579.579h0"/><path id="mf" class="xj" d="m60.825,65.679c0,.32-.259.579-.579.579s-.579-.259-.579-.579c0-.32.259-.579.579-.579s.579.259.579.579h0"/><path id="mg" class="xj" d="m60.825,67.332c0,.32-.259.579-.579.579s-.579-.259-.579-.579c0-.32.259-.579.579-.579s.579.259.579.579h0"/><path id="mh" class="xj" d="m60.825,68.985c0,.32-.259.579-.579.579s-.579-.259-.579-.579c0-.32.259-.579.579-.579s.579.259.579.579h0"/><path id="mi" class="xj" d="m62.482,47.494c0,.32-.259.579-.579.579s-.579-.259-.579-.579.259-.579.579-.579h0c.32,0,.579.259.579.579"/><path id="mj" class="xj" d="m62.482,49.147c0,.32-.259.579-.579.579s-.579-.259-.579-.579.259-.579.579-.579h0c.32,0,.579.259.579.579"/><path id="mk" class="xj" d="m62.482,50.801c0,.32-.259.579-.579.579s-.579-.259-.579-.579.259-.579.579-.579h0c.32,0,.579.259.579.579"/><path id="ml" class="xj" d="m62.482,52.453c0,.32-.259.579-.579.579s-.579-.259-.579-.579.259-.579.579-.579h0c.32,0,.579.259.579.579"/><path id="mm" class="xj" d="m62.482,54.107c0,.32-.259.579-.579.579s-.579-.259-.579-.579.259-.579.579-.579h0c.32,0,.579.259.579.579"/><path id="mn" class="xj" d="m62.482,55.76c0,.32-.259.579-.579.579s-.579-.259-.579-.579.259-.579.579-.579h0c.32,0,.579.259.579.579"/><path id="mo" class="xj" d="m62.482,57.413c0,.32-.259.579-.579.579s-.579-.259-.579-.579.259-.579.579-.579h0c.32,0,.579.259.579.579"/><path id="mp" class="xj" d="m62.482,59.066c0,.32-.259.579-.579.579s-.579-.259-.579-.579.259-.579.579-.579h0c.32,0,.579.259.579.579"/><path id="mq" class="xj" d="m62.482,60.719c0,.32-.259.579-.579.579s-.579-.259-.579-.579.259-.579.579-.579h0c.32,0,.579.259.579.579"/><path id="mr" class="xj" d="m62.482,62.372c0,.32-.259.579-.579.579s-.579-.259-.579-.579.259-.579.579-.579h0c.32,0,.579.259.579.579"/><path id="ms" class="xj" d="m62.482,64.025c0,.32-.259.579-.579.579s-.579-.259-.579-.579c0-.32.259-.579.579-.579s.579.259.579.579h0"/><path id="mt" class="xj" d="m62.482,65.679c0,.32-.259.579-.579.579s-.579-.259-.579-.579c0-.32.259-.579.579-.579s.579.259.579.579h0"/><path id="mu" class="xj" d="m64.138,50.801c0,.32-.259.579-.579.579s-.579-.259-.579-.579.259-.579.579-.579.579.259.579.579h0"/><path id="mv" class="xj" d="m64.138,52.453c0,.32-.259.579-.579.579s-.579-.259-.579-.579.259-.579.579-.579.579.259.579.579h0"/><path id="mw" class="xj" d="m64.138,54.107c0,.32-.259.579-.579.579s-.579-.259-.579-.579.259-.579.579-.579.579.259.579.579h0"/><path id="mx" class="xj" d="m64.138,55.76c0,.32-.259.579-.579.579s-.579-.259-.579-.579.259-.579.579-.579.579.259.579.579h0"/><path id="my" class="xj" d="m64.138,57.413c0,.32-.259.579-.579.579s-.579-.259-.579-.579.259-.579.579-.579.579.259.579.579h0"/><path id="mz" class="xj" d="m64.138,59.066c0,.32-.259.579-.579.579s-.579-.259-.579-.579.259-.579.579-.579.579.259.579.579h0"/><path id="na" class="xj" d="m64.138,60.719c0,.32-.259.579-.579.579s-.579-.259-.579-.579.259-.579.579-.579.579.259.579.579h0"/><path id="nb" class="xj" d="m64.138,62.372c0,.32-.259.579-.579.579s-.579-.259-.579-.579.259-.579.579-.579.579.259.579.579h0"/><path id="nc" class="xj" d="m64.138,64.025c0,.32-.259.579-.579.579s-.579-.259-.579-.579.259-.579.579-.579.579.259.579.579h0"/><path id="nd" class="xj" d="m64.138,65.679c0,.32-.259.579-.579.579s-.579-.259-.579-.579.259-.579.579-.579.579.259.579.579h0"/><path id="ne" class="xj" d="m64.138,67.332c0,.32-.259.579-.579.579s-.579-.259-.579-.579.259-.579.579-.579.579.259.579.579h0"/><path id="nf" class="xj" d="m64.138,68.985c0,.32-.259.579-.579.579s-.579-.259-.579-.579.259-.579.579-.579.579.259.579.579h0"/><path id="ng" class="xj" d="m65.794,47.494c0,.32-.259.579-.579.579s-.579-.259-.579-.579.259-.579.579-.579.579.259.579.579h0"/><path id="nh" class="xj" d="m65.794,49.147c0,.32-.259.579-.579.579s-.579-.259-.579-.579.259-.579.579-.579.579.259.579.579h0"/><path id="ni" class="xj" d="m65.794,50.801c0,.32-.259.579-.579.579s-.579-.259-.579-.579.259-.579.579-.579.579.259.579.579h0"/><path id="nj" class="xj" d="m65.794,52.453c0,.32-.259.579-.579.579s-.579-.259-.579-.579.259-.579.579-.579.579.259.579.579h0"/><path id="nk" class="xj" d="m65.794,54.107c0,.32-.259.579-.579.579s-.579-.259-.579-.579.259-.579.579-.579.579.259.579.579h0"/><path id="nl" class="xj" d="m65.794,55.76c0,.32-.259.579-.579.579s-.579-.259-.579-.579.259-.579.579-.579.579.259.579.579h0"/><path id="nm" class="xj" d="m65.794,57.413c0,.32-.259.579-.579.579s-.579-.259-.579-.579.259-.579.579-.579.579.259.579.579h0"/><path id="nn" class="xj" d="m65.794,59.066c0,.32-.259.579-.579.579s-.579-.259-.579-.579.259-.579.579-.579.579.259.579.579h0"/><path id="no" class="xj" d="m65.794,60.719c0,.32-.259.579-.579.579s-.579-.259-.579-.579.259-.579.579-.579.579.259.579.579h0"/><path id="np" class="xj" d="m65.794,62.372c0,.32-.259.579-.579.579s-.579-.259-.579-.579.259-.579.579-.579.579.259.579.579h0"/><path id="nq" class="xj" d="m65.794,64.025c0,.32-.259.579-.579.579s-.579-.259-.579-.579.259-.579.579-.579.579.259.579.579h0"/><path id="nr" class="xj" d="m65.794,65.679c0,.32-.259.579-.579.579s-.579-.259-.579-.579.259-.579.579-.579.579.259.579.579h0"/><path id="ns" class="xj" d="m65.794,67.332c0,.32-.259.579-.579.579s-.579-.259-.579-.579.259-.579.579-.579.579.259.579.579h0"/><path id="nt" class="xj" d="m65.794,68.985c0,.32-.259.579-.579.579s-.579-.259-.579-.579.259-.579.579-.579.579.259.579.579h0"/><path id="nu" class="xj" d="m67.451,45.841c0,.32-.259.579-.579.579s-.579-.259-.579-.579.259-.579.579-.579.579.259.579.579h0"/><path id="nv" class="xj" d="m67.451,47.494c0,.32-.259.579-.579.579s-.579-.259-.579-.579.259-.579.579-.579.579.259.579.579h0"/><path id="nw" class="xj" d="m67.451,49.147c0,.32-.259.579-.579.579s-.579-.259-.579-.579.259-.579.579-.579.579.259.579.579h0"/><path id="nx" class="xj" d="m67.451,50.801c0,.32-.259.579-.579.579s-.579-.259-.579-.579.259-.579.579-.579.579.259.579.579h0"/><path id="ny" class="xj" d="m67.451,52.453c0,.32-.259.579-.579.579s-.579-.259-.579-.579.259-.579.579-.579.579.259.579.579h0"/><path id="nz" class="xj" d="m67.451,54.107c0,.32-.259.579-.579.579s-.579-.259-.579-.579.259-.579.579-.579.579.259.579.579h0"/><path id="oa" class="xj" d="m67.451,55.76c0,.32-.259.579-.579.579s-.579-.259-.579-.579.259-.579.579-.579.579.259.579.579h0"/><path id="ob" class="xj" d="m67.451,57.413c0,.32-.259.579-.579.579s-.579-.259-.579-.579.259-.579.579-.579.579.259.579.579h0"/><path id="oc" class="xj" d="m67.451,59.066c0,.32-.259.579-.579.579s-.579-.259-.579-.579.259-.579.579-.579.579.259.579.579h0"/><path id="od" class="xj" d="m67.451,60.719c0,.32-.259.579-.579.579s-.579-.259-.579-.579.259-.579.579-.579.579.259.579.579h0"/><path id="oe" class="xj" d="m67.451,62.372c0,.32-.259.579-.579.579s-.579-.259-.579-.579.259-.579.579-.579.579.259.579.579h0"/><path id="of" class="xj" d="m67.451,64.025c0,.32-.259.579-.579.579s-.579-.259-.579-.579.259-.579.579-.579.579.259.579.579h0"/><path id="og" class="xj" d="m67.451,65.679c0,.32-.259.579-.579.579s-.579-.259-.579-.579.259-.579.579-.579.579.259.579.579h0"/><path id="oh" class="xj" d="m67.451,67.332c0,.32-.259.579-.579.579s-.579-.259-.579-.579.259-.579.579-.579.579.259.579.579h0"/><path id="oi" class="xj" d="m35.919,59.066c0,.32-.259.579-.579.579s-.579-.259-.579-.579.259-.579.579-.579h0c.32,0,.579.259.579.579"/><path id="oj" class="xj" d="m35.919,60.719c0,.32-.259.579-.579.579s-.579-.259-.579-.579.259-.579.579-.579h0c.32,0,.579.259.579.579"/><path id="ok" class="xj" d="m35.919,62.372c0,.32-.259.579-.579.579s-.579-.259-.579-.579.259-.579.579-.579h0c.32,0,.579.259.579.579"/><path id="ol" class="xj" d="m35.919,64.025c0,.32-.259.579-.579.579s-.579-.259-.579-.579c0-.32.259-.579.579-.579s.579.259.579.579h0"/><path id="om" class="xj" d="m37.576,59.066c0,.32-.259.579-.579.579s-.579-.259-.579-.579.259-.579.579-.579h0c.32,0,.579.259.579.579"/><path id="on" class="xj" d="m37.576,60.719c0,.32-.259.579-.579.579s-.579-.259-.579-.579.259-.579.579-.579h0c.32,0,.579.259.579.579"/><path id="oo" class="xj" d="m37.576,62.372c0,.32-.259.579-.579.579s-.579-.259-.579-.579.259-.579.579-.579h0c.32,0,.579.259.579.579"/><path id="op" class="xj" d="m37.576,64.025c0,.32-.259.579-.579.579s-.579-.259-.579-.579c0-.32.259-.579.579-.579s.579.259.579.579h0"/><path id="oq" class="xj" d="m37.576,65.679c0,.32-.259.579-.579.579s-.579-.259-.579-.579c0-.32.259-.579.579-.579s.579.259.579.579h0"/><path id="or" class="xj" d="m37.576,67.332c0,.32-.259.579-.579.579s-.579-.259-.579-.579c0-.32.259-.579.579-.579s.579.259.579.579h0"/><path id="os" class="xj" d="m37.576,68.985c0,.32-.259.579-.579.579s-.579-.259-.579-.579c0-.32.259-.579.579-.579s.579.259.579.579h0"/><path id="ot" class="xj" d="m37.576,70.638c0,.32-.259.579-.579.579s-.579-.259-.579-.579c0-.32.259-.579.579-.579s.579.259.579.579h0"/><path id="ou" class="xj" d="m37.576,72.291c0,.32-.259.579-.579.579s-.579-.259-.579-.579c0-.32.259-.579.579-.579s.579.259.579.579h0"/><path id="ov" class="xj" d="m39.232,59.066c0,.32-.259.579-.579.579s-.579-.259-.579-.579.259-.579.579-.579h0c.32,0,.579.259.579.579"/><path id="ow" class="xj" d="m39.232,60.719c0,.32-.259.579-.579.579s-.579-.259-.579-.579.259-.579.579-.579h0c.32,0,.579.259.579.579"/><path id="ox" class="xj" d="m39.232,62.372c0,.32-.259.579-.579.579s-.579-.259-.579-.579.259-.579.579-.579h0c.32,0,.579.259.579.579"/><path id="oy" class="xj" d="m39.232,64.025c0,.32-.259.579-.579.579s-.579-.259-.579-.579c0-.32.259-.579.579-.579s.579.259.579.579h0"/><path id="oz" class="xj" d="m39.232,65.679c0,.32-.259.579-.579.579s-.579-.259-.579-.579c0-.32.259-.579.579-.579s.579.259.579.579h0"/><path id="pa" class="xj" d="m39.232,67.332c0,.32-.259.579-.579.579s-.579-.259-.579-.579c0-.32.259-.579.579-.579s.579.259.579.579h0"/><path id="pb" class="xj" d="m39.232,68.985c0,.32-.259.579-.579.579s-.579-.259-.579-.579c0-.32.259-.579.579-.579s.579.259.579.579h0"/><path id="pc" class="xj" d="m39.232,70.638c0,.32-.259.579-.579.579s-.579-.259-.579-.579c0-.32.259-.579.579-.579s.579.259.579.579h0"/><path id="pd" class="xj" d="m39.232,72.291c0,.32-.259.579-.579.579s-.579-.259-.579-.579c0-.32.259-.579.579-.579s.579.259.579.579h0"/><path id="pe" class="xj" d="m39.232,73.945c0,.32-.259.579-.579.579s-.579-.259-.579-.579c0-.32.259-.579.579-.579s.579.259.579.579h0"/><path id="pf" class="xj" d="m40.889,59.066c0,.32-.259.579-.579.579s-.579-.259-.579-.579.259-.579.579-.579h0c.32,0,.579.259.579.579"/><path id="pg" class="xj" d="m40.889,60.719c0,.32-.259.579-.579.579s-.579-.259-.579-.579.259-.579.579-.579h0c.32,0,.579.259.579.579"/><path id="ph" class="xj" d="m40.889,62.372c0,.32-.259.579-.579.579s-.579-.259-.579-.579.259-.579.579-.579h0c.32,0,.579.259.579.579"/><path id="pi" class="xj" d="m40.889,64.025c0,.32-.259.579-.579.579s-.579-.259-.579-.579c0-.32.259-.579.579-.579s.579.259.579.579h0"/><path id="pj" class="xj" d="m40.889,65.679c0,.32-.259.579-.579.579s-.579-.259-.579-.579c0-.32.259-.579.579-.579s.579.259.579.579h0"/><path id="pk" class="xj" d="m40.889,67.332c0,.32-.259.579-.579.579s-.579-.259-.579-.579c0-.32.259-.579.579-.579s.579.259.579.579h0"/><path id="pl" class="xj" d="m40.889,68.985c0,.32-.259.579-.579.579s-.579-.259-.579-.579c0-.32.259-.579.579-.579s.579.259.579.579h0"/><path id="pm" class="xj" d="m40.889,70.638c0,.32-.259.579-.579.579s-.579-.259-.579-.579c0-.32.259-.579.579-.579s.579.259.579.579h0"/><path id="pn" class="xj" d="m40.889,72.291c0,.32-.259.579-.579.579s-.579-.259-.579-.579c0-.32.259-.579.579-.579s.579.259.579.579h0"/><path id="po" class="xj" d="m40.889,73.945c0,.32-.259.579-.579.579s-.579-.259-.579-.579c0-.32.259-.579.579-.579s.579.259.579.579h0"/><path id="pp" class="xj" d="m42.545,60.719c0,.32-.259.579-.579.579s-.579-.259-.579-.579.259-.579.579-.579h0c.32,0,.579.259.579.579"/><path id="pq" class="xj" d="m42.545,62.372c0,.32-.259.579-.579.579s-.579-.259-.579-.579.259-.579.579-.579h0c.32,0,.579.259.579.579"/><path id="pr" class="xj" d="m42.545,64.025c0,.32-.259.579-.579.579s-.579-.259-.579-.579c0-.32.259-.579.579-.579s.579.259.579.579h0"/><path id="ps" class="xj" d="m42.545,65.679c0,.32-.259.579-.579.579s-.579-.259-.579-.579c0-.32.259-.579.579-.579s.579.259.579.579h0"/><path id="pt" class="xj" d="m42.545,67.332c0,.32-.259.579-.579.579s-.579-.259-.579-.579c0-.32.259-.579.579-.579s.579.259.579.579h0"/><path id="pu" class="xj" d="m42.545,68.985c0,.32-.259.579-.579.579s-.579-.259-.579-.579c0-.32.259-.579.579-.579s.579.259.579.579h0"/><path id="pv" class="xj" d="m42.545,70.638c0,.32-.259.579-.579.579s-.579-.259-.579-.579c0-.32.259-.579.579-.579s.579.259.579.579h0"/><path id="pw" class="xj" d="m42.545,72.291c0,.32-.259.579-.579.579s-.579-.259-.579-.579c0-.32.259-.579.579-.579s.579.259.579.579h0"/><path id="px" class="xj" d="m44.202,60.719c0,.32-.259.579-.579.579s-.579-.259-.579-.579.259-.579.579-.579h0c.32,0,.579.259.579.579"/><path id="py" class="xj" d="m44.202,62.372c0,.32-.259.579-.579.579s-.579-.259-.579-.579.259-.579.579-.579h0c.32,0,.579.259.579.579"/><path id="pz" class="xj" d="m44.202,65.679c0,.32-.259.579-.579.579s-.579-.259-.579-.579c0-.32.259-.579.579-.579s.579.259.579.579h0"/><path id="qa" class="xj" d="m44.202,67.332c0,.32-.259.579-.579.579s-.579-.259-.579-.579c0-.32.259-.579.579-.579s.579.259.579.579h0"/><path id="qb" class="xj" d="m44.202,68.985c0,.32-.259.579-.579.579s-.579-.259-.579-.579c0-.32.259-.579.579-.579s.579.259.579.579h0"/><path id="qc" class="xj" d="m44.202,70.638c0,.32-.259.579-.579.579s-.579-.259-.579-.579c0-.32.259-.579.579-.579s.579.259.579.579h0"/><path id="qd" class="xj" d="m45.857,59.066c0,.32-.259.579-.579.579s-.579-.259-.579-.579.259-.579.579-.579h0c.32,0,.579.259.579.579"/><path id="qe" class="xj" d="m45.857,60.719c0,.32-.259.579-.579.579s-.579-.259-.579-.579.259-.579.579-.579h0c.32,0,.579.259.579.579"/><path id="qf" class="xj" d="m45.857,62.372c0,.32-.259.579-.579.579s-.579-.259-.579-.579.259-.579.579-.579h0c.32,0,.579.259.579.579"/><path id="qg" class="xj" d="m45.857,64.025c0,.32-.259.579-.579.579s-.579-.259-.579-.579c0-.32.259-.579.579-.579s.579.259.579.579h0"/><path id="qh" class="xj" d="m45.857,65.679c0,.32-.259.579-.579.579s-.579-.259-.579-.579c0-.32.259-.579.579-.579s.579.259.579.579h0"/><path id="qi" class="xj" d="m45.857,67.332c0,.32-.259.579-.579.579s-.579-.259-.579-.579c0-.32.259-.579.579-.579s.579.259.579.579h0"/><path id="qj" class="xj" d="m45.857,68.985c0,.32-.259.579-.579.579s-.579-.259-.579-.579c0-.32.259-.579.579-.579s.579.259.579.579h0"/><path id="qk" class="xj" d="m47.514,55.76c0,.32-.259.579-.579.579s-.579-.259-.579-.579.259-.579.579-.579h0c.32,0,.579.259.579.579"/><path id="ql" class="xj" d="m47.514,57.413c0,.32-.259.579-.579.579s-.579-.259-.579-.579.259-.579.579-.579h0c.32,0,.579.259.579.579"/><path id="qm" class="xj" d="m47.514,59.066c0,.32-.259.579-.579.579s-.579-.259-.579-.579.259-.579.579-.579h0c.32,0,.579.259.579.579"/><path id="qn" class="xj" d="m47.514,60.719c0,.32-.259.579-.579.579s-.579-.259-.579-.579.259-.579.579-.579h0c.32,0,.579.259.579.579"/><path id="qo" class="xj" d="m47.514,62.372c0,.32-.259.579-.579.579s-.579-.259-.579-.579.259-.579.579-.579h0c.32,0,.579.259.579.579"/><path id="qp" class="xj" d="m47.514,64.025c0,.32-.259.579-.579.579s-.579-.259-.579-.579c0-.32.259-.579.579-.579s.579.259.579.579h0"/><path id="qq" class="xj" d="m47.514,65.679c0,.32-.259.579-.579.579s-.579-.259-.579-.579c0-.32.259-.579.579-.579s.579.259.579.579h0"/><path id="qr" class="xj" d="m47.514,67.332c0,.32-.259.579-.579.579s-.579-.259-.579-.579c0-.32.259-.579.579-.579s.579.259.579.579h0"/><path id="qs" class="xj" d="m47.514,68.985c0,.32-.259.579-.579.579s-.579-.259-.579-.579c0-.32.259-.579.579-.579s.579.259.579.579h0"/><path id="qt" class="xj" d="m49.17,55.76c0,.32-.259.579-.579.579s-.579-.259-.579-.579.259-.579.579-.579h0c.32,0,.579.259.579.579"/><path id="qu" class="xj" d="m49.17,57.413c0,.32-.259.579-.579.579s-.579-.259-.579-.579.259-.579.579-.579h0c.32,0,.579.259.579.579"/><path id="qv" class="xj" d="m49.17,59.066c0,.32-.259.579-.579.579s-.579-.259-.579-.579.259-.579.579-.579h0c.32,0,.579.259.579.579"/><path id="qw" class="xj" d="m49.17,60.719c0,.32-.259.579-.579.579s-.579-.259-.579-.579.259-.579.579-.579h0c.32,0,.579.259.579.579"/><path id="qx" class="xj" d="m49.17,62.372c0,.32-.259.579-.579.579s-.579-.259-.579-.579.259-.579.579-.579h0c.32,0,.579.259.579.579"/><path id="qy" class="xj" d="m49.17,64.025c0,.32-.259.579-.579.579s-.579-.259-.579-.579c0-.32.259-.579.579-.579s.579.259.579.579h0"/><path id="qz" class="xj" d="m49.17,65.679c0,.32-.259.579-.579.579s-.579-.259-.579-.579c0-.32.259-.579.579-.579s.579.259.579.579h0"/><path id="ra" class="xj" d="m49.17,67.332c0,.32-.259.579-.579.579s-.579-.259-.579-.579c0-.32.259-.579.579-.579s.579.259.579.579h0"/><path id="rb" class="xj" d="m49.17,68.985c0,.32-.259.579-.579.579s-.579-.259-.579-.579c0-.32.259-.579.579-.579s.579.259.579.579h0"/><path id="rc" class="xj" d="m50.827,50.801c0,.32-.259.579-.579.579s-.579-.259-.579-.579.259-.579.579-.579h0c.32,0,.579.259.579.579"/><path id="rd" class="xj" d="m50.827,52.453c0,.32-.259.579-.579.579s-.579-.259-.579-.579.259-.579.579-.579h0c.32,0,.579.259.579.579"/><path id="re" class="xj" d="m50.827,54.107c0,.32-.259.579-.579.579s-.579-.259-.579-.579.259-.579.579-.579h0c.32,0,.579.259.579.579"/><path id="rf" class="xj" d="m50.827,55.76c0,.32-.259.579-.579.579s-.579-.259-.579-.579.259-.579.579-.579h0c.32,0,.579.259.579.579"/><path id="rg" class="xj" d="m50.827,57.413c0,.32-.259.579-.579.579s-.579-.259-.579-.579.259-.579.579-.579h0c.32,0,.579.259.579.579"/><path id="rh" class="xj" d="m50.827,59.066c0,.32-.259.579-.579.579s-.579-.259-.579-.579.259-.579.579-.579h0c.32,0,.579.259.579.579"/><path id="ri" class="xj" d="m50.827,60.719c0,.32-.259.579-.579.579s-.579-.259-.579-.579.259-.579.579-.579h0c.32,0,.579.259.579.579"/><path id="rj" class="xj" d="m50.827,62.372c0,.32-.259.579-.579.579s-.579-.259-.579-.579.259-.579.579-.579h0c.32,0,.579.259.579.579"/><path id="rk" class="xj" d="m50.827,64.025c0,.32-.259.579-.579.579s-.579-.259-.579-.579c0-.32.259-.579.579-.579s.579.259.579.579h0"/><path id="rl" class="xj" d="m50.827,65.679c0,.32-.259.579-.579.579s-.579-.259-.579-.579c0-.32.259-.579.579-.579s.579.259.579.579h0"/><path id="rm" class="xj" d="m50.827,67.332c0,.32-.259.579-.579.579s-.579-.259-.579-.579c0-.32.259-.579.579-.579s.579.259.579.579h0"/><path id="rn" class="xj" d="m50.827,68.985c0,.32-.259.579-.579.579s-.579-.259-.579-.579c0-.32.259-.579.579-.579s.579.259.579.579h0"/><path id="ro" class="xj" d="m19.367,62.372c0,.32-.259.579-.579.579s-.579-.259-.579-.579.259-.579.579-.579h0c.32,0,.579.259.579.579"/><path id="rp" class="xj" d="m19.367,64.025c0,.32-.259.579-.579.579s-.579-.259-.579-.579c0-.32.259-.579.579-.579s.579.259.579.579h0"/><path id="rq" class="xj" d="m19.367,68.985c0,.32-.259.579-.579.579s-.579-.259-.579-.579c0-.32.259-.579.579-.579s.579.259.579.579h0"/><path id="rr" class="xj" d="m19.367,70.638c0,.32-.259.579-.579.579s-.579-.259-.579-.579c0-.32.259-.579.579-.579s.579.259.579.579h0"/><path id="rs" class="xj" d="m19.367,72.291c0,.32-.259.579-.579.579s-.579-.259-.579-.579c0-.32.259-.579.579-.579s.579.259.579.579h0"/><path id="rt" class="xj" d="m21.023,60.719c0,.32-.259.579-.579.579s-.579-.259-.579-.579.259-.579.579-.579h0c.32,0,.579.259.579.579"/><path id="ru" class="xj" d="m21.023,62.372c0,.32-.259.579-.579.579s-.579-.259-.579-.579.259-.579.579-.579h0c.32,0,.579.259.579.579"/><path id="rv" class="xj" d="m21.023,64.025c0,.32-.259.579-.579.579s-.579-.259-.579-.579c0-.32.259-.579.579-.579s.579.259.579.579h0"/><path id="rw" class="xj" d="m21.023,65.679c0,.32-.259.579-.579.579s-.579-.259-.579-.579c0-.32.259-.579.579-.579s.579.259.579.579h0"/><path id="rx" class="xj" d="m22.679,60.719c0,.32-.259.579-.579.579s-.579-.259-.579-.579.259-.579.579-.579h0c.32,0,.579.259.579.579"/><path id="ry" class="xj" d="m22.679,62.372c0,.32-.259.579-.579.579s-.579-.259-.579-.579.259-.579.579-.579h0c.32,0,.579.259.579.579"/><path id="rz" class="xj" d="m22.679,64.025c0,.32-.259.579-.579.579s-.579-.259-.579-.579c0-.32.259-.579.579-.579s.579.259.579.579h0"/><path id="sa" class="xj" d="m22.679,67.332c0,.32-.259.579-.579.579s-.579-.259-.579-.579c0-.32.259-.579.579-.579s.579.259.579.579h0"/><path id="sb" class="xj" d="m22.679,68.985c0,.32-.259.579-.579.579s-.579-.259-.579-.579c0-.32.259-.579.579-.579s.579.259.579.579h0"/><path id="sc" class="xj" d="m22.679,70.638c0,.32-.259.579-.579.579s-.579-.259-.579-.579c0-.32.259-.579.579-.579s.579.259.579.579h0"/><path id="sd" class="xj" d="m22.679,72.291c0,.32-.259.579-.579.579s-.579-.259-.579-.579c0-.32.259-.579.579-.579s.579.259.579.579h0"/><path id="se" class="xj" d="m22.679,73.945c0,.32-.259.579-.579.579s-.579-.259-.579-.579c0-.32.259-.579.579-.579s.579.259.579.579h0"/><path id="sf" class="xj" d="m24.336,59.066c0,.32-.259.579-.579.579s-.579-.259-.579-.579.259-.579.579-.579h0c.32,0,.579.259.579.579"/><path id="sg" class="xj" d="m24.336,60.719c0,.32-.259.579-.579.579s-.579-.259-.579-.579.259-.579.579-.579h0c.32,0,.579.259.579.579"/><path id="sh" class="xj" d="m24.336,62.372c0,.32-.259.579-.579.579s-.579-.259-.579-.579.259-.579.579-.579h0c.32,0,.579.259.579.579"/><path id="si" class="xj" d="m24.336,64.025c0,.32-.259.579-.579.579s-.579-.259-.579-.579c0-.32.259-.579.579-.579s.579.259.579.579h0"/><path id="sj" class="xj" d="m24.336,67.332c0,.32-.259.579-.579.579s-.579-.259-.579-.579c0-.32.259-.579.579-.579s.579.259.579.579h0"/><path id="sk" class="xj" d="m24.336,68.985c0,.32-.259.579-.579.579s-.579-.259-.579-.579c0-.32.259-.579.579-.579s.579.259.579.579h0"/><path id="sl" class="xj" d="m24.336,70.638c0,.32-.259.579-.579.579s-.579-.259-.579-.579c0-.32.259-.579.579-.579s.579.259.579.579h0"/><path id="sm" class="xj" d="m24.336,72.291c0,.32-.259.579-.579.579s-.579-.259-.579-.579c0-.32.259-.579.579-.579s.579.259.579.579h0"/><path id="sn" class="xj" d="m24.336,73.945c0,.32-.259.579-.579.579s-.579-.259-.579-.579c0-.32.259-.579.579-.579s.579.259.579.579h0"/><path id="so" class="xj" d="m25.991,59.066c0,.32-.259.579-.579.579s-.579-.259-.579-.579.259-.579.579-.579h0c.32,0,.579.259.579.579"/><path id="sp" class="xj" d="m25.991,60.719c0,.32-.259.579-.579.579s-.579-.259-.579-.579.259-.579.579-.579h0c.32,0,.579.259.579.579"/><path id="sq" class="xj" d="m25.991,62.372c0,.32-.259.579-.579.579s-.579-.259-.579-.579.259-.579.579-.579h0c.32,0,.579.259.579.579"/><path id="sr" class="xj" d="m25.991,64.025c0,.32-.259.579-.579.579s-.579-.259-.579-.579c0-.32.259-.579.579-.579s.579.259.579.579h0"/><path id="ss" class="xj" d="m25.991,67.332c0,.32-.259.579-.579.579s-.579-.259-.579-.579c0-.32.259-.579.579-.579s.579.259.579.579h0"/><path id="st" class="xj" d="m25.991,68.985c0,.32-.259.579-.579.579s-.579-.259-.579-.579c0-.32.259-.579.579-.579s.579.259.579.579h0"/><path id="su" class="xj" d="m25.991,70.638c0,.32-.259.579-.579.579s-.579-.259-.579-.579c0-.32.259-.579.579-.579s.579.259.579.579h0"/><path id="sv" class="xj" d="m25.991,72.291c0,.32-.259.579-.579.579s-.579-.259-.579-.579c0-.32.259-.579.579-.579s.579.259.579.579h0"/><path id="sw" class="xj" d="m27.648,57.413c0,.32-.259.579-.579.579s-.579-.259-.579-.579.259-.579.579-.579h0c.32,0,.579.259.579.579"/><path id="sx" class="xj" d="m27.648,59.066c0,.32-.259.579-.579.579s-.579-.259-.579-.579.259-.579.579-.579h0c.32,0,.579.259.579.579"/><path id="sy" class="xj" d="m27.648,60.719c0,.32-.259.579-.579.579s-.579-.259-.579-.579.259-.579.579-.579h0c.32,0,.579.259.579.579"/><path id="sz" class="xj" d="m27.648,62.372c0,.32-.259.579-.579.579s-.579-.259-.579-.579.259-.579.579-.579h0c.32,0,.579.259.579.579"/><path id="ta" class="xj" d="m27.648,64.025c0,.32-.259.579-.579.579s-.579-.259-.579-.579c0-.32.259-.579.579-.579s.579.259.579.579h0"/><path id="tb" class="xj" d="m27.648,67.332c0,.32-.259.579-.579.579s-.579-.259-.579-.579c0-.32.259-.579.579-.579s.579.259.579.579h0"/><path id="tc" class="xj" d="m27.648,68.985c0,.32-.259.579-.579.579s-.579-.259-.579-.579c0-.32.259-.579.579-.579s.579.259.579.579h0"/><path id="td" class="xj" d="m27.648,70.638c0,.32-.259.579-.579.579s-.579-.259-.579-.579c0-.32.259-.579.579-.579s.579.259.579.579h0"/><path id="te" class="xj" d="m29.305,57.413c0,.32-.259.579-.579.579s-.579-.259-.579-.579.259-.579.579-.579h0c.32,0,.579.259.579.579"/><path id="tf" class="xj" d="m29.305,59.066c0,.32-.259.579-.579.579s-.579-.259-.579-.579.259-.579.579-.579h0c.32,0,.579.259.579.579"/><path id="tg" class="xj" d="m29.305,60.719c0,.32-.259.579-.579.579s-.579-.259-.579-.579.259-.579.579-.579h0c.32,0,.579.259.579.579"/><path id="th" class="xj" d="m29.305,62.372c0,.32-.259.579-.579.579s-.579-.259-.579-.579.259-.579.579-.579h0c.32,0,.579.259.579.579"/><path id="ti" class="xj" d="m29.305,64.025c0,.32-.259.579-.579.579s-.579-.259-.579-.579c0-.32.259-.579.579-.579s.579.259.579.579h0"/><path id="tj" class="xj" d="m29.305,67.332c0,.32-.259.579-.579.579s-.579-.259-.579-.579c0-.32.259-.579.579-.579s.579.259.579.579h0"/><path id="tk" class="xj" d="m29.305,68.985c0,.32-.259.579-.579.579s-.579-.259-.579-.579c0-.32.259-.579.579-.579s.579.259.579.579h0"/><path id="tl" class="xj" d="m29.305,70.638c0,.32-.259.579-.579.579s-.579-.259-.579-.579c0-.32.259-.579.579-.579s.579.259.579.579h0"/><path id="tm" class="xj" d="m30.961,57.413c0,.32-.259.579-.579.579s-.579-.259-.579-.579.259-.579.579-.579h0c.32,0,.579.259.579.579"/><path id="tn" class="xj" d="m30.961,59.066c0,.32-.259.579-.579.579s-.579-.259-.579-.579.259-.579.579-.579h0c.32,0,.579.259.579.579"/><path id="to" class="xj" d="m30.961,60.719c0,.32-.259.579-.579.579s-.579-.259-.579-.579.259-.579.579-.579h0c.32,0,.579.259.579.579"/><path id="tp" class="xj" d="m30.961,62.372c0,.32-.259.579-.579.579s-.579-.259-.579-.579.259-.579.579-.579h0c.32,0,.579.259.579.579"/><path id="tq" class="xj" d="m30.961,64.025c0,.32-.259.579-.579.579s-.579-.259-.579-.579c0-.32.259-.579.579-.579s.579.259.579.579h0"/><path id="tr" class="xj" d="m30.961,65.679c0,.32-.259.579-.579.579s-.579-.259-.579-.579c0-.32.259-.579.579-.579s.579.259.579.579h0"/><path id="ts" class="xj" d="m30.961,67.332c0,.32-.259.579-.579.579s-.579-.259-.579-.579c0-.32.259-.579.579-.579s.579.259.579.579h0"/><path id="tt" class="xj" d="m30.961,68.985c0,.32-.259.579-.579.579s-.579-.259-.579-.579c0-.32.259-.579.579-.579s.579.259.579.579h0"/><path id="tu" class="xj" d="m30.961,70.638c0,.32-.259.579-.579.579s-.579-.259-.579-.579c0-.32.259-.579.579-.579s.579.259.579.579h0"/><path id="tv" class="xj" d="m30.961,72.291c0,.32-.259.579-.579.579s-.579-.259-.579-.579c0-.32.259-.579.579-.579s.579.259.579.579h0"/><path id="tw" class="xj" d="m32.617,59.066c0,.32-.259.579-.579.579s-.579-.259-.579-.579.259-.579.579-.579h0c.32,0,.579.259.579.579"/><path id="tx" class="xj" d="m32.617,60.719c0,.32-.259.579-.579.579s-.579-.259-.579-.579.259-.579.579-.579h0c.32,0,.579.259.579.579"/><path id="ty" class="xj" d="m32.617,62.372c0,.32-.259.579-.579.579s-.579-.259-.579-.579.259-.579.579-.579h0c.32,0,.579.259.579.579"/><path id="tz" class="xj" d="m32.617,64.025c0,.32-.259.579-.579.579s-.579-.259-.579-.579c0-.32.259-.579.579-.579s.579.259.579.579h0"/><path id="ua" class="xj" d="m32.617,67.332c0,.32-.259.579-.579.579s-.579-.259-.579-.579c0-.32.259-.579.579-.579s.579.259.579.579h0"/><path id="ub" class="xj" d="m32.617,68.985c0,.32-.259.579-.579.579s-.579-.259-.579-.579c0-.32.259-.579.579-.579s.579.259.579.579h0"/><path id="uc" class="xj" d="m32.617,70.638c0,.32-.259.579-.579.579s-.579-.259-.579-.579c0-.32.259-.579.579-.579s.579.259.579.579h0"/><path id="ud" class="xj" d="m32.617,72.291c0,.32-.259.579-.579.579s-.579-.259-.579-.579c0-.32.259-.579.579-.579s.579.259.579.579h0"/><path id="ue" class="xj" d="m34.274,59.066c0,.32-.259.579-.579.579s-.579-.259-.579-.579.259-.579.579-.579h0c.32,0,.579.259.579.579"/><path id="uf" class="xj" d="m34.274,60.719c0,.32-.259.579-.579.579s-.579-.259-.579-.579.259-.579.579-.579h0c.32,0,.579.259.579.579"/><path id="ug" class="xj" d="m34.274,62.372c0,.32-.259.579-.579.579s-.579-.259-.579-.579.259-.579.579-.579h0c.32,0,.579.259.579.579"/><path id="uh" class="xj" d="m34.274,64.025c0,.32-.259.579-.579.579s-.579-.259-.579-.579c0-.32.259-.579.579-.579s.579.259.579.579h0"/><path id="ui" class="xj" d="m34.274,67.332c0,.32-.259.579-.579.579s-.579-.259-.579-.579c0-.32.259-.579.579-.579s.579.259.579.579h0"/><path id="uj" class="xj" d="m34.274,68.985c0,.32-.259.579-.579.579s-.579-.259-.579-.579c0-.32.259-.579.579-.579s.579.259.579.579h0"/><path id="uk" class="xj" d="m34.274,70.638c0,.32-.259.579-.579.579s-.579-.259-.579-.579c0-.32.259-.579.579-.579s.579.259.579.579h0"/><path id="ul" class="xj" d="m34.274,72.291c0,.32-.259.579-.579.579s-.579-.259-.579-.579c0-.32.259-.579.579-.579s.579.259.579.579h0"/><path id="um" class="xj" d="m2.806,68.985c0,.32-.259.579-.579.579s-.579-.259-.579-.579c0-.32.259-.579.579-.579s.579.259.579.579h0"/><path id="un" class="xj" d="m4.463,67.332c0,.32-.259.579-.579.579s-.579-.259-.579-.579c0-.32.259-.579.579-.579s.579.259.579.579h0"/><path id="uo" class="xj" d="m7.775,57.413c0,.32-.259.579-.579.579s-.579-.259-.579-.579c0-.32.259-.579.579-.579h0c.32,0,.579.259.579.579"/><path id="up" class="xj" d="m7.775,59.066c0,.32-.259.579-.579.579s-.579-.259-.579-.579c0-.32.259-.579.579-.579h0c.32,0,.579.259.579.579"/><path id="uq" class="xj" d="m7.775,60.719c0,.32-.259.579-.579.579s-.579-.259-.579-.579c0-.32.259-.579.579-.579h0c.32,0,.579.259.579.579"/><path id="ur" class="xj" d="m7.775,65.679c0,.32-.259.579-.579.579s-.579-.259-.579-.579c0-.32.259-.579.579-.579s.579.259.579.579h0"/><path id="us" class="xj" d="m7.775,67.332c0,.32-.259.579-.579.579s-.579-.259-.579-.579c0-.32.259-.579.579-.579s.579.259.579.579h0"/><path id="ut" class="xj" d="m7.775,68.985c0,.32-.259.579-.579.579s-.579-.259-.579-.579c0-.32.259-.579.579-.579s.579.259.579.579h0"/><path id="uu" class="xj" d="m7.775,70.638c0,.32-.259.579-.579.579s-.579-.259-.579-.579c0-.32.259-.579.579-.579s.579.259.579.579h0"/><path id="uv" class="xj" d="m7.775,73.945c0,.32-.259.579-.579.579s-.579-.259-.579-.579c0-.32.259-.579.579-.579s.579.259.579.579h0"/><path id="uw" class="xj" d="m7.775,80.557c0,.32-.259.579-.579.579s-.579-.259-.579-.579c0-.32.259-.579.579-.579s.579.259.579.579h0"/><path id="ux" class="xj" d="m7.775,87.17c0,.32-.259.579-.579.579s-.579-.259-.579-.579c0-.32.259-.579.579-.579s.579.259.579.579h0"/><path id="uy" class="xj" d="m9.431,57.413c0,.32-.259.579-.579.579s-.579-.259-.579-.579c0-.32.259-.579.579-.579h0c.32,0,.579.259.579.579"/><path id="uz" class="xj" d="m9.431,59.066c0,.32-.259.579-.579.579s-.579-.259-.579-.579c0-.32.259-.579.579-.579h0c.32,0,.579.259.579.579"/><path id="va" class="xj" d="m9.431,64.025c0,.32-.259.579-.579.579s-.579-.259-.579-.579c0-.32.259-.579.579-.579s.579.259.579.579h0"/><path id="vb" class="xj" d="m9.431,65.679c0,.32-.259.579-.579.579s-.579-.259-.579-.579c0-.32.259-.579.579-.579s.579.259.579.579h0"/><path id="vc" class="xj" d="m9.431,67.332c0,.32-.259.579-.579.579s-.579-.259-.579-.579c0-.32.259-.579.579-.579s.579.259.579.579h0"/><path id="vd" class="xj" d="m9.431,68.985c0,.32-.259.579-.579.579s-.579-.259-.579-.579c0-.32.259-.579.579-.579s.579.259.579.579h0"/><path id="ve" class="xj" d="m9.431,70.638c0,.32-.259.579-.579.579s-.579-.259-.579-.579c0-.32.259-.579.579-.579s.579.259.579.579h0"/><path id="vf" class="xj" d="m9.431,73.945c0,.32-.259.579-.579.579s-.579-.259-.579-.579c0-.32.259-.579.579-.579s.579.259.579.579h0"/><path id="vg" class="xj" d="m9.431,75.598c0,.32-.259.579-.579.579s-.579-.259-.579-.579c0-.32.259-.579.579-.579s.579.259.579.579h0"/><path id="vh" class="xj" d="m9.431,77.251c0,.32-.259.579-.579.579s-.579-.259-.579-.579c0-.32.259-.579.579-.579s.579.259.579.579h0"/><path id="vi" class="xj" d="m9.431,78.904c0,.32-.259.579-.579.579s-.579-.259-.579-.579c0-.32.259-.579.579-.579s.579.259.579.579h0"/><path id="vj" class="xj" d="m9.431,80.557c0,.32-.259.579-.579.579s-.579-.259-.579-.579c0-.32.259-.579.579-.579s.579.259.579.579h0"/><path id="vk" class="xj" d="m11.088,64.025c0,.32-.259.579-.579.579s-.579-.259-.579-.579c0-.32.259-.579.579-.579s.579.259.579.579h0"/><path id="vl" class="xj" d="m11.088,65.679c0,.32-.259.579-.579.579s-.579-.259-.579-.579c0-.32.259-.579.579-.579s.579.259.579.579h0"/><path id="vm" class="xj" d="m11.088,67.332c0,.32-.259.579-.579.579s-.579-.259-.579-.579c0-.32.259-.579.579-.579s.579.259.579.579h0"/><path id="vn" class="xj" d="m11.088,73.945c0,.32-.259.579-.579.579s-.579-.259-.579-.579c0-.32.259-.579.579-.579s.579.259.579.579h0"/><path id="vo" class="xj" d="m11.088,75.598c0,.32-.259.579-.579.579s-.579-.259-.579-.579c0-.32.259-.579.579-.579s.579.259.579.579h0"/><path id="vp" class="xj" d="m11.088,77.251c0,.32-.259.579-.579.579s-.579-.259-.579-.579c0-.32.259-.579.579-.579s.579.259.579.579h0"/><path id="vq" class="xj" d="m11.088,78.904c0,.32-.259.579-.579.579s-.579-.259-.579-.579c0-.32.259-.579.579-.579s.579.259.579.579h0"/><path id="vr" class="xj" d="m11.088,80.557c0,.32-.259.579-.579.579s-.579-.259-.579-.579c0-.32.259-.579.579-.579s.579.259.579.579h0"/><path id="vs" class="xj" d="m11.088,82.211c0,.32-.259.579-.579.579s-.579-.259-.579-.579c0-.32.259-.579.579-.579s.579.259.579.579h0"/><path id="vt" class="xj" d="m11.088,85.517c0,.32-.259.579-.579.579s-.579-.259-.579-.579c0-.32.259-.579.579-.579s.579.259.579.579h0"/><path id="vu" class="xj" d="m12.744,64.025c0,.32-.259.579-.579.579s-.579-.259-.579-.579c0-.32.259-.579.579-.579s.579.259.579.579h0"/><path id="vv" class="xj" d="m12.744,65.679c0,.32-.259.579-.579.579s-.579-.259-.579-.579c0-.32.259-.579.579-.579s.579.259.579.579h0"/><path id="vw" class="xj" d="m12.744,67.332c0,.32-.259.579-.579.579s-.579-.259-.579-.579c0-.32.259-.579.579-.579s.579.259.579.579h0"/><path id="vx" class="xj" d="m12.744,68.985c0,.32-.259.579-.579.579s-.579-.259-.579-.579c0-.32.259-.579.579-.579s.579.259.579.579h0"/><path id="vy" class="xj" d="m12.744,70.638c0,.32-.259.579-.579.579s-.579-.259-.579-.579c0-.32.259-.579.579-.579s.579.259.579.579h0"/><path id="vz" class="xj" d="m12.744,72.291c0,.32-.259.579-.579.579s-.579-.259-.579-.579c0-.32.259-.579.579-.579s.579.259.579.579h0"/><path id="wa" class="xj" d="m12.744,73.945c0,.32-.259.579-.579.579s-.579-.259-.579-.579c0-.32.259-.579.579-.579s.579.259.579.579h0"/><path id="wb" class="xj" d="m12.744,75.598c0,.32-.259.579-.579.579s-.579-.259-.579-.579c0-.32.259-.579.579-.579s.579.259.579.579h0"/><path id="wc" class="xj" d="m12.744,77.251c0,.32-.259.579-.579.579s-.579-.259-.579-.579c0-.32.259-.579.579-.579s.579.259.579.579h0"/><path id="wd" class="xj" d="m12.744,78.904c0,.32-.259.579-.579.579s-.579-.259-.579-.579c0-.32.259-.579.579-.579s.579.259.579.579h0"/><path id="we" class="xj" d="m12.744,80.557c0,.32-.259.579-.579.579s-.579-.259-.579-.579c0-.32.259-.579.579-.579s.579.259.579.579h0"/><path id="wf" class="xj" d="m14.401,64.025c0,.32-.259.579-.579.579s-.579-.259-.579-.579c0-.32.259-.579.579-.579s.579.259.579.579h0"/><path id="wg" class="xj" d="m14.401,65.679c0,.32-.259.579-.579.579s-.579-.259-.579-.579c0-.32.259-.579.579-.579s.579.259.579.579h0"/><path id="wh" class="xj" d="m14.401,67.332c0,.32-.259.579-.579.579s-.579-.259-.579-.579c0-.32.259-.579.579-.579s.579.259.579.579h0"/><path id="wi" class="xj" d="m14.401,68.985c0,.32-.259.579-.579.579s-.579-.259-.579-.579c0-.32.259-.579.579-.579s.579.259.579.579h0"/><path id="wj" class="xj" d="m14.401,70.638c0,.32-.259.579-.579.579s-.579-.259-.579-.579c0-.32.259-.579.579-.579s.579.259.579.579h0"/><path id="wk" class="xj" d="m14.401,72.291c0,.32-.259.579-.579.579s-.579-.259-.579-.579c0-.32.259-.579.579-.579s.579.259.579.579h0"/><path id="wl" class="xj" d="m14.401,73.945c0,.32-.259.579-.579.579s-.579-.259-.579-.579c0-.32.259-.579.579-.579s.579.259.579.579h0"/><path id="wm" class="xj" d="m14.401,75.598c0,.32-.259.579-.579.579s-.579-.259-.579-.579c0-.32.259-.579.579-.579s.579.259.579.579h0"/><path id="wn" class="xj" d="m14.401,77.251c0,.32-.259.579-.579.579s-.579-.259-.579-.579c0-.32.259-.579.579-.579s.579.259.579.579h0"/><path id="wo" class="xj" d="m14.401,78.904c0,.32-.259.579-.579.579s-.579-.259-.579-.579c0-.32.259-.579.579-.579s.579.259.579.579h0"/><path id="wp" class="xj" d="m16.057,62.372c0,.32-.259.579-.579.579s-.579-.259-.579-.579c0-.32.259-.579.579-.579h0c.32,0,.579.259.579.579"/><path id="wq" class="xj" d="m16.057,64.025c0,.32-.259.579-.579.579s-.579-.259-.579-.579c0-.32.259-.579.579-.579s.579.259.579.579h0"/><path id="wr" class="xj" d="m16.057,65.679c0,.32-.259.579-.579.579s-.579-.259-.579-.579c0-.32.259-.579.579-.579s.579.259.579.579h0"/><path id="ws" class="xj" d="m16.057,67.332c0,.32-.259.579-.579.579s-.579-.259-.579-.579c0-.32.259-.579.579-.579s.579.259.579.579h0"/><path id="wt" class="xj" d="m16.057,68.985c0,.32-.259.579-.579.579s-.579-.259-.579-.579c0-.32.259-.579.579-.579s.579.259.579.579h0"/><path id="wu" class="xj" d="m16.057,70.638c0,.32-.259.579-.579.579s-.579-.259-.579-.579c0-.32.259-.579.579-.579s.579.259.579.579h0"/><path id="wv" class="xj" d="m16.057,72.291c0,.32-.259.579-.579.579s-.579-.259-.579-.579c0-.32.259-.579.579-.579s.579.259.579.579h0"/><path id="ww" class="xj" d="m16.057,73.945c0,.32-.259.579-.579.579s-.579-.259-.579-.579c0-.32.259-.579.579-.579s.579.259.579.579h0"/><path id="wx" class="xj" d="m16.057,75.598c0,.32-.259.579-.579.579s-.579-.259-.579-.579c0-.32.259-.579.579-.579s.579.259.579.579h0"/><path id="wy" class="xj" d="m17.713,62.372c0,.32-.259.579-.579.579s-.579-.259-.579-.579.259-.579.579-.579h0c.32,0,.579.259.579.579"/><path id="wz" class="xj" d="m17.713,64.025c0,.32-.259.579-.579.579s-.579-.259-.579-.579c0-.32.259-.579.579-.579s.579.259.579.579h0"/><path id="xa" class="xj" d="m17.713,67.332c0,.32-.259.579-.579.579s-.579-.259-.579-.579c0-.32.259-.579.579-.579s.579.259.579.579h0"/><path id="xb" class="xj" d="m17.713,68.985c0,.32-.259.579-.579.579s-.579-.259-.579-.579c0-.32.259-.579.579-.579s.579.259.579.579h0"/><path id="xc" class="xj" d="m17.713,70.638c0,.32-.259.579-.579.579s-.579-.259-.579-.579c0-.32.259-.579.579-.579s.579.259.579.579h0"/><path id="xd" class="xj" d="m17.713,72.291c0,.32-.259.579-.579.579s-.579-.259-.579-.579c0-.32.259-.579.579-.579s.579.259.579.579h0"/><path id="xe" class="xj" d="m17.713,73.945c0,.32-.259.579-.579.579s-.579-.259-.579-.579c0-.32.259-.579.579-.579s.579.259.579.579h0"/><path id="xf" class="xj" d="m1.16,68.985c0,.32-.259.579-.579.579S.001,69.305.001,68.985c0-.32.259-.579.579-.579s.579.259.579.579h0"/></g></g><g id="xg"><rect class="xi" width="109.29" height="88.233"/></g></svg>