<?xml version="1.0" encoding="UTF-8"?><svg id="b" xmlns="http://www.w3.org/2000/svg" viewBox="0 0 109.29 88.233"><defs><style>.ck{fill:#e0007c;}.ck,.cl{stroke-width:0px;}.cl{fill:none;}</style></defs><g id="c"><path id="d" class="ck" d="m85.656,15.944c0,.32-.259.579-.579.579-.32,0-.579-.259-.579-.579s.259-.579.579-.579c.32,0,.579.259.579.579h0"/><path id="e" class="ck" d="m72.408,47.355c0,.32-.259.579-.579.579s-.579-.259-.579-.579.259-.579.579-.579.579.259.579.579h0"/><path id="f" class="ck" d="m74.065,47.355c0,.32-.259.579-.579.579s-.579-.259-.579-.579.259-.579.579-.579.579.259.579.579h0"/><path id="g" class="ck" d="m74.065,49.008c0,.32-.259.579-.579.579s-.579-.259-.579-.579.259-.579.579-.579.579.259.579.579h0"/><path id="h" class="ck" d="m74.065,50.661c0,.32-.259.579-.579.579s-.579-.259-.579-.579.259-.579.579-.579.579.259.579.579h0"/><path id="i" class="ck" d="m75.722,47.355c0,.32-.259.579-.579.579s-.579-.259-.579-.579.259-.579.579-.579.579.259.579.579h0"/><path id="j" class="ck" d="m75.722,49.008c0,.32-.259.579-.579.579s-.579-.259-.579-.579.259-.579.579-.579.579.259.579.579h0"/><path id="k" class="ck" d="m79.034,42.395c0,.32-.259.579-.579.579s-.579-.259-.579-.579.259-.579.579-.579.579.259.579.579h0"/><path id="l" class="ck" d="m79.034,44.048c0,.32-.259.579-.579.579s-.579-.259-.579-.579.259-.579.579-.579.579.259.579.579h0"/><path id="m" class="ck" d="m80.691,42.395c0,.32-.259.579-.579.579s-.579-.259-.579-.579.259-.579.579-.579.579.259.579.579h0"/><path id="n" class="ck" d="m52.543,55.621c0,.32-.259.579-.579.579s-.579-.259-.579-.579.259-.579.579-.579h0c.32,0,.579.259.579.579"/><path id="o" class="ck" d="m52.543,57.273c0,.32-.259.579-.579.579s-.579-.259-.579-.579.259-.579.579-.579h0c.32,0,.579.259.579.579"/><path id="p" class="ck" d="m54.199,55.621c0,.32-.259.579-.579.579s-.579-.259-.579-.579.259-.579.579-.579h0c.32,0,.579.259.579.579"/><path id="q" class="ck" d="m54.199,57.273c0,.32-.259.579-.579.579s-.579-.259-.579-.579.259-.579.579-.579h0c.32,0,.579.259.579.579"/><path id="r" class="ck" d="m54.199,68.846c0,.32-.259.579-.579.579s-.579-.259-.579-.579c0-.32.259-.579.579-.579s.579.259.579.579h0"/><path id="s" class="ck" d="m55.855,65.539c0,.32-.259.579-.579.579s-.579-.259-.579-.579c0-.32.259-.579.579-.579s.579.259.579.579h0"/><path id="t" class="ck" d="m55.855,68.846c0,.32-.259.579-.579.579s-.579-.259-.579-.579c0-.32.259-.579.579-.579s.579.259.579.579h0"/><path id="u" class="ck" d="m57.511,67.192c0,.32-.259.579-.579.579s-.579-.259-.579-.579c0-.32.259-.579.579-.579s.579.259.579.579h0"/><path id="v" class="ck" d="m59.168,53.968c0,.32-.259.579-.579.579s-.579-.259-.579-.579.259-.579.579-.579h0c.32,0,.579.259.579.579"/><path id="w" class="ck" d="m59.168,55.621c0,.32-.259.579-.579.579s-.579-.259-.579-.579.259-.579.579-.579h0c.32,0,.579.259.579.579"/><path id="x" class="ck" d="m59.168,62.233c0,.32-.259.579-.579.579s-.579-.259-.579-.579.259-.579.579-.579h0c.32,0,.579.259.579.579"/><path id="y" class="ck" d="m60.824,53.968c0,.32-.259.579-.579.579s-.579-.259-.579-.579.259-.579.579-.579h0c.32,0,.579.259.579.579"/><path id="z" class="ck" d="m60.824,55.621c0,.32-.259.579-.579.579s-.579-.259-.579-.579.259-.579.579-.579h0c.32,0,.579.259.579.579"/><path id="aa" class="ck" d="m60.824,60.58c0,.32-.259.579-.579.579s-.579-.259-.579-.579.259-.579.579-.579h0c.32,0,.579.259.579.579"/><path id="ab" class="ck" d="m60.824,65.539c0,.32-.259.579-.579.579s-.579-.259-.579-.579c0-.32.259-.579.579-.579s.579.259.579.579h0"/><path id="ac" class="ck" d="m62.481,53.968c0,.32-.259.579-.579.579s-.579-.259-.579-.579.259-.579.579-.579h0c.32,0,.579.259.579.579"/><path id="ad" class="ck" d="m62.481,55.621c0,.32-.259.579-.579.579s-.579-.259-.579-.579.259-.579.579-.579h0c.32,0,.579.259.579.579"/><path id="ae" class="ck" d="m62.481,57.273c0,.32-.259.579-.579.579s-.579-.259-.579-.579.259-.579.579-.579h0c.32,0,.579.259.579.579"/><path id="af" class="ck" d="m62.481,58.926c0,.32-.259.579-.579.579s-.579-.259-.579-.579.259-.579.579-.579h0c.32,0,.579.259.579.579"/><path id="ag" class="ck" d="m62.481,63.886c0,.32-.259.579-.579.579s-.579-.259-.579-.579c0-.32.259-.579.579-.579s.579.259.579.579h0"/><path id="ah" class="ck" d="m62.481,65.539c0,.32-.259.579-.579.579s-.579-.259-.579-.579c0-.32.259-.579.579-.579s.579.259.579.579h0"/><path id="ai" class="ck" d="m64.137,52.314c0,.32-.259.579-.579.579s-.579-.259-.579-.579.259-.579.579-.579.579.259.579.579h0"/><path id="aj" class="ck" d="m64.137,53.968c0,.32-.259.579-.579.579s-.579-.259-.579-.579.259-.579.579-.579.579.259.579.579h0"/><path id="ak" class="ck" d="m64.137,55.621c0,.32-.259.579-.579.579s-.579-.259-.579-.579.259-.579.579-.579.579.259.579.579h0"/><path id="al" class="ck" d="m64.137,63.886c0,.32-.259.579-.579.579s-.579-.259-.579-.579.259-.579.579-.579.579.259.579.579h0"/><path id="am" class="ck" d="m64.137,65.539c0,.32-.259.579-.579.579s-.579-.259-.579-.579.259-.579.579-.579.579.259.579.579h0"/><path id="an" class="ck" d="m64.137,67.192c0,.32-.259.579-.579.579s-.579-.259-.579-.579.259-.579.579-.579.579.259.579.579h0"/><path id="ao" class="ck" d="m65.793,52.314c0,.32-.259.579-.579.579s-.579-.259-.579-.579.259-.579.579-.579.579.259.579.579h0"/><path id="ap" class="ck" d="m65.793,53.968c0,.32-.259.579-.579.579s-.579-.259-.579-.579.259-.579.579-.579.579.259.579.579h0"/><path id="aq" class="ck" d="m65.793,57.273c0,.32-.259.579-.579.579s-.579-.259-.579-.579.259-.579.579-.579.579.259.579.579h0"/><path id="ar" class="ck" d="m65.793,58.926c0,.32-.259.579-.579.579s-.579-.259-.579-.579.259-.579.579-.579.579.259.579.579h0"/><path id="as" class="ck" d="m67.449,57.273c0,.32-.259.579-.579.579s-.579-.259-.579-.579.259-.579.579-.579.579.259.579.579h0"/><path id="at" class="ck" d="m67.449,58.926c0,.32-.259.579-.579.579s-.579-.259-.579-.579.259-.579.579-.579.579.259.579.579h0"/><path id="au" class="ck" d="m67.449,62.233c0,.32-.259.579-.579.579s-.579-.259-.579-.579.259-.579.579-.579.579.259.579.579h0"/><path id="av" class="ck" d="m67.449,65.539c0,.32-.259.579-.579.579s-.579-.259-.579-.579.259-.579.579-.579.579.259.579.579h0"/><path id="aw" class="ck" d="m37.575,63.886c0,.32-.259.579-.579.579s-.579-.259-.579-.579c0-.32.259-.579.579-.579s.579.259.579.579h0"/><path id="ax" class="ck" d="m37.575,65.539c0,.32-.259.579-.579.579s-.579-.259-.579-.579c0-.32.259-.579.579-.579s.579.259.579.579h0"/><path id="ay" class="ck" d="m37.575,67.192c0,.32-.259.579-.579.579s-.579-.259-.579-.579c0-.32.259-.579.579-.579s.579.259.579.579h0"/><path id="az" class="ck" d="m39.231,63.886c0,.32-.259.579-.579.579s-.579-.259-.579-.579c0-.32.259-.579.579-.579s.579.259.579.579h0"/><path id="ba" class="ck" d="m39.231,65.539c0,.32-.259.579-.579.579s-.579-.259-.579-.579c0-.32.259-.579.579-.579s.579.259.579.579h0"/><path id="bb" class="ck" d="m39.231,67.192c0,.32-.259.579-.579.579s-.579-.259-.579-.579c0-.32.259-.579.579-.579s.579.259.579.579h0"/><path id="bc" class="ck" d="m40.888,65.539c0,.32-.259.579-.579.579s-.579-.259-.579-.579c0-.32.259-.579.579-.579s.579.259.579.579h0"/><path id="bd" class="ck" d="m40.888,67.192c0,.32-.259.579-.579.579s-.579-.259-.579-.579c0-.32.259-.579.579-.579s.579.259.579.579h0"/><path id="be" class="ck" d="m40.888,68.846c0,.32-.259.579-.579.579s-.579-.259-.579-.579c0-.32.259-.579.579-.579s.579.259.579.579h0"/><path id="bf" class="ck" d="m42.543,68.846c0,.32-.259.579-.579.579s-.579-.259-.579-.579c0-.32.259-.579.579-.579s.579.259.579.579h0"/><path id="bg" class="ck" d="m42.543,70.499c0,.32-.259.579-.579.579s-.579-.259-.579-.579c0-.32.259-.579.579-.579s.579.259.579.579h0"/><path id="bh" class="ck" d="m44.2,65.539c0,.32-.259.579-.579.579s-.579-.259-.579-.579c0-.32.259-.579.579-.579s.579.259.579.579h0"/><path id="bi" class="ck" d="m44.2,70.499c0,.32-.259.579-.579.579s-.579-.259-.579-.579c0-.32.259-.579.579-.579s.579.259.579.579h0"/><path id="bj" class="ck" d="m45.856,63.886c0,.32-.259.579-.579.579s-.579-.259-.579-.579c0-.32.259-.579.579-.579s.579.259.579.579h0"/><path id="bk" class="ck" d="m45.856,67.192c0,.32-.259.579-.579.579s-.579-.259-.579-.579c0-.32.259-.579.579-.579s.579.259.579.579h0"/><path id="bl" class="ck" d="m47.513,55.621c0,.32-.259.579-.579.579s-.579-.259-.579-.579.259-.579.579-.579h0c.32,0,.579.259.579.579"/><path id="bm" class="ck" d="m47.513,57.273c0,.32-.259.579-.579.579s-.579-.259-.579-.579.259-.579.579-.579h0c.32,0,.579.259.579.579"/><path id="bn" class="ck" d="m47.513,63.886c0,.32-.259.579-.579.579s-.579-.259-.579-.579c0-.32.259-.579.579-.579s.579.259.579.579h0"/><path id="bo" class="ck" d="m47.513,65.539c0,.32-.259.579-.579.579s-.579-.259-.579-.579c0-.32.259-.579.579-.579s.579.259.579.579h0"/><path id="bp" class="ck" d="m47.513,68.846c0,.32-.259.579-.579.579s-.579-.259-.579-.579c0-.32.259-.579.579-.579s.579.259.579.579h0"/><path id="bq" class="ck" d="m49.169,57.273c0,.32-.259.579-.579.579s-.579-.259-.579-.579.259-.579.579-.579h0c.32,0,.579.259.579.579"/><path id="br" class="ck" d="m49.169,63.886c0,.32-.259.579-.579.579s-.579-.259-.579-.579c0-.32.259-.579.579-.579s.579.259.579.579h0"/><path id="bs" class="ck" d="m49.169,65.539c0,.32-.259.579-.579.579s-.579-.259-.579-.579c0-.32.259-.579.579-.579s.579.259.579.579h0"/><path id="bt" class="ck" d="m49.169,68.846c0,.32-.259.579-.579.579s-.579-.259-.579-.579c0-.32.259-.579.579-.579s.579.259.579.579h0"/><path id="bu" class="ck" d="m50.826,55.621c0,.32-.259.579-.579.579s-.579-.259-.579-.579.259-.579.579-.579h0c.32,0,.579.259.579.579"/><path id="bv" class="ck" d="m50.826,67.192c0,.32-.259.579-.579.579s-.579-.259-.579-.579c0-.32.259-.579.579-.579s.579.259.579.579h0"/><path id="bw" class="ck" d="m24.335,62.233c0,.32-.259.579-.579.579s-.579-.259-.579-.579.259-.579.579-.579h0c.32,0,.579.259.579.579"/><path id="bx" class="ck" d="m24.335,63.886c0,.32-.259.579-.579.579s-.579-.259-.579-.579c0-.32.259-.579.579-.579s.579.259.579.579h0"/><path id="by" class="ck" d="m25.99,62.233c0,.32-.259.579-.579.579s-.579-.259-.579-.579.259-.579.579-.579h0c.32,0,.579.259.579.579"/><path id="bz" class="ck" d="m25.99,63.886c0,.32-.259.579-.579.579s-.579-.259-.579-.579c0-.32.259-.579.579-.579s.579.259.579.579h0"/><path id="ca" class="ck" d="m29.303,63.886c0,.32-.259.579-.579.579s-.579-.259-.579-.579c0-.32.259-.579.579-.579s.579.259.579.579h0"/><path id="cb" class="ck" d="m34.273,63.886c0,.32-.259.579-.579.579s-.579-.259-.579-.579c0-.32.259-.579.579-.579s.579.259.579.579h0"/><path id="cc" class="ck" d="m9.43,63.886c0,.32-.259.579-.579.579s-.579-.259-.579-.579c0-.32.259-.579.579-.579s.579.259.579.579h0"/><path id="cd" class="ck" d="m9.43,65.539c0,.32-.259.579-.579.579s-.579-.259-.579-.579c0-.32.259-.579.579-.579s.579.259.579.579h0"/><path id="ce" class="ck" d="m11.087,63.886c0,.32-.259.579-.579.579s-.579-.259-.579-.579c0-.32.259-.579.579-.579s.579.259.579.579h0"/><path id="cf" class="ck" d="m11.087,65.539c0,.32-.259.579-.579.579s-.579-.259-.579-.579c0-.32.259-.579.579-.579s.579.259.579.579h0"/><path id="cg" class="ck" d="m12.743,63.886c0,.32-.259.579-.579.579s-.579-.259-.579-.579c0-.32.259-.579.579-.579s.579.259.579.579h0"/><path id="ch" class="ck" d="m12.743,65.539c0,.32-.259.579-.579.579s-.579-.259-.579-.579c0-.32.259-.579.579-.579s.579.259.579.579h0"/><path id="ci" class="ck" d="m14.399,70.499c0,.32-.259.579-.579.579s-.579-.259-.579-.579c0-.32.259-.579.579-.579s.579.259.579.579h0"/></g><g id="cj"><rect class="cl" width="109.29" height="88.233"/></g></svg>