<?xml version="1.0" encoding="UTF-8"?><svg id="b" xmlns="http://www.w3.org/2000/svg" viewBox="0 0 242.505 28.843"><defs><style>.ad{fill:#fff;stroke-width:0px;}</style></defs><g id="c"><g id="d"><g id="e"><g id="f"><path id="g" class="ad" d="m193.651,9.852h5.788c.773,0,1.4-.627,1.4-1.4v-.828h-7.186c-.131,0-.238.107-.238.238h0v1.748c-.002.131.103.24.234.242,0,0,.001,0,.002,0Z"/><path id="h" class="ad" d="m193.651,14.375h5.788c.773,0,1.4-.627,1.4-1.4v-.822h-7.186c-.131,0-.238.107-.238.238h0v1.748c.001.13.106.235.236.236Z"/><path id="i" class="ad" d="m207.473,10.589h-2.146c-.131,0-.238.107-.238.238h0v1.491c0,6.759-3.871,7.325-7.5,7.325h-4.176v1.225c0,.773.627,1.4,1.4,1.4h2.78c2.5,0,10.123,0,10.123-9.947v-1.49c.002-.132-.104-.24-.236-.242-.002,0-.005,0-.007,0Z"/><path id="j" class="ad" d="m119.717,14.276v-6.415c0-.131-.107-.238-.238-.238h-2.146c-.132,0-.238.106-.239.238v7.811h1.226c.77-.002,1.395-.626,1.397-1.396Z"/><path id="k" class="ad" d="m167.55,6.808c0-.132-.107-.239-.239-.239h-2.146c-.131,0-.238.107-.238.238h0v.822h-10.08c-.132,0-.239.107-.239.239v1.747c0,.132.107.239.239.239h6.692c-.087,1.946-.882,8.424-7.55,9.834-.126.025-.209.146-.187.273l.4,2.109c.027.133.156.218.289.192,7.506-1.565,9.582-8.45,9.677-12.407h.758v12.179c0,.131.106.238.237.239,0,0,0,0,.001,0h2.146c.132,0,.239-.107.239-.239h0v-12.181h1.535c.773,0,1.4-.627,1.4-1.4v-.828h-2.934v-.817Z"/><path id="l" class="ad" d="m223.461,10.589h-11.314v.828c0,.773.627,1.4,1.4,1.4h7.534v2.508h-8.052c-.131,0-.238.106-.239.237v1.749c0,.131.106.238.237.239,0,0,0,0,.001,0h8.049v2.508h-8.93v.828c0,.773.627,1.4,1.4,1.4h8c1.193-.002,2.16-.97,2.16-2.163v-9.295c0-.132-.107-.239-.239-.239-.002,0-.005,0-.007,0Z"/><path id="m" class="ad" d="m130.034,7.623h-2.146c-.132,0-.238.106-.239.238v4.459c0,6.759-3.871,7.325-7.5,7.325h-1.4v1.225c0,.773.627,1.4,1.4,1.4,2.5,0,10.122,0,10.122-9.946v-4.463c0-.131-.106-.237-.237-.238Z"/><path id="n" class="ad" d="m112.344,12.148h-7.966l-.085-1.321c-.008-.126-.112-.223-.238-.223h-2.149c-.131,0-.238.106-.239.237,0,.006,0,.011,0,.017l.083,1.29h-2.509c-.131,0-.238.107-.238.238h0v1.751c0,.131.107.238.238.238h2.652l.492,7.677c.008.125.112.223.238.223h2.149c.132,0,.239-.108.238-.24,0-.005,0-.01,0-.014l-.491-7.647h5.838v.213c-.035.617-.285,1.203-.707,1.654-.393.377-.887.632-1.421.735-.633.144-1.083.706-1.085,1.356v1c1.514.055,2.987-.498,4.091-1.535.84-.869,1.32-2.024,1.345-3.232v-2.178c0-.131-.106-.238-.237-.239Z"/><path id="o" class="ad" d="m228.44,9.852h7.012c.773,0,1.4-.627,1.4-1.4v-.828h-8.413c-.131,0-.238.107-.238.238h0v1.748c-.002.131.103.24.234.242.002,0,.003,0,.005,0Z"/><path id="p" class="ad" d="m242.262,10.589h-2.146c-.132,0-.238.107-.238.239v1.49c0,6.759-3.871,7.325-7.5,7.325h-4.176v1.225c0,.773.627,1.4,1.4,1.4h2.78c2.5,0,10.123,0,10.123-9.947v-1.49c.002-.132-.104-.24-.236-.242-.002,0-.005,0-.007,0Z"/><path id="q" class="ad" d="m187.573,5.51c-1.179.003-2.143.941-2.178,2.119h-11.344c-.131,0-.238.107-.238.238h0v1.748c0,.131.106.238.237.239,0,0,0,0,.001,0h10.958v2.467c0,6.759-3.871,7.325-7.5,7.325h-1.725v1.225c0,.773.627,1.4,1.4,1.4h.329c2.5,0,10.123,0,10.123-9.946v-2.452c1.205-.036,2.152-1.042,2.115-2.247-.035-1.176-.997-2.112-2.173-2.116h-.005Zm0,3.178c-.548,0-.993-.445-.993-.993s.445-.993.993-.993c.548,0,.993.445.993.993,0,.548-.445.992-.993.993Z"/><path id="r" class="ad" d="m150.188,7.868c0-.132-.107-.239-.239-.239h-15.1c-.131,0-.238.107-.238.238h0v1.748c0,.131.106.238.237.239,0,0,0,0,.001,0h12.707c-.062,2.991-1.455,4.283-4.626,4.3v-2.473c0-.132-.107-.239-.239-.239h-2.142c-.132,0-.238.107-.238.239v4.257c0,3.276-1.626,3.717-3.215,3.717h-1.4v1.225c0,.773.627,1.4,1.4,1.4h0c3.442,0,5.52-1.993,5.8-5.5,4.629,0,7.2-2.462,7.283-6.919l.009-1.993Z"/><path id="s" class="ad" d="m73.832,15.405h-12.868c-.132,0-.239.107-.239.239v7.392c0,.132.107.239.239.239h10.948c1.193,0,2.16-.967,2.16-2.16h0v-5.47c0-.132-.106-.239-.238-.24,0,0-.001,0-.002,0Zm-2.119,5.646h-8.625v-3.426h8.63l-.005,3.426Z"/><path id="t" class="ad" d="m70.569,14.132c.773,0,1.4-.627,1.4-1.4h0v-.829h-8.748c-.132,0-.239.107-.239.239v1.75c0,.132.107.239.239.239h7.348Z"/><path id="u" class="ad" d="m76.982,11.825c-1.631-.875-3.19-1.879-4.663-3-1.238-.971-2.377-2.062-3.4-3.258h-2.9c-1.023,1.196-2.162,2.287-3.4,3.258-1.473,1.121-3.033,2.125-4.664,3-.114.06-.159.201-.1.316l.778,1.567c.058.118.2.167.318.109.002,0,.003-.002.005-.002,1.755-.936,3.432-2.013,5.013-3.22,1.268-.987,2.44-2.092,3.5-3.3,1.06,1.208,2.232,2.313,3.5,3.3,1.169.89,2.389,1.711,3.653,2.459.798.471,1.827.206,2.298-.593.021-.035.04-.071.058-.107l.1-.211c.06-.114.017-.256-.096-.318Z"/><path id="v" class="ad" d="m44.115,14.185h-2.741l2.293-2.859c.278-.338.234-.836-.1-1.119l-.857-.711-.786.976-1.2-.886,1.753-2.189c.278-.338.234-.836-.1-1.119l-.862-.711-3.26,4.05c-.061.076-.049.188.027.249.002.001.004.003.005.004l1.388,1.024h0l1.2.884-1.939,2.408h-.836c-.088,0-.159.071-.159.159v1.611c0,.088.071.159.159.159h4.1v7.161h.915c.658,0,1.192-.534,1.192-1.192h0v-7.7c0-.107-.085-.195-.192-.199Z"/><path id="w" class="ad" d="m40.272,17.205h-1.8c-.088,0-.159.07-.16.158,0,0,0,.001,0,.002v5.91h.925c.658,0,1.191-.533,1.191-1.191h0v-4.721c0-.086-.07-.156-.156-.158Z"/><path id="x" class="ad" d="m52.453,12.984c.658,0,1.191-.533,1.191-1.191h0v-.648h-6.345c-.087,0-.158.072-.158.159v1.524c0,.087.071.158.158.159l5.154-.003Z"/><path id="y" class="ad" d="m55.566,7.328h-3.981v-1.522c0-.132-.107-.239-.239-.239h-1.907c-.132,0-.239.107-.239.239v1.522h-4c-.128.005-.228.111-.227.239v2.733c0,.132.107.239.239.239h.7c.526,0,.952-.425.953-.951v-.511h7.175v1.222c0,.132.107.239.239.239h.5c.579,0,1.048-.469,1.048-1.048v-1.924c-.001-.133-.11-.24-.243-.239-.006,0-.012,0-.018,0Z"/><path id="z" class="ad" d="m45.458,14.345v1.61c0,.088.071.159.159.159h3.718v7.161h.925c.658,0,1.192-.534,1.192-1.192h0v-5.969h2.686c.658,0,1.191-.533,1.191-1.191h0v-.738h-9.715c-.087.002-.156.073-.156.16Z"/><path id="aa" class="ad" d="m47.806,17.205h-1.8c-.088,0-.16.072-.16.16h0v5.91h.925c.658,0,1.192-.534,1.192-1.192h0v-4.72c0-.087-.07-.157-.157-.158Z"/><path id="ab" class="ad" d="m54.777,17.205h-1.8c-.088,0-.159.07-.16.158,0,0,0,.001,0,.002v5.91h.924c.658,0,1.192-.534,1.192-1.192h0v-4.72c0-.086-.07-.156-.156-.158Z"/><path id="ac" class="ad" d="m88.874,10.579h5.36c.773,0,1.4-.627,1.4-1.4v-.828h-7.038l-.2-1.577c-.015-.12-.116-.209-.237-.209h-2.146c-.132,0-.239.107-.239.239,0,.01,0,.02.002.03l.192,1.518h-6.013c-.132,0-.239.107-.239.239v1.753c0,.132.107.239.239.239h6.295l.541,4.269h-6.836c-.132,0-.239.107-.239.239v1.747c0,.132.107.238.239.238h7.119l.632,4.992c.015.119.117.209.237.209h2.146c.131,0,.238-.106.239-.237,0-.011,0-.021-.002-.032l-.625-4.931h4.932c.773,0,1.4-.627,1.4-1.4v-.833h-6.615l-.544-4.265Z"/></g></g></g><path class="ad" d="m0,0v28.843h28.843V0H0Zm13.926,6.777c1.681,0,3.044,1.363,3.044,3.044v3.043h-.572c-.475,0-.86-.385-.861-.86v-2.184h0c0-.891-.723-1.613-1.613-1.612-.89,0-1.612.723-1.611,1.613,0,.89.723,1.612,1.613,1.611.083,0,.15.067.15.15v1.133c0,.083-.067.15-.15.15-1.681,0-3.044-1.363-3.044-3.044s1.363-3.044,3.044-3.044Zm-4.017,10.617v.002c0,.082-.068.149-.15.148h-2.835c-.052-.003-.105-.003-.157,0-.856.044-1.515.773-1.471,1.629.044.856.773,1.515,1.629,1.471h2.984v.572c0,.475-.385.86-.86.86h-2.128c-1.648-.001-2.983-1.338-2.982-2.986.001-1.648,1.338-2.983,2.986-2.982h2.836c.082,0,.149.067.149.149v1.137Zm0-9.211v.002c0,.082-.068.149-.15.148h-2.835c-.052-.003-.105-.003-.157,0-.856.044-1.515.773-1.471,1.629.044.856.773,1.515,1.629,1.471h2.984v.572c0,.475-.385.86-.86.86h-2.126c-1.648,0-2.983-1.337-2.983-2.985s1.337-2.983,2.985-2.983h2.837c.082,0,.149.068.148.15v1.136Zm4.018,14.005c-1.712,0-3.1-1.388-3.1-3.1s1.388-3.1,3.1-3.1c1.71.004,3.096,1.39,3.1,3.1,0,1.712-1.388,3.1-3.1,3.1Zm5.65-.112h-.575c-.475,0-.86-.385-.86-.86v-4.959c0-.082.067-.149.149-.149h1.134s.002,0,.003,0c.082,0,.149.067.149.149v5.819Zm0-9.21h-.575c-.475,0-.86-.385-.86-.86v-4.959h0c0-.083.067-.15.149-.15h1.134s.003,0,.004,0c.082,0,.149.068.148.15v5.819Zm2.264,9.21h-.572c-.475,0-.86-.385-.861-.86v-5.108h.572c.475,0,.86.385.861.86v5.108Zm0-9.211h-.572c-.475,0-.86-.385-.861-.86v-5.108h.574c.476.001.86.387.859.863v5.105Zm2.269,9.211h-.572c-.475,0-.86-.385-.86-.86v-5.108h.572c.475,0,.86.385.86.86v5.108Zm0-9.211h-.572c-.475,0-.86-.385-.86-.86v-5.108h.575c.475.002.859.388.857.863v5.105Z"/><path class="ad" d="m13.929,17.421c-.923,0-1.671.747-1.672,1.67s.747,1.671,1.67,1.672h0c.922-.002,1.67-.749,1.672-1.671,0-.922-.748-1.67-1.67-1.671Z"/></g></svg>