<?xml version="1.0" encoding="UTF-8"?><svg id="b" xmlns="http://www.w3.org/2000/svg" viewBox="0 0 37.337 28.4"><defs><style>.d{fill:none;}.d,.e{stroke-width:0px;}.e{fill:#221815;}</style></defs><g id="c"><path class="e" d="m7.719,6.334c1.274,0,2.307-1.033,2.307-2.307s-1.033-2.307-2.307-2.307-2.307,1.033-2.307,2.307,1.033,2.307,2.307,2.307Z"/><path class="e" d="m10.84,6.829h-6.243c-1.141,0-2.066.925-2.066,2.066v5.569c0,.51.414.924.924.924s.924-.414.924-.924v-4.463c0-.157.127-.284.284-.284s.284.127.284.284v15.167c0,.687.557,1.244,1.244,1.244s1.244-.557,1.244-1.244v-9.496c0-.157.127-.284.284-.284s.284.127.284.284v9.496c0,.687.557,1.244,1.244,1.244s1.244-.557,1.244-1.244v-15.167c0-.157.127-.284.284-.284s.284.127.284.284v4.463c0,.51.414.924.924.924s.924-.414.924-.924v-5.569c0-1.141-.925-2.066-2.066-2.066Z"/><path class="e" d="m18.668,6.334c1.274,0,2.307-1.033,2.307-2.307s-1.033-2.307-2.307-2.307-2.307,1.033-2.307,2.307,1.033,2.307,2.307,2.307Z"/><path class="e" d="m21.79,6.829h-6.243c-1.141,0-2.066.925-2.066,2.066v5.569c0,.51.414.924.924.924s.924-.414.924-.924v-4.463c0-.157.127-.284.284-.284s.284.127.284.284v15.167c0,.687.557,1.244,1.244,1.244s1.244-.557,1.244-1.244v-9.496c0-.157.127-.284.284-.284s.284.127.284.284v9.496c0,.687.557,1.244,1.244,1.244s1.244-.557,1.244-1.244v-15.167c0-.157.127-.284.284-.284s.284.127.284.284v4.463c0,.51.414.924.924.924s.924-.414.924-.924v-5.569c0-1.141-.925-2.066-2.066-2.066Z"/><path class="e" d="m30.013,6.334c1.274,0,2.307-1.033,2.307-2.307s-1.033-2.307-2.307-2.307-2.307,1.033-2.307,2.307,1.033,2.307,2.307,2.307Z"/><path class="e" d="m33.135,6.829h-6.243c-1.141,0-2.066.925-2.066,2.066v5.569c0,.51.414.924.924.924s.924-.414.924-.924v-4.463c0-.157.127-.284.284-.284s.284.127.284.284v15.167c0,.687.557,1.244,1.244,1.244s1.244-.557,1.244-1.244v-9.496c0-.157.127-.284.284-.284s.284.127.284.284v9.496c0,.687.557,1.244,1.244,1.244s1.244-.557,1.244-1.244v-15.167c0-.157.127-.284.284-.284s.284.127.284.284v4.463c0,.51.414.924.924.924s.924-.414.924-.924v-5.569c0-1.141-.925-2.066-2.066-2.066Z"/><rect class="d" width="37.337" height="28.4"/></g></svg>