<?xml version="1.0" encoding="UTF-8"?><svg id="b" xmlns="http://www.w3.org/2000/svg" viewBox="0 0 37.337 28.4"><defs><style>.d{fill:none;}.d,.e{stroke-width:0px;}.e{fill:#221815;}</style></defs><g id="c"><path class="e" d="m17.344,18.269c-.223-.089-.505-.169-.797-.169-.527,0-.955.559-.955,1.249s.427,1.249.955,1.249c.292,0,.574-.08.797-.169.318-.127.663-.076.945.155l.018.015v-2.498l-.018.015c-.282.231-.627.282-.945.155Z"/><path class="e" d="m20.067,7.115c-.292,0-.574.08-.797.169-.318.127-.663.076-.945-.155l-.018-.015v-3.996h-3.996l-.015-.018c-.231-.282-.282-.627-.155-.945.089-.223.169-.505.169-.797,0-.527-.559-.955-1.249-.955s-1.249.427-1.249.955c0,.292.08.574.169.797.127.318.076.663-.155.945l-.015.018h-3.996v3.996l.018.015c.282.231.627.282.945.155.223-.089.505-.169.797-.169.527,0,.955.559.955,1.249s-.427,1.249-.955,1.249c-.292,0-.574-.08-.797-.169-.318-.127-.663-.076-.945.155l-.018.014v3.996h10.49v-3.996l.018-.014c.283-.231.627-.282.945-.155.223.089.505.169.797.169.527,0,.955-.559.955-1.249s-.428-1.249-.955-1.249Z"/><path class="e" d="m14.311,14.901l-.015-.018c-.231-.282-.282-.627-.155-.945.089-.223.169-.505.169-.797,0-.527-.559-.955-1.249-.955s-1.249.428-1.249.955c0,.292.08.574.169.797.127.318.076.663-.155.945l-.015.018h-3.996v3.996l-.018.015c-.282.231-.627.282-.945.155-.223-.089-.505-.169-.797-.169-.527,0-.955.559-.955,1.249s.428,1.249.955,1.249c.292,0,.574-.08.797-.169.318-.127.663-.076.945.155l.018.015v3.996h3.996l.015-.018c.231-.283.282-.627.155-.945-.089-.223-.169-.505-.169-.797,0-.527.559-.955,1.249-.955s1.249.428,1.249.955c0,.292-.08.574-.169.797-.127.318-.076.663.155.945l.015.018h3.996v-10.49h-3.996Z"/><path class="e" d="m28.394,18.788c.292,0,.574.08.797.169.318.127.663.076.945-.155l.018-.015v-3.996h-10.49v3.996l-.018.015c-.283.231-.627.282-.945.155-.223-.089-.505-.169-.797-.169-.527,0-.955.559-.955,1.249s.428,1.249.955,1.249c.292,0,.574-.08.797-.169.318-.127.663-.076.945.155l.018.015v3.996h3.996l.015.018c.231.282.282.627.155.945-.089.223-.169.505-.169.797,0,.527.559.955,1.249.955s1.249-.428,1.249-.955c0-.292-.08-.574-.169-.797-.127-.318-.076-.663.155-.945l.015-.018h3.996v-3.996l-.018-.014c-.283-.231-.627-.282-.945-.155-.223.089-.505.169-.797.169-.527,0-.955-.559-.955-1.249s.427-1.249.955-1.249Z"/><path class="e" d="m32.126,7.032c-.292,0-.574.08-.797.169-.318.127-.663.076-.945-.155l-.018-.015v-3.996h-3.996l-.014.018c-.231.283-.282.627-.155.945.089.223.169.505.169.797,0,.527-.559.955-1.249.955s-1.249-.428-1.249-.955c0-.292.08-.574.169-.797.127-.318.076-.663-.155-.945l-.015-.018h-3.996v10.49h4.22l.015.018c.231.282.282.627.155.945-.089.223-.169.505-.169.797,0,.527.559.955,1.249.955s1.249-.428,1.249-.955c0-.292-.08-.574-.169-.797-.127-.318-.076-.663.155-.945l.015-.018h3.772v-3.996l.018-.015c.283-.231.627-.282.945-.155.223.089.505.169.797.169.527,0,.955-.559.955-1.249s-.428-1.249-.955-1.249Z"/><rect class="d" width="37.337" height="28.4"/></g></svg>